<?xml version="1.0" encoding="utf-8"?>
<!-- Generator: Adobe Illustrator 19.1.0, SVG Export Plug-In . SVG Version: 6.00 Build 0)  -->
<svg version="1.1" xmlns="http://www.w3.org/2000/svg" xmlns:xlink="http://www.w3.org/1999/xlink" x="0px" y="0px"
	 viewBox="0 0 488.7 474.3" style="enable-background:new 0 0 488.7 474.3;" xml:space="preserve">
<style type="text/css">
	.st0{display:none;}
	.st1{display:inline;}
	.st2{fill:url(#SVGID_1_);}
	.st3{fill:#A97D14;}
	.st4{fill:#482F00;}
	.st5{fill:#725209;}
	.st6{fill:#256662;}
	.st7{fill:#0D3F3E;}
	.st8{fill:#194747;}
	.st9{fill:url(#SVGID_2_);}
	.st10{fill:url(#SVGID_3_);}
	.st11{fill:url(#SVGID_4_);}
	.st12{fill:url(#SVGID_5_);}
	.st13{fill:url(#SVGID_6_);}
	.st14{fill:url(#SVGID_7_);}
	.st15{fill:url(#SVGID_8_);}
	.st16{fill:url(#SVGID_9_);}
	.st17{fill:url(#SVGID_10_);}
	.st18{fill:url(#SVGID_11_);}
	.st19{fill:url(#SVGID_12_);}
	.st20{fill:url(#SVGID_13_);}
	.st21{fill:url(#SVGID_14_);}
	.st22{fill:url(#SVGID_15_);}
	.st23{fill:url(#SVGID_16_);}
	.st24{fill:url(#SVGID_17_);}
	.st25{fill:url(#SVGID_18_);}
	.st26{fill:url(#SVGID_19_);}
	.st27{fill:url(#SVGID_20_);}
	.st28{fill:url(#SVGID_21_);}
	.st29{fill:url(#SVGID_22_);}
	.st30{fill:url(#SVGID_23_);}
	.st31{fill:url(#SVGID_24_);}
	.st32{fill:url(#SVGID_25_);}
	.st33{fill:url(#SVGID_26_);}
	.st34{fill:url(#SVGID_27_);}
	.st35{fill:url(#SVGID_28_);}
	.st36{fill:url(#SVGID_29_);}
	.st37{display:inline;fill:#E0A87B;}
	.st38{display:inline;fill:#EEBA8C;}
	.st39{display:inline;fill:#194747;}
	.st40{display:inline;fill:#0D3F3E;}
	.st41{display:inline;fill:#256662;}
	.st42{display:inline;fill:#482F00;}
	.st43{display:inline;fill:#A97D14;}
	.st44{display:inline;fill:#725209;}
	.st45{display:inline;fill:#FFFCE4;}
</style>
<g id="Objects">
	<g>
		<g>
			<polygon class="st3" points="168.9,442.1 137.4,474.3 137.4,113.3 168.9,138.1 			"/>
			<rect x="128.4" y="112.5" class="st4" width="9" height="361"/>
			<polygon class="st5" points="314.4,94 239.8,94 205.2,94 134.4,94 116.4,94 116.4,113.5 116.4,473.5 134.4,473.5 134.4,113.5 
				205.2,113.5 239.8,113.5 314.4,113.5 314.4,473.5 332.4,473.5 332.4,113.5 332.4,94 			"/>
			<g>
				<path class="st6" d="M136.9,153c0,1.5-1.2,2.7-2.7,2.7l0,0c-1.5,0-2.7-1.2-2.7-2.7v-24.7c0-1.5,1.2-2.7,2.7-2.7l0,0
					c1.5,0,2.7,1.2,2.7,2.7V153z"/>
				<rect x="131.6" y="139.2" class="st7" width="5.3" height="2.8"/>
			</g>
			<g>
				<path class="st6" d="M136.9,457.3c0,1.5-1.2,2.7-2.7,2.7l0,0c-1.5,0-2.7-1.2-2.7-2.7v-24.7c0-1.5,1.2-2.7,2.7-2.7l0,0
					c1.5,0,2.7,1.2,2.7,2.7V457.3z"/>
				<rect x="131.6" y="443.5" class="st7" width="5.3" height="2.8"/>
			</g>
			<g>
				<path class="st6" d="M136.9,295.3c0,1.5-1.2,2.7-2.7,2.7l0,0c-1.5,0-2.7-1.2-2.7-2.7v-24.7c0-1.5,1.2-2.7,2.7-2.7l0,0
					c1.5,0,2.7,1.2,2.7,2.7V295.3z"/>
				<rect x="131.6" y="281.5" class="st7" width="5.3" height="2.8"/>
			</g>
			<path class="st6" d="M165.4,320.6c0,1.5-1.2,2.8-2.8,2.8l0,0c-1.5,0-2.8-1.2-2.8-2.8v-28.3c0-1.5,1.2-2.8,2.8-2.8l0,0
				c1.5,0,2.8,1.2,2.8,2.8V320.6z"/>
			<g>
				<g>
					<path class="st8" d="M165.3,295.2c-2.2,0-4.1,1.8-4.1,4.1c0,2.2,1.8,4.1,4.1,4.1h16.8l3.2-8.1H165.3z"/>
				</g>
			</g>
			<path class="st6" d="M178.4,322.7c-0.5,1.4-2.1,2.2-3.5,1.7l0,0c-1.4-0.5-2.2-2.1-1.7-3.5l9.3-26.7c0.5-1.4,2.1-2.2,3.5-1.7l0,0
				c1.4,0.5,2.2,2.1,1.7,3.5L178.4,322.7z"/>
		</g>
		<g>
			<linearGradient id="SVGID_1_" gradientUnits="userSpaceOnUse" x1="244.6098" y1="133.3497" x2="238.8011" y2="2.8353">
				<stop  offset="5.454540e-002" style="stop-color:#FFF48E;stop-opacity:0"/>
				<stop  offset="1" style="stop-color:#FFF48E"/>
			</linearGradient>
			<polygon class="st2" points="239.3,0 239.3,136 250,133.3 			"/>
			<linearGradient id="SVGID_2_" gradientUnits="userSpaceOnUse" x1="276.8516" y1="121.9314" x2="287.0724" y2="25.1359">
				<stop  offset="5.454540e-002" style="stop-color:#FFF48E;stop-opacity:0"/>
				<stop  offset="1" style="stop-color:#FFF48E"/>
			</linearGradient>
			<polygon class="st9" points="287.3,25.3 271.3,122.7 282,124.7 			"/>
			<linearGradient id="SVGID_3_" gradientUnits="userSpaceOnUse" x1="294.6071" y1="117.4139" x2="315.5202" y2="46.9288">
				<stop  offset="5.454540e-002" style="stop-color:#FFF48E;stop-opacity:0"/>
				<stop  offset="1" style="stop-color:#FFF48E"/>
			</linearGradient>
			<polygon class="st10" points="317.3,46.7 292,116.7 296.7,120 			"/>
			<linearGradient id="SVGID_4_" gradientUnits="userSpaceOnUse" x1="312.6429" y1="147.9014" x2="431.5383" y2="109.9479">
				<stop  offset="5.454540e-002" style="stop-color:#FFF48E;stop-opacity:0"/>
				<stop  offset="1" style="stop-color:#FFF48E"/>
			</linearGradient>
			<polygon class="st11" points="312,142.7 312.7,153.3 431.3,112 			"/>
			<linearGradient id="SVGID_5_" gradientUnits="userSpaceOnUse" x1="310.6661" y1="128.8498" x2="372.2443" y2="99.029">
				<stop  offset="5.454540e-002" style="stop-color:#FFF48E;stop-opacity:0"/>
				<stop  offset="1" style="stop-color:#FFF48E"/>
			</linearGradient>
			<polygon class="st12" points="308.7,126.7 310.7,132 370.7,98 			"/>
			<linearGradient id="SVGID_6_" gradientUnits="userSpaceOnUse" x1="295.6685" y1="185.7681" x2="451.3539" y2="191.5776">
				<stop  offset="5.454540e-002" style="stop-color:#FFF48E;stop-opacity:0"/>
				<stop  offset="1" style="stop-color:#FFF48E"/>
			</linearGradient>
			<polygon class="st13" points="296.7,182.7 296,192 450.7,185.3 			"/>
			<linearGradient id="SVGID_7_" gradientUnits="userSpaceOnUse" x1="380.0009" y1="165.6663" x2="432.0009" y2="165.6663">
				<stop  offset="5.454540e-002" style="stop-color:#FFF48E;stop-opacity:0"/>
				<stop  offset="1" style="stop-color:#FFF48E"/>
			</linearGradient>
			<polygon class="st14" points="380,162 380,169.3 432,168.7 			"/>
			<linearGradient id="SVGID_8_" gradientUnits="userSpaceOnUse" x1="349.4673" y1="78.5504" x2="377.3511" y2="54.1519">
				<stop  offset="5.454540e-002" style="stop-color:#FFF48E;stop-opacity:0"/>
				<stop  offset="1" style="stop-color:#FFF48E"/>
			</linearGradient>
			<polygon class="st15" points="347.3,77.3 377.3,53.3 351.3,80 			"/>
			<linearGradient id="SVGID_9_" gradientUnits="userSpaceOnUse" x1="207.3985" y1="118.6956" x2="155.8906" y2="28.0714">
				<stop  offset="5.454540e-002" style="stop-color:#FFF48E;stop-opacity:0"/>
				<stop  offset="1" style="stop-color:#FFF48E"/>
			</linearGradient>
			<polygon class="st16" points="201.3,116.7 160,26.7 209.3,116.7 			"/>
			<linearGradient id="SVGID_10_" gradientUnits="userSpaceOnUse" x1="221.7047" y1="61.1615" x2="199.6292" y2="16.2368">
				<stop  offset="5.454540e-002" style="stop-color:#FFF48E;stop-opacity:0"/>
				<stop  offset="1" style="stop-color:#FFF48E"/>
			</linearGradient>
			<polygon class="st17" points="216.7,57.3 202.7,16 222.7,58 			"/>
			<linearGradient id="SVGID_11_" gradientUnits="userSpaceOnUse" x1="197.8757" y1="144.4553" x2="117.7085" y2="30.2068">
				<stop  offset="5.454540e-002" style="stop-color:#FFF48E;stop-opacity:0"/>
				<stop  offset="1" style="stop-color:#FFF48E"/>
			</linearGradient>
			<path class="st18" d="M192,142.7l8-0.7c0,0-79.3-115.3-79.3-113.3S192,142.7,192,142.7z"/>
			<linearGradient id="SVGID_12_" gradientUnits="userSpaceOnUse" x1="179.2019" y1="189.5428" x2="-1.1017" y2="130.7317">
				<stop  offset="5.454540e-002" style="stop-color:#FFF48E;stop-opacity:0"/>
				<stop  offset="1" style="stop-color:#FFF48E"/>
			</linearGradient>
			<polygon class="st19" points="2.7,124.7 179.3,186 178.7,196.7 			"/>
			<linearGradient id="SVGID_13_" gradientUnits="userSpaceOnUse" x1="115.7565" y1="92.2512" x2="77.0282" y2="72.4996">
				<stop  offset="5.454540e-002" style="stop-color:#FFF48E;stop-opacity:0"/>
				<stop  offset="1" style="stop-color:#FFF48E"/>
			</linearGradient>
			<polygon class="st20" points="78.7,69.3 111.3,94 116,89.3 			"/>
			<linearGradient id="SVGID_14_" gradientUnits="userSpaceOnUse" x1="165.0164" y1="146.0558" x2="65.4852" y2="107.7149">
				<stop  offset="5.454540e-002" style="stop-color:#FFF48E;stop-opacity:0"/>
				<stop  offset="1" style="stop-color:#FFF48E"/>
			</linearGradient>
			<polygon class="st21" points="68.7,106.7 164.7,142 163.3,149.3 			"/>
			<linearGradient id="SVGID_15_" gradientUnits="userSpaceOnUse" x1="308.3436" y1="235.8641" x2="398.5816" y2="248.6444">
				<stop  offset="5.454540e-002" style="stop-color:#FFF48E;stop-opacity:0"/>
				<stop  offset="1" style="stop-color:#FFF48E"/>
			</linearGradient>
			<polygon class="st22" points="311.3,233.3 310,242 398,242.7 			"/>
			<linearGradient id="SVGID_16_" gradientUnits="userSpaceOnUse" x1="311.0719" y1="270.3807" x2="461.3359" y2="280.8372">
				<stop  offset="5.454540e-002" style="stop-color:#FFF48E;stop-opacity:0"/>
				<stop  offset="1" style="stop-color:#FFF48E"/>
			</linearGradient>
			<polygon class="st23" points="313.3,268.7 312,275.3 462,276 			"/>
			<linearGradient id="SVGID_17_" gradientUnits="userSpaceOnUse" x1="311.8066" y1="325.9527" x2="488.4073" y2="350.7389">
				<stop  offset="5.454540e-002" style="stop-color:#FFF48E;stop-opacity:0"/>
				<stop  offset="1" style="stop-color:#FFF48E"/>
			</linearGradient>
			<polygon class="st24" points="313.3,321.3 311.3,332.7 488.7,344 			"/>
			<linearGradient id="SVGID_18_" gradientUnits="userSpaceOnUse" x1="304.8355" y1="393.6464" x2="448.9033" y2="430.4381">
				<stop  offset="5.454540e-002" style="stop-color:#FFF48E;stop-opacity:0"/>
				<stop  offset="1" style="stop-color:#FFF48E"/>
			</linearGradient>
			<polygon class="st25" points="308.7,390.7 305.3,399.3 450.7,425.3 			"/>
			<linearGradient id="SVGID_19_" gradientUnits="userSpaceOnUse" x1="179.7873" y1="367.7113" x2="7.9786" y2="411.6534">
				<stop  offset="5.454540e-002" style="stop-color:#FFF48E;stop-opacity:0"/>
				<stop  offset="1" style="stop-color:#FFF48E"/>
			</linearGradient>
			<polygon class="st26" points="178.7,363.3 178.7,372.7 7.3,410 			"/>
			<linearGradient id="SVGID_20_" gradientUnits="userSpaceOnUse" x1="163.3697" y1="331.1776" x2="4.5834" y2="342.7963">
				<stop  offset="5.454540e-002" style="stop-color:#FFF48E;stop-opacity:0"/>
				<stop  offset="1" style="stop-color:#FFF48E"/>
			</linearGradient>
			<polygon class="st27" points="161.3,328.3 162.8,335.3 4.8,338.7 			"/>
			<linearGradient id="SVGID_21_" gradientUnits="userSpaceOnUse" x1="161.5499" y1="259.8693" x2="-1.8841" y2="242.8286">
				<stop  offset="5.454540e-002" style="stop-color:#FFF48E;stop-opacity:0"/>
				<stop  offset="1" style="stop-color:#FFF48E"/>
			</linearGradient>
			<polygon class="st28" points="160,254 0.7,237.3 158.7,265.3 			"/>
			<linearGradient id="SVGID_22_" gradientUnits="userSpaceOnUse" x1="148.5746" y1="213.8729" x2="28.5173" y2="193.7341">
				<stop  offset="5.454540e-002" style="stop-color:#FFF48E;stop-opacity:0"/>
				<stop  offset="1" style="stop-color:#FFF48E"/>
			</linearGradient>
			<polygon class="st29" points="147.3,210.7 147.3,216.7 29.3,193.3 			"/>
			<linearGradient id="SVGID_23_" gradientUnits="userSpaceOnUse" x1="112.8521" y1="288.9545" x2="45.4654" y2="290.891">
				<stop  offset="5.454540e-002" style="stop-color:#FFF48E;stop-opacity:0"/>
				<stop  offset="1" style="stop-color:#FFF48E"/>
			</linearGradient>
			<polygon class="st30" points="43.3,287.3 112,284.7 110.7,293.3 			"/>
			<linearGradient id="SVGID_24_" gradientUnits="userSpaceOnUse" x1="114.3075" y1="429.1303" x2="53.1167" y2="441.5229">
				<stop  offset="5.454540e-002" style="stop-color:#FFF48E;stop-opacity:0"/>
				<stop  offset="1" style="stop-color:#FFF48E"/>
			</linearGradient>
			<polygon class="st31" points="50.7,438 112.7,424 110.7,435.3 			"/>
			<linearGradient id="SVGID_25_" gradientUnits="userSpaceOnUse" x1="78.6333" y1="363.377" x2="0.402" y2="370.3482">
				<stop  offset="5.454540e-002" style="stop-color:#FFF48E;stop-opacity:0"/>
				<stop  offset="1" style="stop-color:#FFF48E"/>
			</linearGradient>
			<polygon class="st32" points="0,366.7 76.7,360.7 76,367.3 			"/>
			<linearGradient id="SVGID_26_" gradientUnits="userSpaceOnUse" x1="376.611" y1="365.9867" x2="435.0908" y2="381.0908">
				<stop  offset="5.454540e-002" style="stop-color:#FFF48E;stop-opacity:0"/>
				<stop  offset="1" style="stop-color:#FFF48E"/>
			</linearGradient>
			<polygon class="st33" points="378.7,363.3 378,370.7 434.7,376.7 			"/>
			<linearGradient id="SVGID_27_" gradientUnits="userSpaceOnUse" x1="383.484" y1="294.4512" x2="438.09" y2="304.1333">
				<stop  offset="5.454540e-002" style="stop-color:#FFF48E;stop-opacity:0"/>
				<stop  offset="1" style="stop-color:#FFF48E"/>
			</linearGradient>
			<polygon class="st34" points="385.3,292 384,298 438,300.7 			"/>
			<linearGradient id="SVGID_28_" gradientUnits="userSpaceOnUse" x1="66.3548" y1="175.9244" x2="10.1985" y2="165.0801">
				<stop  offset="5.454540e-002" style="stop-color:#FFF48E;stop-opacity:0"/>
				<stop  offset="1" style="stop-color:#FFF48E"/>
			</linearGradient>
			<polygon class="st35" points="66,172.7 64,178.7 10.7,166 			"/>
		</g>
	</g>
</g>
</svg>
