<?xml version="1.0" encoding="utf-8"?>
<!-- Generator: Adobe Illustrator 19.1.0, SVG Export Plug-In . SVG Version: 6.00 Build 0)  -->
<svg version="1.1" xmlns="http://www.w3.org/2000/svg" xmlns:xlink="http://www.w3.org/1999/xlink" x="0px" y="0px"
	 viewBox="0 0 800 800" style="enable-background:new 0 0 800 800;" xml:space="preserve">
<style type="text/css">
	.st0{display:none;}
	.st1{display:inline;}
	.st2{clip-path:url(#SVGID_2_);fill:#99D5E2;}
	.st3{clip-path:url(#SVGID_2_);fill:#69ABB2;}
	.st4{clip-path:url(#SVGID_2_);}
	.st5{fill:#99D5E2;}
	.st6{display:none;fill:#36787F;}
	.st7{fill:#464B4C;}
	.st8{fill:#FFDCB8;}
	.st9{fill:#CB8F5E;}
	.st10{fill:#281D12;}
	.st11{fill:#382B19;}
	.st12{fill:#232728;}
	.st13{fill:#E5E5E5;}
	.st14{fill:#141414;}
	.st15{fill:#676B6B;}
	.st16{fill:#FFFFFF;}
	.st17{fill:#725C2B;}
	.st18{fill:#493918;}
	.st19{fill:#190F08;}
	.st20{fill:#EDA69D;}
	.st21{fill:#753427;}
	.st22{clip-path:url(#SVGID_4_);fill:#0D3F3E;}
	.st23{fill:#5D9193;}
	.st24{fill:#A7CECD;}
	.st25{fill:#2C6D70;}
</style>
<g id="Background" class="st0">
	<g class="st1">
		<defs>
			<rect id="SVGID_1_" width="800" height="800"/>
		</defs>
		<clipPath id="SVGID_2_">
			<use xlink:href="#SVGID_1_"  style="overflow:visible;"/>
		</clipPath>
		<rect class="st2" width="800" height="800"/>
		<path class="st3" d="M-22.9,512.8c29.9-22,207.4-39,421.7-39s391.8,16.9,421.7,39l12.4,316.1H-27.4L-22.9,512.8z"/>
		<g class="st4">
			<path class="st5" d="M-63.9,532.8c0,0,320.6-30.9,542.1,11c187,35.4,297,188.7,307.5,371.7H631.2c0,0,10.5-234.6-174-306.8
				c-166-65-544.5-39.9-544.5-39.9L-63.9,532.8z"/>
			<path class="st5" d="M-96.2,703.8c0,0,302.7,12.5,404.8-22.8s120-35.4,223.1-81.8c99.6-44.8,262.5-90.1,388.5-75.4v66
				c0,0-125.7-23.7-354,83.7c-85.8,40.4-136.1,137.2-347.4,147.7c-211.3,10.5-339,21-339,21L-96.2,703.8z"/>
		</g>
	</g>
</g>
<g id="Objects">
	<ellipse class="st6" cx="249.3" cy="738.4" rx="109.3" ry="20.1"/>
	<ellipse class="st6" cx="571.8" cy="630.9" rx="74.5" ry="14.4"/>
	<g>
		<g>
			<path class="st7" d="M217,389.7c0,0,30.2-11.4,39.8-39.6c9.7-28.2-10.2-53-43.2-58.8c0,0,2.9-8.4,0-17c0,0,78.8,10.8,59.5,75.8
				C258,401,223,403.5,223,403.5L217,389.7z"/>
			<g>
				<path class="st8" d="M194.7,296.4c0,0,19.5-0.7,22.4-4.5c2.8-3.8,2.3-19.8,6-25.5c3.7-5.7-0.1-9.5-6-5.3
					c-5.9,4.2-4.1,12.9-6.7,13.1c0,0-5.2-9-1.8-14.8s-4.6-5.9-7.4,0c-2.8,5.9-0.5,14.8-0.5,14.8s-6.1-8.1-6-11.5s-3.9-4.8-4.5,1.9
					s4.5,14.9,4.5,14.9s0,8.3-1.4,8.8c-4,1.3-12-3.3-10.4,5.1C183.5,297.1,188.8,294.7,194.7,296.4z"/>
				<path class="st9" d="M202.2,290.3c0,0,2.1-7.9,8.9-6.6C211.1,283.7,200.3,278.6,202.2,290.3z"/>
			</g>
		</g>
		<g>
			<path class="st10" d="M264.5,721.1c0,0,8.1,8.8,15.3,7.8c7.3-1,13.6,0.1,13.6,0.1v8c0,0-30.1,2.7-34.9,0.8l-4.8-1.9
				c0,0-5.1,2.8-8.4,1.1c-3.3-1.7,1.4-20.1,1.4-20.1S258.6,716.2,264.5,721.1z"/>
			<path class="st11" d="M245.7,722.6c0,0,3.3,9.5,8,12.1c4.8,2.6,20.1,2.6,20.1,2.6v10c0,0-30.7,4.3-41.2-3.6c0,0-5.3,2.6-10.9,0
				c-1.9-5.3,3-22.6,3-22.6S236.6,717.9,245.7,722.6z"/>
			<path class="st7" d="M290.6,520c0,0-15.3,156.7-26.1,201.1c0,0-5.7,3.7-18.6-0.1c0,0-3.3-147.5,0.3-165.5
				C249.8,537.5,274.4,503.6,290.6,520z"/>
			<g>
				<path class="st7" d="M211.5,524.3c0,0,13.3,147,11.3,198.4c0,0,17.7,4.9,24.5-1.7c0,0,4.9-146.5,8.4-162.9
					c3.4-16.4,19.2-31.7,22.1-38.6S222.8,506.9,211.5,524.3z"/>
				<path class="st12" d="M266.3,536.5c0,0-9.8,10-12.2,37.3c-2.8,30.2-5.7,112.3-6.5,127.7c0,0,6.6-87.3,9.4-125.6
					C258.3,557.1,260.5,544.4,266.3,536.5z"/>
			</g>
		</g>
		<g>
			<path class="st7" d="M165.4,408.8c0,0,47.1-17.3,53.9-19.9c0,0,60.8,78.7,74,134.8c0,0-16.6-3.5-21.9-1.9l-6.3-6.2l-0.1,7.8
				c0,0-49.9,10.4-57.3,13C207.7,536.5,199.8,459.3,165.4,408.8z"/>
			<path class="st8" d="M199.3,372.5c0,0,3.7,24.3,5.3,29.1s-3.7,10-9.3,5.3c-5.6-4.8-10.8-24.7-12.4-29
				C181.3,373.6,199.3,372.5,199.3,372.5z"/>
			<g>
				<path class="st13" d="M242.3,467.6c0,0-17.6-52.4-33.4-74.8c0,0-3,1.1-6.9,2.5l-0.1,1l2,7.8l-6-6.3l-1.6-0.5
					c-3.8,1.4-7.6,2.8-10.2,3.8C186.1,401.2,234.9,447.1,242.3,467.6z"/>
			</g>
			<path class="st14" d="M201.9,405.7l4.3-2.2c0,0,4.7,4.3,5.3,5.3c0,0-5.6,3.6-6.6,3.4L201.9,405.7z"/>
			<polygon class="st14" points="215.7,431.3 205.7,411.2 211.1,409 227.3,426.6 242.3,467.6 			"/>
			<path class="st12" d="M244.3,470.2c0,0,14.5,11.6,19.5,43.6C263.7,513.8,258.3,488.2,244.3,470.2z"/>
			<path class="st15" d="M186.1,401.2c0,0-2,15.1-2,23.5c0,0,19.8,1.2,24.8,4.2c0,0-3.5,7.8-5.9,13.9c0,0,35.1,23.4,39.3,24.7
				C242.3,467.6,229.4,442.3,186.1,401.2z"/>
			<path class="st15" d="M208.9,392.8c0,0,27.9,58.4,33.4,74.8c0,0-1.8-36.3-2.8-40.4c0,0-8.5-2.2-12.2-3.9c0,0,2.2-19,1.1-20.7
				C228.4,402.6,212.9,395,208.9,392.8z"/>
			<path class="st16" d="M182.8,392.1c0,0,12.5,5.8,15.2,5.8v12.2c0,0-14.2-5.6-16.6-7.1C181.3,402.9,182.2,394,182.8,392.1z"/>
			<polygon class="st16" points="201.9,396.3 211.5,402.2 208.9,392.8 201.9,387.6 			"/>
			<path class="st12" d="M221.9,532.8c0,0,31.5-9.9,41.9-10.7v-8.4c0,0,5.4,4.3,7.8,8.1c0,0,12.9-1.6,19.7,1.5c0,0-15.4-1.9-21.6,0
				l-4.4-5.6l-0.1,5.8C265.1,523.5,236,529.2,221.9,532.8z"/>
			
				<ellipse transform="matrix(0.9021 -0.4315 0.4315 0.9021 -185.2805 154.3057)" class="st12" cx="247.5" cy="485.5" rx="2.8" ry="3.9"/>
			
				<ellipse transform="matrix(0.9528 -0.3037 0.3037 0.9528 -140.6979 100.8797)" class="st12" cx="254" cy="502.8" rx="2.8" ry="3.9"/>
		</g>
		<g>
			<path class="st8" d="M196.5,502.6c-0.8-3.7-1.1-9.3,1.9-15.2c0,0,1.1,4,2.4,9.9c0.5,2,0.5-7.5,5.9-12.6c3.8-3.5,6.3-0.2,2.6,5.5
				c-3.5,5.3-1,7.5-1,7.5s5.9-10.4,10.7-7.8c4.8,2.6-1.8,4.4-7.5,13.3c0,0,12.2-8.7,13.2-2.7c0.2,1.4-0.5,3.6-5.8,5.4
				c-4.1,1.4-7.8,9.9-12.3,11.6C202,519.2,197.5,507.8,196.5,502.6z"/>
			<path class="st7" d="M165.4,408.8c0,0-57.5,29.9-46.3,71.6s77.4,41.7,84.8,38.1c0,0-2-8.7-8.3-18c0,0-44.8,15.1-59.5-24.5
				c-10.5-28.4,38-52.8,38-52.8S179.2,406.4,165.4,408.8z"/>
		</g>
		<g>
			<path class="st8" d="M175.5,274.4c0,0,55.5,70,55.5,83s-52.9,27-59.8,26.1c-6.9-0.9-27.5-29.6-34.4-36.9
				c-6.9-7.4-23.3-23-25.4-32.4S145.9,252.9,175.5,274.4z"/>
			<path class="st17" d="M145.3,360.3c0,0,0.5-32.1-27.5-41.6c0,0,29.6-7.5,27.5-13c-2.1-5.5-9.5-3.5-9.5-3.5s24.9-5.7,23.3-13.6
				c-1.6-8-11.1-5.2-11.1-5.2s41.2-6.4,38.6-14.1s-12.7-14.2-19.6-7.1c0,0,9-27-7.9-29.7s-9,12-9,16.6c0,0-39.1-14.6-41.2,0
				s9.1,14.3,15.9,13.2c0,0-45.5,19.4-34.4,47.4c0,0-28,6.1-21.7,15.5c6.3,9.4,15.1,3.6,15.1,3.6s-5.1,11.8,3.4,12.7
				s6.3-5.2,6.3-5.2S116.3,382.3,145.3,360.3z"/>
			<path class="st9" d="M176,306.8c0,0,3.2,11.8,5.8,12.3c2.6,0.5,8.5-5.8,13.2,0s-5.8,10.4-9.5,13.1c0,0,8.3-10,5.8-12.7
				c-2.5-2.7-9.2,5.4-12.3,3.3C176,320.7,176,306.8,176,306.8z"/>
			<path class="st18" d="M150.1,306.8c0,0-6.3,13.1-3.2,18.3C146.9,325.1,137.4,316.1,150.1,306.8z"/>
			<path class="st18" d="M171.2,291.1c0,0,8-4.2,11.7,0C182.9,291.1,174.9,278.4,171.2,291.1z"/>
			
				<ellipse transform="matrix(0.8079 -0.5893 0.5893 0.8079 -158.88 158.261)" class="st19" cx="163.3" cy="322.8" rx="3.7" ry="6.4"/>
			
				<ellipse transform="matrix(0.8079 -0.5893 0.5893 0.8079 -146.3916 170.0721)" class="st19" cx="187.7" cy="309.6" rx="3.7" ry="6.4"/>
			<path class="st8" d="M145.3,351.7c0,0-16.9-3.6-20.1,5.7s9.8,25.7,20.1,18.8C155.7,369.4,153.8,356.8,145.3,351.7z"/>
			<g>
				<path class="st20" d="M176.1,356.2c-0.5,5.4-0.1,10.1-0.1,10.1c5.4-1.8,20.3-2,29.6-1.9C190.7,355.6,185.2,355,176.1,356.2z"/>
				<path class="st21" d="M186.7,338.8c-7.5,0.6-9.9,9.7-10.6,17.3c9.1-1.1,14.6-0.4,29.5,8.1c4.7,0,8,0.1,8,0.1
					S199.7,337.9,186.7,338.8z"/>
			</g>
		</g>
	</g>
	<g>
		<defs>
			<path id="SVGID_3_" d="M560.1,630c0,0,1.9-556.6,0-596.6c0,0,30.4-11.4,51.4,0c0,0-22.8,546.4-25.7,596.6
				C585.7,630,579.1,638.9,560.1,630z"/>
		</defs>
		<use xlink:href="#SVGID_3_"  style="overflow:visible;fill:#42706F;"/>
		<clipPath id="SVGID_4_">
			<use xlink:href="#SVGID_3_"  style="overflow:visible;"/>
		</clipPath>
		<path class="st22" d="M607.7,122.5c0,0-31.5,8.9-48.9,22.1l1.7-57.3C560.6,87.3,599.6,89.8,607.7,122.5z"/>
		<path class="st22" d="M558.8,218.3c0,0,31.5,7.4,43.9,21.2l1.7-27.6C604.4,211.9,574.8,205.6,558.8,218.3z"/>
		<path class="st22" d="M555.7,318.6c0,0,34.8,8.4,42.9,21.2l5.9-42.6C604.4,297.2,567,308.7,555.7,318.6z"/>
		<path class="st22" d="M594,445.1c0,0-24.2,10.9-38.4,22.6l-4.3-38.2L594,445.1z"/>
	</g>
	<polygon class="st23" points="746.1,137.6 437.3,104.1 404,70.1 400.2,62.7 443.8,44.1 748.8,70.1 752.6,77.6 725.1,103.3 
		742.2,130.2 	"/>
	<polygon class="st24" points="742.2,130.2 433.4,96.7 400.2,62.7 440,36.6 748.8,70.1 721.3,95.8 	"/>
	<polygon class="st23" points="401.9,161.1 398.1,155.7 717.9,165.8 751.1,189.9 754.8,195.3 717,223.7 401,219 397.3,213.6 
		426.4,192.1 	"/>
	<polygon class="st24" points="398.1,155.7 714.2,160.4 751.1,189.9 713.3,218.3 397.3,213.6 422.7,186.6 	"/>
	<polygon class="st23" points="692,284.5 479.7,345.3 448.4,330.9 444.7,325.4 467.3,302.1 675.9,235.9 679.6,241.3 668.7,266.5 
		688.3,279.1 	"/>
	<polygon class="st24" points="688.3,279.1 476,339.9 444.7,325.4 463.6,296.6 675.9,235.9 665,261.1 	"/>
	<polygon class="st23" points="463.5,363.2 661.8,401.5 665.2,406.6 683.5,437.7 654.1,458.5 452.4,415.1 448.9,410 473.6,394.1 	
		"/>
	<polygon class="st24" points="460.1,358.1 661.8,401.5 680,432.6 650.6,453.4 448.9,410 470.1,389 	"/>
	<g>
		<path class="st16" d="M92,81.5c8.4-15,21-25.5,36.8-28.7c20.9-4.3,39.7,3.3,44.1,24.6c4.2,20.5-19.8,30.7-17.8,40.1l1.8,8.7
			l-29.3,6l-2.6-12.6c-3-14.5,20.4-27.8,18.6-36.5c-1.2-6-7.7-6.1-13.2-5c-6.8,1.4-13.8,9.7-17.8,17.1L92,81.5z M142.2,133.2
			c11.2-2.3,20.3,3.9,22.2,12.8c1.8,8.8-3.9,17.7-15.4,20.1c-10.2,2.1-19.6-4.3-21.3-12.5C126.1,145.7,130.9,135.5,142.2,133.2z"/>
	</g>
	<g>
		<g>
			<path class="st16" d="M202.4,224.3c4.9-4.1,10.5-7.2,15.7-10.9c2.8-1.9,0.1-6.5-2.7-4.6c-5.6,3.9-11.5,7.3-16.8,11.7
				C196.1,222.7,199.9,226.5,202.4,224.3L202.4,224.3z"/>
		</g>
		<g>
			<path class="st16" d="M187.4,208.2c2.2-5,4.4-10,7.1-14.8c1.7-3-2.9-5.6-4.6-2.7c-2.7,4.8-4.9,9.8-7.1,14.8
				C181.5,208.7,186,211.4,187.4,208.2L187.4,208.2z"/>
		</g>
		<g>
			<path class="st16" d="M171.4,198.5c-0.7-4.8-1.4-9.5-2.8-14.1c-1-3.2-6.1-1.9-5.1,1.4c1.5,4.6,2.1,9.3,2.8,14.1
				C166.8,203.2,171.9,201.8,171.4,198.5L171.4,198.5z"/>
		</g>
	</g>
	<g class="st0">
		<g class="st1">
			<path class="st25" d="M286,779.2v-0.3c-0.3,0.4-0.7,0.7-1,1c-0.3,0.3-0.7,0.4-1.1,0.6c-0.4,0.1-0.8,0.2-1.3,0.2
				c-0.6,0-1.2-0.1-1.7-0.4c-0.5-0.3-1-0.6-1.4-1.1c-0.4-0.5-0.7-1.1-0.9-1.7c-0.2-0.7-0.3-1.4-0.3-2.1c0-1.6,0.4-2.9,1.2-3.8
				c0.8-0.9,1.8-1.4,3.1-1.4c0.7,0,1.4,0.1,1.9,0.4c0.5,0.3,1,0.7,1.5,1.2v-3.8c0-0.5,0.1-0.9,0.3-1.2c0.2-0.3,0.5-0.4,0.9-0.4
				c0.4,0,0.7,0.1,0.9,0.4c0.2,0.3,0.3,0.6,0.3,1.1v11.4c0,0.5-0.1,0.9-0.3,1.1c-0.2,0.2-0.5,0.4-0.9,0.4c-0.4,0-0.6-0.1-0.9-0.4
				C286.1,780,286,779.6,286,779.2z M280.9,775.3c0,0.7,0.1,1.3,0.3,1.8c0.2,0.5,0.5,0.9,0.9,1.1c0.4,0.3,0.8,0.4,1.2,0.4
				c0.5,0,0.9-0.1,1.2-0.4c0.4-0.2,0.7-0.6,0.9-1.1c0.2-0.5,0.3-1.1,0.3-1.8c0-0.7-0.1-1.3-0.3-1.8c-0.2-0.5-0.5-0.9-0.9-1.1
				c-0.4-0.3-0.8-0.4-1.3-0.4c-0.5,0-0.9,0.1-1.3,0.4c-0.4,0.3-0.7,0.7-0.9,1.2C281,774.1,280.9,774.7,280.9,775.3z"/>
			<path class="st25" d="M297.5,776h-5.1c0,0.6,0.1,1.1,0.4,1.6c0.2,0.5,0.5,0.8,0.9,1c0.4,0.2,0.8,0.3,1.3,0.3c0.3,0,0.6,0,0.9-0.1
				c0.3-0.1,0.5-0.2,0.7-0.3c0.2-0.2,0.5-0.3,0.7-0.5c0.2-0.2,0.5-0.4,0.8-0.7c0.1-0.1,0.3-0.2,0.6-0.2c0.3,0,0.5,0.1,0.6,0.2
				c0.2,0.1,0.2,0.4,0.2,0.6c0,0.2-0.1,0.5-0.3,0.8c-0.2,0.3-0.5,0.6-0.8,0.9c-0.4,0.3-0.8,0.5-1.4,0.7c-0.6,0.2-1.2,0.3-1.9,0.3
				c-1.7,0-3-0.5-3.9-1.4s-1.4-2.2-1.4-3.9c0-0.8,0.1-1.5,0.3-2.1c0.2-0.7,0.6-1.2,1-1.7c0.4-0.5,1-0.8,1.6-1.1
				c0.6-0.3,1.3-0.4,2.1-0.4c1,0,1.9,0.2,2.6,0.6c0.7,0.4,1.3,1,1.6,1.7c0.4,0.7,0.5,1.4,0.5,2.1c0,0.7-0.2,1.1-0.6,1.3
				C298.7,775.9,298.1,776,297.5,776z M292.4,774.5h4.7c-0.1-0.9-0.3-1.6-0.7-2c-0.4-0.4-1-0.7-1.6-0.7c-0.6,0-1.2,0.2-1.6,0.7
				C292.7,773,292.5,773.7,292.4,774.5z"/>
			<path class="st25" d="M309.3,777.2c0,0.7-0.2,1.3-0.5,1.8c-0.3,0.5-0.9,0.9-1.5,1.2c-0.7,0.3-1.5,0.4-2.5,0.4
				c-0.9,0-1.7-0.1-2.4-0.4c-0.7-0.3-1.2-0.6-1.5-1.1c-0.3-0.4-0.5-0.9-0.5-1.3c0-0.3,0.1-0.5,0.3-0.7c0.2-0.2,0.5-0.3,0.8-0.3
				c0.3,0,0.5,0.1,0.6,0.2c0.1,0.1,0.3,0.3,0.4,0.6c0.3,0.5,0.6,0.8,1,1c0.4,0.2,0.9,0.3,1.5,0.3c0.5,0,0.9-0.1,1.3-0.3
				c0.3-0.2,0.5-0.5,0.5-0.8c0-0.5-0.2-0.8-0.5-1c-0.3-0.2-0.9-0.4-1.7-0.6c-0.9-0.2-1.6-0.5-2.2-0.7c-0.6-0.2-1-0.6-1.3-1
				c-0.3-0.4-0.5-0.9-0.5-1.5c0-0.5,0.2-1,0.5-1.5c0.3-0.5,0.8-0.8,1.4-1.1c0.6-0.3,1.3-0.4,2.2-0.4c0.7,0,1.3,0.1,1.8,0.2
				c0.5,0.1,1,0.3,1.3,0.6c0.4,0.2,0.6,0.5,0.8,0.8c0.2,0.3,0.3,0.6,0.3,0.8c0,0.3-0.1,0.5-0.3,0.7c-0.2,0.2-0.5,0.3-0.9,0.3
				c-0.3,0-0.5-0.1-0.7-0.2c-0.2-0.2-0.4-0.4-0.6-0.7c-0.2-0.3-0.4-0.5-0.7-0.6c-0.3-0.2-0.6-0.2-1.1-0.2c-0.5,0-0.9,0.1-1.2,0.3
				c-0.3,0.2-0.5,0.4-0.5,0.7c0,0.3,0.1,0.5,0.3,0.7c0.2,0.2,0.5,0.3,0.9,0.4c0.4,0.1,0.9,0.3,1.6,0.4c0.8,0.2,1.5,0.4,2,0.7
				c0.5,0.3,0.9,0.6,1.2,1C309.1,776.3,309.3,776.8,309.3,777.2z"/>
			<path class="st25" d="M311.9,768.9c-0.4,0-0.7-0.1-0.9-0.3c-0.3-0.2-0.4-0.5-0.4-0.9c0-0.4,0.1-0.7,0.4-0.9s0.6-0.4,0.9-0.4
				c0.3,0,0.6,0.1,0.9,0.3c0.3,0.2,0.4,0.5,0.4,0.9c0,0.4-0.1,0.7-0.4,0.9C312.6,768.8,312.3,768.9,311.9,768.9z M313.2,771.6v7.5
				c0,0.5-0.1,0.9-0.4,1.2c-0.2,0.3-0.6,0.4-0.9,0.4s-0.7-0.1-0.9-0.4c-0.2-0.3-0.4-0.7-0.4-1.2v-7.4c0-0.5,0.1-0.9,0.4-1.2
				c0.2-0.3,0.5-0.4,0.9-0.4s0.7,0.1,0.9,0.4C313.1,770.7,313.2,771.1,313.2,771.6z"/>
			<path class="st25" d="M324.6,772v7.5c0,0.9-0.1,1.6-0.3,2.2c-0.2,0.6-0.5,1.1-0.9,1.5c-0.4,0.4-0.9,0.7-1.6,0.9
				c-0.7,0.2-1.5,0.3-2.4,0.3c-0.9,0-1.7-0.1-2.4-0.4c-0.7-0.3-1.2-0.6-1.6-1c-0.4-0.4-0.6-0.8-0.6-1.2c0-0.3,0.1-0.6,0.3-0.8
				c0.2-0.2,0.5-0.3,0.8-0.3c0.4,0,0.7,0.2,1,0.5c0.1,0.2,0.3,0.3,0.4,0.5c0.1,0.2,0.3,0.3,0.5,0.4c0.2,0.1,0.4,0.2,0.7,0.3
				c0.3,0.1,0.5,0.1,0.9,0.1c0.7,0,1.2-0.1,1.6-0.3c0.4-0.2,0.6-0.4,0.8-0.8c0.1-0.3,0.2-0.7,0.3-1.1c0-0.4,0-1,0.1-1.8
				c-0.4,0.6-0.9,1-1.4,1.3c-0.5,0.3-1.1,0.4-1.9,0.4c-0.9,0-1.6-0.2-2.3-0.7c-0.6-0.4-1.1-1.1-1.5-1.9c-0.3-0.8-0.5-1.7-0.5-2.8
				c0-0.8,0.1-1.5,0.3-2.1c0.2-0.6,0.5-1.2,0.9-1.6c0.4-0.4,0.8-0.8,1.4-1c0.5-0.2,1.1-0.3,1.7-0.3c0.7,0,1.4,0.1,1.9,0.4
				c0.5,0.3,1,0.7,1.5,1.3v-0.4c0-0.4,0.1-0.8,0.3-1c0.2-0.2,0.5-0.4,0.9-0.4c0.5,0,0.8,0.2,1,0.5
				C324.5,770.9,324.6,771.4,324.6,772z M317,775.3c0,1.1,0.2,1.8,0.7,2.4c0.5,0.5,1.1,0.8,1.8,0.8c0.4,0,0.8-0.1,1.2-0.3
				c0.4-0.2,0.7-0.6,0.9-1c0.2-0.5,0.4-1,0.4-1.7c0-1.1-0.2-1.9-0.7-2.5c-0.5-0.6-1.1-0.9-1.8-0.9c-0.7,0-1.3,0.3-1.8,0.8
				C317.3,773.4,317,774.2,317,775.3z"/>
			<path class="st25" d="M328.7,771.5v0.3c0.5-0.6,1-1,1.5-1.3c0.5-0.3,1.2-0.4,1.9-0.4c0.7,0,1.3,0.1,1.8,0.4
				c0.5,0.3,0.9,0.7,1.2,1.3c0.2,0.3,0.3,0.7,0.3,1c0.1,0.4,0.1,0.8,0.1,1.4v4.8c0,0.5-0.1,0.9-0.4,1.2c-0.2,0.3-0.5,0.4-0.9,0.4
				c-0.4,0-0.7-0.1-0.9-0.4c-0.2-0.3-0.4-0.7-0.4-1.2v-4.3c0-0.9-0.1-1.5-0.4-2c-0.2-0.5-0.7-0.7-1.4-0.7c-0.5,0-0.9,0.1-1.3,0.4
				c-0.4,0.3-0.7,0.7-0.8,1.1c-0.1,0.4-0.2,1.1-0.2,2.2v3.2c0,0.5-0.1,0.9-0.4,1.2c-0.2,0.3-0.6,0.4-0.9,0.4c-0.4,0-0.7-0.1-0.9-0.4
				c-0.2-0.3-0.4-0.7-0.4-1.2v-7.5c0-0.5,0.1-0.9,0.3-1.1c0.2-0.2,0.5-0.4,0.9-0.4c0.2,0,0.4,0.1,0.6,0.2c0.2,0.1,0.3,0.3,0.4,0.5
				C328.6,771,328.7,771.2,328.7,771.5z"/>
			<path class="st25" d="M344.5,776h-5.1c0,0.6,0.1,1.1,0.4,1.6c0.2,0.5,0.5,0.8,0.9,1c0.4,0.2,0.8,0.3,1.3,0.3c0.3,0,0.6,0,0.9-0.1
				c0.3-0.1,0.5-0.2,0.7-0.3c0.2-0.2,0.5-0.3,0.7-0.5c0.2-0.2,0.5-0.4,0.8-0.7c0.1-0.1,0.3-0.2,0.6-0.2c0.3,0,0.5,0.1,0.6,0.2
				c0.2,0.1,0.2,0.4,0.2,0.6c0,0.2-0.1,0.5-0.3,0.8c-0.2,0.3-0.5,0.6-0.8,0.9c-0.4,0.3-0.8,0.5-1.4,0.7c-0.6,0.2-1.2,0.3-1.9,0.3
				c-1.7,0-3-0.5-3.9-1.4c-0.9-0.9-1.4-2.2-1.4-3.9c0-0.8,0.1-1.5,0.3-2.1c0.2-0.7,0.6-1.2,1-1.7c0.4-0.5,1-0.8,1.6-1.1
				c0.6-0.3,1.3-0.4,2.1-0.4c1,0,1.9,0.2,2.6,0.6c0.7,0.4,1.3,1,1.6,1.7c0.4,0.7,0.5,1.4,0.5,2.1c0,0.7-0.2,1.1-0.6,1.3
				C345.7,775.9,345.1,776,344.5,776z M339.4,774.5h4.7c-0.1-0.9-0.3-1.6-0.7-2c-0.4-0.4-1-0.7-1.6-0.7c-0.6,0-1.2,0.2-1.6,0.7
				C339.7,773,339.5,773.7,339.4,774.5z"/>
			<path class="st25" d="M355,779.2v-0.3c-0.3,0.4-0.7,0.7-1,1c-0.3,0.3-0.7,0.4-1.1,0.6c-0.4,0.1-0.8,0.2-1.3,0.2
				c-0.6,0-1.2-0.1-1.7-0.4c-0.5-0.3-1-0.6-1.4-1.1c-0.4-0.5-0.7-1.1-0.9-1.7c-0.2-0.7-0.3-1.4-0.3-2.1c0-1.6,0.4-2.9,1.2-3.8
				c0.8-0.9,1.8-1.4,3.1-1.4c0.7,0,1.4,0.1,1.9,0.4c0.5,0.3,1,0.7,1.5,1.2v-3.8c0-0.5,0.1-0.9,0.3-1.2c0.2-0.3,0.5-0.4,0.9-0.4
				c0.4,0,0.7,0.1,0.9,0.4c0.2,0.3,0.3,0.6,0.3,1.1v11.4c0,0.5-0.1,0.9-0.3,1.1c-0.2,0.2-0.5,0.4-0.9,0.4c-0.4,0-0.6-0.1-0.9-0.4
				C355.1,780,355,779.6,355,779.2z M349.9,775.3c0,0.7,0.1,1.3,0.3,1.8c0.2,0.5,0.5,0.9,0.9,1.1c0.4,0.3,0.8,0.4,1.2,0.4
				c0.5,0,0.9-0.1,1.2-0.4c0.4-0.2,0.7-0.6,0.9-1.1c0.2-0.5,0.3-1.1,0.3-1.8c0-0.7-0.1-1.3-0.3-1.8c-0.2-0.5-0.5-0.9-0.9-1.1
				c-0.4-0.3-0.8-0.4-1.3-0.4c-0.5,0-0.9,0.1-1.3,0.4c-0.4,0.3-0.7,0.7-0.9,1.2C350,774.1,349.9,774.7,349.9,775.3z"/>
			<path class="st25" d="M365.6,767.7v4c0.5-0.5,1-0.9,1.5-1.2c0.5-0.3,1.1-0.4,1.9-0.4c0.9,0,1.6,0.2,2.3,0.6
				c0.6,0.4,1.2,1,1.5,1.8c0.4,0.8,0.5,1.7,0.5,2.8c0,0.8-0.1,1.5-0.3,2.2c-0.2,0.7-0.5,1.2-0.9,1.7c-0.4,0.5-0.8,0.9-1.4,1.1
				c-0.5,0.3-1.1,0.4-1.8,0.4c-0.4,0-0.8,0-1.1-0.1c-0.4-0.1-0.7-0.2-0.9-0.4c-0.2-0.2-0.5-0.3-0.6-0.5c-0.2-0.2-0.4-0.4-0.7-0.7
				v0.3c0,0.5-0.1,0.9-0.4,1.1c-0.2,0.3-0.5,0.4-0.9,0.4c-0.4,0-0.7-0.1-0.9-0.4c-0.2-0.3-0.3-0.6-0.3-1.1v-11.3
				c0-0.5,0.1-0.9,0.3-1.2c0.2-0.3,0.5-0.4,0.9-0.4c0.4,0,0.7,0.1,0.9,0.4C365.5,766.9,365.6,767.2,365.6,767.7z M365.7,775.4
				c0,1,0.2,1.8,0.7,2.4c0.5,0.6,1.1,0.8,1.9,0.8c0.7,0,1.2-0.3,1.7-0.9c0.5-0.6,0.7-1.4,0.7-2.4c0-0.7-0.1-1.3-0.3-1.8
				c-0.2-0.5-0.5-0.9-0.8-1.1c-0.4-0.3-0.8-0.4-1.3-0.4c-0.5,0-0.9,0.1-1.3,0.4c-0.4,0.3-0.7,0.7-0.9,1.2
				C365.9,774.1,365.7,774.7,365.7,775.4z"/>
			<path class="st25" d="M376.7,781l0.2-0.6l-3.2-8c-0.2-0.5-0.3-0.8-0.3-1c0-0.2,0.1-0.4,0.2-0.6c0.1-0.2,0.3-0.3,0.5-0.5
				c0.2-0.1,0.4-0.2,0.6-0.2c0.4,0,0.7,0.1,0.8,0.4c0.2,0.2,0.4,0.6,0.5,1l2.2,6.4l2.1-5.9c0.2-0.5,0.3-0.9,0.4-1.1
				c0.1-0.3,0.3-0.5,0.4-0.5c0.1-0.1,0.4-0.1,0.6-0.1c0.2,0,0.4,0.1,0.6,0.2c0.2,0.1,0.3,0.2,0.4,0.4c0.1,0.2,0.1,0.4,0.1,0.6
				c0,0.1-0.1,0.3-0.1,0.5c-0.1,0.2-0.1,0.4-0.2,0.7l-3.4,8.9c-0.3,0.8-0.6,1.4-0.9,1.8c-0.3,0.4-0.6,0.8-1.1,1
				c-0.5,0.2-1.1,0.4-1.9,0.4c-0.8,0-1.3-0.1-1.7-0.2c-0.4-0.2-0.6-0.5-0.6-0.9c0-0.3,0.1-0.5,0.3-0.7c0.2-0.2,0.4-0.2,0.8-0.2
				c0.1,0,0.3,0,0.4,0.1c0.2,0,0.3,0.1,0.4,0.1c0.3,0,0.5,0,0.7-0.1c0.2-0.1,0.3-0.2,0.5-0.5C376.3,781.7,376.5,781.4,376.7,781z"/>
		</g>
		<g class="st1">
			<path class="st25" d="M414.2,770.3h0.6v-0.8c0-0.8,0.1-1.5,0.3-1.9c0.2-0.5,0.6-0.8,1-1c0.5-0.2,1.2-0.3,2-0.3
				c1.5,0,2.3,0.4,2.3,1.1c0,0.2-0.1,0.4-0.2,0.6c-0.2,0.2-0.3,0.3-0.6,0.3c-0.1,0-0.3,0-0.5-0.1c-0.2,0-0.5-0.1-0.6-0.1
				c-0.5,0-0.8,0.1-0.9,0.4c-0.1,0.3-0.2,0.7-0.2,1.2v0.6h0.6c1,0,1.5,0.3,1.5,0.9c0,0.4-0.1,0.7-0.4,0.8c-0.3,0.1-0.6,0.2-1.1,0.2
				h-0.6v6.9c0,0.5-0.1,0.9-0.4,1.2c-0.2,0.3-0.6,0.4-0.9,0.4c-0.4,0-0.7-0.1-0.9-0.4c-0.2-0.3-0.4-0.7-0.4-1.2v-6.9h-0.7
				c-0.4,0-0.7-0.1-0.9-0.3c-0.2-0.2-0.3-0.4-0.3-0.7C412.9,770.6,413.4,770.3,414.2,770.3"/>
			<path class="st25" d="M422.7,776.9v2.2c0,0.5-0.1,0.9-0.4,1.2c-0.2,0.3-0.6,0.4-0.9,0.4c-0.4,0-0.7-0.1-0.9-0.4
				c-0.2-0.3-0.4-0.7-0.4-1.2v-7.2c0-1.2,0.4-1.7,1.3-1.7c0.4,0,0.7,0.1,0.9,0.4c0.2,0.3,0.3,0.7,0.3,1.2c0.3-0.5,0.6-0.9,0.9-1.2
				c0.3-0.3,0.8-0.4,1.3-0.4c0.5,0,1.1,0.1,1.6,0.4c0.5,0.3,0.8,0.6,0.8,1.1c0,0.3-0.1,0.6-0.3,0.8c-0.2,0.2-0.5,0.3-0.7,0.3
				c-0.1,0-0.3-0.1-0.7-0.2c-0.4-0.1-0.7-0.2-1-0.2c-0.4,0-0.7,0.1-0.9,0.3c-0.2,0.2-0.4,0.5-0.6,0.9c-0.1,0.4-0.2,0.9-0.3,1.4
				C422.7,775.5,422.7,776.1,422.7,776.9"/>
			<path class="st25" d="M434.6,776h-5.1c0,0.6,0.1,1.1,0.4,1.6c0.2,0.4,0.5,0.8,0.9,1c0.4,0.2,0.8,0.3,1.3,0.3c0.3,0,0.6,0,0.8-0.1
				c0.3-0.1,0.5-0.2,0.7-0.3c0.2-0.2,0.5-0.3,0.7-0.5c0.2-0.2,0.5-0.4,0.8-0.7c0.1-0.1,0.3-0.2,0.6-0.2c0.3,0,0.5,0.1,0.6,0.2
				c0.2,0.1,0.2,0.4,0.2,0.6c0,0.2-0.1,0.5-0.3,0.8c-0.2,0.3-0.5,0.6-0.8,0.9c-0.4,0.3-0.8,0.5-1.4,0.7c-0.6,0.2-1.2,0.3-1.9,0.3
				c-1.7,0-3-0.5-3.9-1.4c-0.9-1-1.4-2.2-1.4-3.9c0-0.8,0.1-1.5,0.3-2.1c0.2-0.7,0.6-1.2,1-1.7c0.4-0.5,1-0.8,1.6-1.1
				c0.6-0.2,1.3-0.4,2.1-0.4c1,0,1.9,0.2,2.6,0.6c0.7,0.4,1.3,1,1.6,1.7c0.4,0.7,0.5,1.4,0.5,2.1c0,0.6-0.2,1.1-0.6,1.3
				C435.8,775.9,435.3,776,434.6,776 M429.6,774.5h4.7c-0.1-0.9-0.3-1.5-0.7-2c-0.4-0.4-1-0.7-1.6-0.7c-0.6,0-1.2,0.2-1.6,0.7
				C429.9,773,429.7,773.7,429.6,774.5"/>
			<path class="st25" d="M445.4,776h-5.1c0,0.6,0.1,1.1,0.4,1.6c0.2,0.4,0.5,0.8,0.9,1c0.4,0.2,0.8,0.3,1.3,0.3c0.3,0,0.6,0,0.8-0.1
				c0.3-0.1,0.5-0.2,0.8-0.3c0.2-0.2,0.5-0.3,0.7-0.5c0.2-0.2,0.5-0.4,0.8-0.7c0.1-0.1,0.3-0.2,0.6-0.2c0.3,0,0.5,0.1,0.7,0.2
				c0.2,0.1,0.2,0.4,0.2,0.6c0,0.2-0.1,0.5-0.3,0.8c-0.2,0.3-0.5,0.6-0.8,0.9c-0.4,0.3-0.8,0.5-1.4,0.7c-0.6,0.2-1.2,0.3-1.9,0.3
				c-1.7,0-3-0.5-3.9-1.4c-0.9-1-1.4-2.2-1.4-3.9c0-0.8,0.1-1.5,0.3-2.1c0.2-0.7,0.6-1.2,1-1.7c0.4-0.5,1-0.8,1.6-1.1
				c0.6-0.2,1.4-0.4,2.1-0.4c1,0,1.9,0.2,2.6,0.6c0.7,0.4,1.3,1,1.6,1.7c0.4,0.7,0.5,1.4,0.5,2.1c0,0.6-0.2,1.1-0.6,1.3
				C446.6,775.9,446.1,776,445.4,776 M440.4,774.5h4.7c-0.1-0.9-0.3-1.5-0.7-2c-0.4-0.4-1-0.7-1.6-0.7c-0.6,0-1.2,0.2-1.6,0.7
				C440.7,773,440.4,773.7,440.4,774.5"/>
			<path class="st25" d="M451.1,771.5v0.3c0.5-0.6,1-1,1.5-1.3c0.5-0.3,1.1-0.4,1.8-0.4c0.8,0,1.5,0.2,2.2,0.6
				c0.7,0.4,1.2,1,1.6,1.8c0.4,0.8,0.6,1.7,0.6,2.8c0,0.8-0.1,1.5-0.3,2.2c-0.2,0.7-0.5,1.2-0.9,1.7c-0.4,0.5-0.9,0.8-1.4,1
				c-0.5,0.2-1.1,0.4-1.7,0.4c-0.7,0-1.4-0.1-1.9-0.4c-0.5-0.3-1-0.7-1.4-1.3v3.9c0,1.1-0.4,1.7-1.2,1.7c-0.5,0-0.8-0.1-1-0.4
				c-0.2-0.3-0.2-0.7-0.2-1.3v-11.2c0-0.5,0.1-0.9,0.3-1.1c0.2-0.2,0.5-0.4,0.9-0.4c0.4,0,0.7,0.1,0.9,0.4
				C451,770.7,451.1,771.1,451.1,771.5 M456.2,775.3c0-0.7-0.1-1.3-0.3-1.8c-0.2-0.5-0.5-0.9-0.9-1.1c-0.4-0.3-0.8-0.4-1.2-0.4
				c-0.7,0-1.3,0.3-1.8,0.8c-0.5,0.6-0.7,1.4-0.7,2.5c0,1,0.2,1.8,0.7,2.4c0.5,0.6,1.1,0.9,1.8,0.9c0.4,0,0.8-0.1,1.2-0.4
				c0.4-0.3,0.7-0.6,0.9-1.1C456.1,776.6,456.2,776,456.2,775.3"/>
			<path class="st25" d="M461.4,768.9c-0.4,0-0.7-0.1-0.9-0.3c-0.3-0.2-0.4-0.5-0.4-0.9c0-0.4,0.1-0.7,0.4-0.9
				c0.3-0.2,0.6-0.4,0.9-0.4c0.3,0,0.6,0.1,0.9,0.3c0.3,0.2,0.4,0.5,0.4,0.9c0,0.4-0.1,0.7-0.4,0.9
				C462.1,768.8,461.8,768.9,461.4,768.9 M462.7,771.6v7.5c0,0.5-0.1,0.9-0.4,1.2c-0.3,0.3-0.6,0.4-0.9,0.4c-0.4,0-0.7-0.1-0.9-0.4
				c-0.2-0.3-0.4-0.7-0.4-1.2v-7.4c0-0.5,0.1-0.9,0.4-1.2c0.2-0.3,0.5-0.4,0.9-0.4c0.4,0,0.7,0.1,0.9,0.4
				C462.6,770.7,462.7,771.1,462.7,771.6"/>
			<path class="st25" d="M471.1,779.5l-2.3-3.8l-1.4,1.3v2.1c0,0.5-0.1,0.9-0.4,1.1c-0.3,0.3-0.6,0.4-0.9,0.4
				c-0.4,0-0.7-0.1-0.9-0.4c-0.2-0.3-0.3-0.7-0.3-1.2V768c0-0.6,0.1-1,0.3-1.3c0.2-0.3,0.5-0.5,1-0.5c0.4,0,0.7,0.1,0.9,0.4
				c0.2,0.3,0.4,0.7,0.4,1.2v6.3l2.9-3.1c0.4-0.4,0.6-0.6,0.8-0.8c0.2-0.1,0.4-0.2,0.7-0.2c0.3,0,0.6,0.1,0.8,0.3
				c0.2,0.2,0.3,0.5,0.3,0.8c0,0.4-0.4,0.9-1.1,1.5l-1.4,1.3l2.7,4.2c0.2,0.3,0.3,0.5,0.4,0.7c0.1,0.2,0.1,0.3,0.1,0.5
				c0,0.4-0.1,0.7-0.3,1c-0.2,0.2-0.5,0.4-0.9,0.4c-0.3,0-0.6-0.1-0.7-0.3C471.6,780.2,471.3,779.9,471.1,779.5"/>
			<path class="st25" d="M476.7,780.6c-0.4,0-0.7-0.1-1-0.4c-0.3-0.2-0.4-0.6-0.4-1.1c0-0.4,0.1-0.7,0.4-1c0.3-0.3,0.6-0.4,1-0.4
				c0.4,0,0.7,0.1,1,0.4c0.3,0.3,0.4,0.6,0.4,1c0,0.5-0.1,0.8-0.4,1.1C477.4,780.5,477.1,780.6,476.7,780.6"/>
			<path class="st25" d="M489.6,777.4c0,0.3-0.1,0.7-0.3,1c-0.2,0.4-0.5,0.7-0.9,1c-0.4,0.3-0.9,0.6-1.5,0.8c-0.6,0.2-1.3,0.3-2,0.3
				c-1.6,0-2.9-0.5-3.8-1.4c-0.9-0.9-1.3-2.2-1.3-3.8c0-1.1,0.2-2,0.6-2.8c0.4-0.8,1-1.4,1.8-1.9c0.8-0.4,1.7-0.7,2.8-0.7
				c0.7,0,1.3,0.1,1.9,0.3c0.6,0.2,1,0.5,1.4,0.8c0.4,0.3,0.7,0.6,0.9,1c0.2,0.4,0.3,0.7,0.3,1c0,0.3-0.1,0.6-0.3,0.8
				c-0.2,0.2-0.5,0.3-0.8,0.3c-0.2,0-0.4-0.1-0.5-0.2c-0.1-0.1-0.3-0.3-0.5-0.5c-0.3-0.5-0.6-0.8-1-1.1c-0.3-0.2-0.8-0.4-1.3-0.4
				c-0.8,0-1.4,0.3-1.9,0.9c-0.5,0.6-0.7,1.4-0.7,2.5c0,0.5,0.1,0.9,0.2,1.3c0.1,0.4,0.3,0.8,0.5,1c0.2,0.3,0.5,0.5,0.8,0.7
				c0.3,0.2,0.7,0.2,1.1,0.2c0.5,0,1-0.1,1.3-0.4c0.4-0.2,0.7-0.6,1-1.1c0.2-0.3,0.3-0.5,0.5-0.7c0.2-0.2,0.4-0.2,0.7-0.2
				c0.3,0,0.6,0.1,0.8,0.4C489.5,776.9,489.6,777.2,489.6,777.4"/>
			<path class="st25" d="M500.8,775.4c0,0.8-0.1,1.5-0.4,2.1c-0.2,0.7-0.6,1.2-1,1.7c-0.5,0.5-1,0.8-1.6,1.1
				c-0.6,0.2-1.3,0.4-2.1,0.4c-0.8,0-1.5-0.1-2.1-0.4c-0.6-0.2-1.2-0.6-1.6-1.1c-0.5-0.5-0.8-1-1.1-1.7c-0.2-0.6-0.4-1.4-0.4-2.1
				c0-0.8,0.1-1.5,0.4-2.2c0.2-0.7,0.6-1.2,1-1.7c0.5-0.5,1-0.8,1.6-1.1c0.6-0.2,1.3-0.4,2.1-0.4c0.8,0,1.5,0.1,2.1,0.4
				c0.6,0.3,1.2,0.6,1.6,1.1c0.5,0.5,0.8,1,1,1.7C500.7,773.9,500.8,774.6,500.8,775.4 M498.2,775.4c0-1.1-0.2-1.9-0.7-2.5
				c-0.5-0.6-1.1-0.9-1.9-0.9c-0.5,0-1,0.1-1.3,0.4c-0.4,0.3-0.7,0.6-0.9,1.2c-0.2,0.5-0.3,1.1-0.3,1.8c0,0.7,0.1,1.3,0.3,1.8
				c0.2,0.5,0.5,0.9,0.9,1.2c0.4,0.3,0.8,0.4,1.4,0.4c0.8,0,1.4-0.3,1.9-0.9C497.9,777.2,498.2,776.4,498.2,775.4"/>
			<path class="st25" d="M510.7,775.6v3.4c0,0.5-0.1,1-0.4,1.2c-0.3,0.3-0.6,0.4-1,0.4c-0.4,0-0.7-0.1-1-0.4
				c-0.2-0.3-0.4-0.7-0.4-1.2v-4.1c0-0.7,0-1.2-0.1-1.5c0-0.4-0.2-0.7-0.4-0.9c-0.2-0.2-0.5-0.4-0.9-0.4c-0.9,0-1.4,0.3-1.7,0.9
				c-0.3,0.6-0.4,1.4-0.4,2.5v3.5c0,0.5-0.1,0.9-0.4,1.2c-0.2,0.3-0.6,0.4-1,0.4c-0.4,0-0.7-0.1-1-0.4c-0.3-0.3-0.4-0.7-0.4-1.2
				v-7.4c0-0.5,0.1-0.9,0.3-1.1c0.2-0.3,0.5-0.4,0.9-0.4c0.4,0,0.7,0.1,0.9,0.4c0.2,0.2,0.4,0.6,0.4,1v0.2c0.5-0.5,0.9-0.9,1.4-1.2
				c0.5-0.3,1.1-0.4,1.7-0.4c0.7,0,1.2,0.1,1.7,0.4c0.5,0.3,0.9,0.7,1.2,1.2c0.4-0.5,0.9-0.9,1.4-1.2c0.5-0.3,1.1-0.4,1.7-0.4
				c0.7,0,1.3,0.1,1.8,0.4c0.5,0.3,0.9,0.7,1.1,1.2c0.2,0.5,0.3,1.2,0.3,2.2v5.1c0,0.5-0.1,1-0.4,1.2c-0.2,0.3-0.6,0.4-1,0.4
				c-0.4,0-0.7-0.1-1-0.4c-0.3-0.3-0.4-0.7-0.4-1.2v-4.4c0-0.6,0-1-0.1-1.3c0-0.3-0.2-0.6-0.4-0.8c-0.2-0.2-0.5-0.3-1-0.3
				c-0.3,0-0.7,0.1-1,0.3c-0.3,0.2-0.5,0.5-0.7,0.8C510.8,773.7,510.7,774.4,510.7,775.6"/>
		</g>
		<g class="st1">
			<path class="st25" d="M390,774.7C390,774.7,390,774.7,390,774.7C390,774.7,390,774.7,390,774.7z"/>
			<path class="st25" d="M390.1,775.6C390.1,775.6,390.1,775.6,390.1,775.6c0-0.2-0.1-0.5-0.1-0.7
				C390,775.1,390.1,775.3,390.1,775.6z"/>
			<path class="st25" d="M391,778C391,778,390.9,778,391,778C390.9,778,391,778,391,778z"/>
			<path class="st25" d="M390.9,777.8c0,0,0-0.1-0.1-0.1C390.8,777.7,390.9,777.8,390.9,777.8z"/>
			<path class="st25" d="M390.3,776.5c0.1,0.4,0.3,0.8,0.5,1.2C390.6,777.3,390.5,776.9,390.3,776.5
				C390.3,776.5,390.3,776.5,390.3,776.5z"/>
			<path class="st25" d="M400,764.8c0.5,0,0.9,0,1.3,0.1l0.1-0.8c0,0-1.2-0.4-2.7-0.2l-0.1-0.4c0.5-0.1,0.8-0.5,0.8-1
				c0-0.6-0.5-1.1-1.1-1.1c-0.6,0-1.1,0.5-1.1,1.1c0,0.5,0.4,0.9,0.8,1l0.1,0.5c-1.6,0.2-2.9,0.9-2.9,0.9l0.2,0.7
				c1-0.3,1.8-0.5,2.6-0.6C399,764.8,399.5,764.8,400,764.8z"/>
			<path class="st25" d="M390.9,768.7L390.9,768.7c0-0.1,0.1-0.1,0.1-0.2l-0.3-0.2l-0.5-0.4c0,0-0.8,0.7-1.4,2c0,0-0.1-0.1-0.1-0.1
				c-0.2-0.2-0.4-0.3-0.8-0.3c0,0,0,0,0,0c-0.2,0-0.3-0.1-0.4-0.1c0.1-0.1,0.1-0.3,0.1-0.4c0-0.4-0.3-0.7-0.7-0.7
				c-0.4,0-0.7,0.3-0.7,0.7c0,0.4,0.3,0.7,0.7,0.7c0.1,0,0.1,0,0.2,0c0.2,0.2,0.4,0.3,0.8,0.3c0.2,0,0.3,0,0.4,0.2
				c0.1,0.1,0.1,0.3,0.2,0.4c0,0,0,0,0,0c-0.4,1.2-0.3,2.7-0.3,2.7l1.1,0c0-0.5,0.1-1.5,0.4-2.2
				C390.3,769.6,390.9,768.7,390.9,768.7z"/>
			<path class="st25" d="M409.2,765.7c-0.4,0-0.7,0.3-0.7,0.7c0,0.1,0,0.1,0,0.2c-0.2,0.2-0.3,0.4-0.3,0.8c0,0.2,0,0.3-0.2,0.4
				c-0.1,0.1-0.2,0.1-0.3,0.1c-0.8-1.1-1.8-1.8-1.8-1.8l-0.8,0.8c0.6,0.5,1.2,1.2,1.7,2c0.4,0.6,0.8,1.3,1.1,2l1-0.5
				c0,0-0.5-1.2-1.1-2.2c0.1,0,0.2-0.1,0.3-0.2c0.2-0.2,0.3-0.4,0.3-0.8c0-0.2,0.1-0.3,0.1-0.4c0.1,0.1,0.3,0.1,0.4,0.1
				c0.4,0,0.7-0.3,0.7-0.7C409.9,766,409.6,765.7,409.2,765.7z"/>
			<path class="st25" d="M406.5,774.9c-1.4,0.7-3.7,1.6-6.8,2c-1.2,0.2-2.4,0.2-3.4,0.2c-1.4,0-2.6-0.1-3.6-0.2
				c-1.1-0.1-1.9-0.3-2.4-0.4c0.1,0.4,0.3,0.8,0.5,1.2c0,0,0,0,0,0c0,0,0,0.1,0.1,0.1c0,0,0,0.1,0.1,0.1c0,0,0,0,0,0
				c0.3,0.6,0.7,1.1,1.1,1.5c1.4,1.6,2.9,1.8,2.9,1.8l0,0l0,0c0,0,1.3,0.4,3.3,0.4c1.9,0,3.9-0.4,5.7-1.2c1.3-0.7,2.6-1.7,3.3-2.7
				c0.5-0.7,0.8-1.5,1-2.3c0.1-0.4,0.2-1.1,0.1-1.8C408,774.1,407.4,774.5,406.5,774.9z"/>
			<path class="st25" d="M391.4,769c0,0.1-0.7,0.9-1.1,2.3c-0.4,1-0.3,2.4-0.3,2.5v0c0,0.3,0,0.7,0.1,1c0,0,0,0,0,0c0,0,0,0.1,0,0.1
				c0,0.2,0.1,0.5,0.1,0.7c0.7,0.2,4.9,1.2,9.5,0.5c2.9-0.4,5.1-1.3,6.5-1.9c1.1-0.5,1.8-1,2.1-1.2c-0.3-1-1-2.6-1.7-3.6
				c-2-2.9-4.2-3.6-5.3-3.8c-0.4-0.1-0.8-0.1-1.2-0.1c-0.4,0-1,0-1.7,0.1c-0.7,0.1-1.6,0.3-2.5,0.6c-1.3,0.5-2.6,1.2-3.5,2l0,0
				C392,768.3,391.7,768.6,391.4,769z M403.7,768.3c1,0,1.7,0.8,1.7,1.7c0,1-0.8,1.7-1.7,1.7c-1,0-1.7-0.8-1.7-1.7
				C401.9,769.1,402.7,768.3,403.7,768.3z M395.4,768.3c1.6,0,2.8,1.3,2.8,2.8c0,1.6-1.3,2.8-2.8,2.8c-1.6,0-2.8-1.3-2.8-2.8
				C392.6,769.5,393.9,768.3,395.4,768.3z"/>
		</g>
	</g>
</g>
</svg>
