<?xml version="1.0" encoding="utf-8"?>
<!-- Generator: Adobe Illustrator 19.1.0, SVG Export Plug-In . SVG Version: 6.00 Build 0)  -->
<svg version="1.1" xmlns="http://www.w3.org/2000/svg" xmlns:xlink="http://www.w3.org/1999/xlink" x="0px" y="0px"
	 viewBox="0 0 595.5 583.5" style="enable-background:new 0 0 595.5 583.5;" xml:space="preserve">
<style type="text/css">
	.st0{fill:#69D5D0;}
	.st1{opacity:0.2;fill:#646464;}
	.st2{fill:#FBCCA6;}
	.st3{fill:#694039;}
	.st4{fill:#4B4C54;}
	.st5{fill:#FFF9EC;stroke:#FD7E19;stroke-width:5;stroke-miterlimit:10;}
	.st6{fill:#FFF9EC;stroke:#73B804;stroke-width:5;stroke-miterlimit:10;}
	.st7{fill:#FFF9EC;stroke:#4B4C54;stroke-width:5;stroke-miterlimit:10;}
	.st8{fill:#FFF9EC;stroke:#E1573F;stroke-width:5;stroke-miterlimit:10;}
	.st9{fill:#E5E6E5;}
	.st10{fill:#ACADAC;}
	.st11{fill:#B13052;}
	.st12{fill:#ABA39B;}
	.st13{fill:#2D1805;}
	.st14{fill:#FCB702;}
	.st15{fill:#646464;}
	.st16{fill:#646464;stroke:#C1C1C1;stroke-miterlimit:10;}
</style>
<g id="Background">
</g>
<g id="Objects">
	<g>
		<g>
			<g>
				<rect x="210.9" y="230.9" class="st0" width="132" height="155"/>
				<g>
					<ellipse class="st1" cx="282.4" cy="548.5" rx="245.6" ry="14"/>
					<g>
						<path class="st2" d="M69.2,67.9c-0.2,0,3.1-2.5,2.9-2.6c-1.3-3.2-7.2-3.9-10.8-4.5c-3.7-0.6-6.5,3.6-6.8,6.7
							c-0.4,4.4,4.3,5.7,6.5,2c0.6-1.1,0.4-0.8,1.3-0.1c0.8,0.6,1.6,1.4,2.4,2c1.5,1.3,3.3,2.2,5.3,1.8
							C73.2,72.6,72.6,67.2,69.2,67.9z"/>
						<path class="st2" d="M66.7,72.9c-0.2,0-0.4,0-0.6-0.1c-1.3-3.2-3.7-6.4-7.3-7c-3.7-0.6-6.5,3.6-6.8,6.7
							c-0.4,4.4,4.3,5.7,6.5,2c0.6-1.1,0.4-0.8,1.3-0.1c0.8,0.6,1.6,1.4,2.4,2c1.5,1.3,3.3,2.2,5.3,1.8
							C70.7,77.6,70.1,72.1,66.7,72.9z"/>
						<path class="st2" d="M65.4,76.6c-0.2,0-0.4,0-0.6-0.1c-1.3-3.2-3.7-6.4-7.3-7c-3.7-0.6-6.5,3.6-6.8,6.7
							c-0.4,4.4,4.3,5.7,6.5,2c0.6-1.1,0.4-0.8,1.3-0.1c0.8,0.6,1.6,1.4,2.4,2c1.5,1.3,3.3,2.2,5.3,1.8
							C69.5,81.3,68.8,75.9,65.4,76.6z"/>
						<path class="st2" d="M489.6,38.9c-3.7-3.6-16.2-0.1-15,0.5c0.1,0.1,1.1,0.5,1.3,0.5c-1.4,0.9-1.1,3.2,1,3.4
							c1.7,0.2,3.3,0.3,4.9,0.7c2.4,0.7,2.8,3.3,3.6,5.3c1.1,3.1,3.1,8,6.9,7.9c1.2,0,2.3-1,2.2-2.2c-0.1-0.8-0.3-1.4-0.6-2
							C494.6,51.7,496.1,45.2,489.6,38.9z"/>
						<path class="st2" d="M548.5,243.8c-2.3-3.3-7.7-1.7-10.5,0.2c-1.7,1.1-2.6,2.9-3.2,4.8c-0.5,1.6,0.1,4.8-1.4,5.9
							c-3.1,2.2-0.2,7.3,3,5.1c3.3-2.2,3.4-5.1,4-8.7c0.7-4.7,5.2-3.5,8-5.9C548.6,244.8,548.7,244.2,548.5,243.8z"/>
						<g>
							<path class="st2" d="M227.1,118.4c0,0-4.8,53.1,6.8,66.3c11.6,13.2,85.9,65.9,97.5-27.4C343,64,235.7,117.5,227.1,118.4z"/>
							<path class="st3" d="M337.7,112.5c-0.9-3.1-2.6-5.7-4.7-7.9c1.6-1.6,3.4-3,5.6-3.9c0.9-0.4,0.6-1.8-0.4-1.5
								c-2.5,0.7-4.5,2.4-6.3,4.2c-0.1-0.1-0.2-0.2-0.4-0.3c0.4-2.2,0.4-4.5,0.3-6.6c0-1.2-1.9-1.2-1.9,0c-0.1,1.7,0,3.4-0.1,5.2
								c-6.3-4.5-15-6.3-22.6-5.7c-12.1,1.1-26.6-7.2-40.9-14.1c-14.2-6.9-27.5-17.6-40.1-21.3c-12.6-3.7-25.1-2.5-29.9,17.5
								c-4.7,20,16.6,39.2,29.9,43.5c46.4,15.1,86.3-2,88.4,2.2c2.1,4.2,4.2,41.1,4.2,41.1l15.8,3.2
								C340.4,162,341.4,124.6,337.7,112.5z"/>
							<ellipse cx="254.5" cy="157.7" rx="2.8" ry="8.9"/>
							<ellipse cx="292.3" cy="157.7" rx="2.8" ry="8.9"/>
							<path class="st3" d="M246.5,131.9c-4.2-0.4-8.2,2.1-9.9,5.9c-0.3,0.7,0.6,1.2,1,0.6c1.8-3.6,5.2-4.7,8.9-5.2
								C247.3,133.1,247.3,132,246.5,131.9z"/>
							<path class="st3" d="M295.9,131.7c4.2-0.4,8.2,2.1,9.9,5.9c0.3,0.7-0.6,1.2-1,0.6c-1.8-3.6-5.2-4.7-8.9-5.2
								C295,132.9,295,131.8,295.9,131.7z"/>
						</g>
						<g>
							<path class="st2" d="M214.2,201.5c-8.5-2.6-17.1-11.1-24-16.5c-6.9-5.4-13.6-11-19.7-17.4c-11.9-12.6-23-27.1-31.6-42.2
								c-8.7-15.4-15.9-31.6-28.6-44.3C104.3,75,96.7,70.4,88.4,68c-7.8-2.3-20.2-6.7-28.1-3.9c-10.3,3.6-8.9,19.1,2.6,19.3
								c16.6,0.3,31.1,7.3,40.7,20.6c10.5,14.4,16.8,31.3,27.3,45.8c10.1,13.9,22.3,27.9,35.5,38.9c7,5.8,15.1,9.9,23.1,14.2
								c7.4,3.9,14.8,8.3,23.4,8.7C218.7,211.7,219.5,203.1,214.2,201.5z"/>
							<path class="st2" d="M207,231.3c-2.2-0.2-4.8-2.7-6.5-3.9c-2.6-1.8-5.6-3.1-8.5-4.5c-7.3-3.3-14.8-6-22-9.4
								c-14.1-6.6-27.8-13.3-42.5-18.4c-14.5-5-28.4-11.9-43.6-15c-14.7-2.9-7.3,1.3-22.1,0.5c-12-0.6-14.9,19.4-2.9,21.2
								c14.8,2.1,7.2-3.7,22-1.5c15.2,2.3,29.5,9,44.2,13.2c15,4.4,28.9,11.2,43.5,16.5c7.7,2.8,15.8,3.9,23.6,6.1
								c5.5,1.5,10,4.7,15.8,3.3C213,238.3,211.4,231.7,207,231.3z"/>
							<path class="st2" d="M222.7,239.5c-9.4,0.4-18.2,0-27,3.9c-9.3,4.2-16.6,10.8-24.3,17.3c-7.5,6.3-15.7,11.6-25.1,14.5
								c-10.4,3.1-22.2-1.1-31.9,3.6c-4.6,2.3-4.7,8.7-1.6,12.1c7.2,7.9,21.5,6.5,31.1,4.9c10.8-1.8,20.6-5.9,29.2-12.7
								c8.1-6.4,15-14.1,22.4-21.4c8.2-8,17.7-9.5,28.4-12.4C229.4,247.9,228.4,239.3,222.7,239.5z"/>
							<path class="st2" d="M476.9,40.2c-6-0.2-11.4,4.7-16.2,7.9c-7.9,5.3-15.7,11.1-23,17.2c-13.6,11.3-22.2,27.7-24.8,45
								c-2.9,19.2-3.5,38.6-6.2,57.8c-1.3,9.4-3.7,19.1-8.8,27.2c-4.5,7.2-13.9,16.6-22,19.6c-6,2.1-3.5,11.7,2.6,9.6
								c6.3-2.2,11.8-6.7,16.9-11c6.2-5.4,11.8-11,15.9-18.2c9.3-16.5,10.3-36.6,12.8-54.9c2.6-18.4,3-37.7,14.9-53
								c5.9-7.5,13.5-13.3,21.5-18.5c3.7-2.4,7.5-4.6,11.4-6.7c1.2-0.7,2.4-1.4,3.6-2.1c2.9-1.7,2.5-0.6-1.2-1.3
								C488.1,61.4,490.6,40.7,476.9,40.2z"/>
							<path class="st2" d="M510,155.8c-3,5.9-7.5,11.3-11.3,16.8c-4.5,6.5-8.6,13.4-13.7,19.6c-9.2,11.3-20.8,19.6-33.1,27.3
								c-6.5,4-12.7,7.4-20.1,9.4c-7.4,2-14.5,4.3-21.6,7.1c-12.5,5-27.3,10.4-40.9,8.4c-6.3-0.9-9.2,8.3-2.7,9.8
								c14,3.1,28.9,0.9,42.8-1.9c17.1-3.4,34.6-7,50.3-14.8c14.3-7.1,27.5-17.4,38.3-29c5.9-6.4,10.6-13.7,15.6-20.7
								c5.3-7.6,12.7-15,15.7-23.9C533,152.6,515.4,145.2,510,155.8z"/>
							<path class="st2" d="M534.6,252.6c-8.9,8.3-20.1,15.8-30.5,22c-12.6,7.5-27.3,11.8-41.8,13.7c-14.2,1.9-28.3,1.4-42.3-1.8
								c-6.8-1.5-13.4-3.9-20.1-5.6c-8.3-2.1-16.6-3.7-24.9-5.9c-7.4-2-10.5,9.3-3.2,11.5c8.2,2.4,16.3,4.7,24.4,7.6
								c7.4,2.7,14.3,6.2,21.7,8.8c14.8,5.2,31.5,5.3,47,3.9c16.7-1.4,32.3-5.9,47.4-13.3c6.7-3.3,12.9-7.7,19-12.1
								c6.2-4.4,12.9-8.5,18.6-13.6C560.3,258.6,544.8,243,534.6,252.6z"/>
						</g>
						<g>
							<g>
								<rect x="45.9" y="327.9" class="st4" width="459" height="20"/>
								<rect x="77.9" y="347.9" class="st4" width="396" height="198"/>
								<polygon points="473.9,368.8 76.7,347.9 473.9,347.9 								"/>
							</g>
							<g>
								<path class="st4" d="M387.9,288.6c0,8.2-7.9,15.3-16.1,15.3H178c-8.2,0-14.2-7.1-14.2-15.3V176.8c0-8.2,6-14.9,14.2-14.9
									h193.8c8.2,0,16.1,6.7,16.1,14.9V288.6z"/>
								<rect x="235.9" y="286.9" class="st4" width="80" height="44"/>
								<rect x="215.9" y="316.9" class="st4" width="118" height="14"/>
							</g>
						</g>
						<g>
							<path class="st5" d="M149.1,278.4H60.7c-5.7,0-10.3,4.6-10.3,10.3v0.1c0,5.7,4.6,10.3,10.3,10.3h88.4"/>
							<path class="st6" d="M150.7,231H62.3c-5.7,0-10.3,4.6-10.3,10.3v0.1c0,5.7,4.6,10.3,10.3,10.3h88.4"/>
							<path class="st7" d="M151.5,304H63.1c-5.7,0-10.3,4.6-10.3,10.3v0.1c0,5.7,4.6,10.3,10.3,10.3h88.4"/>
							<path class="st8" d="M143.5,255.7H55.2c-5.7,0-10.3,4.6-10.3,10.3v0.1c0,5.7,4.6,10.3,10.3,10.3h88.4"/>
							<g>
								<rect x="62.9" y="222.9" class="st9" width="72" height="1"/>
								<rect x="65.9" y="220.9" class="st10" width="70" height="2"/>
								<rect x="61.9" y="216.9" class="st9" width="71" height="4"/>
								<rect x="65.9" y="215.9" class="st10" width="70" height="1"/>
								<rect x="65.9" y="213.9" class="st9" width="70" height="2"/>
								<rect x="67.9" y="209.9" class="st10" width="71" height="4"/>
								<rect x="65.9" y="206.9" class="st9" width="70" height="3"/>
								<rect x="62.9" y="204.9" class="st10" width="72" height="2"/>
								<rect x="65.9" y="201.9" class="st9" width="70" height="3"/>
								<rect x="65.9" y="199.9" class="st10" width="70" height="2"/>
								<rect x="62.9" y="196.9" class="st9" width="72" height="3"/>
								<rect x="62.9" y="191.9" class="st9" width="72" height="3"/>
								<rect x="65.9" y="194.9" class="st10" width="70" height="2"/>
								<rect x="65.9" y="187.9" class="st9" width="70" height="4"/>
								<rect x="65.9" y="185.9" class="st10" width="70" height="2"/>
								<rect x="62.9" y="182.9" class="st9" width="72" height="3"/>
								<rect x="62.9" y="178.9" class="st9" width="72" height="3"/>
								<rect x="65.9" y="181.9" class="st10" width="70" height="1"/>
								<rect x="65.9" y="174.9" class="st9" width="70" height="4"/>
								<rect x="65.9" y="173.9" class="st10" width="70" height="1"/>
								<rect x="62.9" y="171.9" class="st9" width="72" height="2"/>
								<rect x="62.9" y="165.9" class="st9" width="72" height="1"/>
								<rect x="65.9" y="166.9" class="st10" width="70" height="5"/>
							</g>
						</g>
						<g>
							<polygon class="st11" points="347.9,319.5 347.9,316.8 346,317.9 347.1,317.9 349.9,314.5 349.9,313.1 402.3,307.3 
								404.5,316 							"/>
							<path class="st12" d="M345.5,320.2l0.8,1.7h3.7l0.4,2.8c0,0,16.8-0.2,16.9-0.4c0.1-0.2-0.5-2.9-0.5-2.9l32-2v-3.3
								L345.5,320.2z"/>
							<path class="st13" d="M394.3,318.9c-0.1,0,0.6-1.5,0.6-1.6v-0.2c0-0.1-0.6,0.7-0.6,0.7h3.6c0.1,0,0-0.8,0-0.7v0.2
								c0,0.1,0.1,1.6,0,1.6H394.3z"/>
							<polygon class="st13" points="400.2,318.7 400.2,318.7 398.9,318.7 398.9,318.7 398.9,317 398.9,317 400.2,317 400.2,317 
															"/>
							<circle class="st13" cx="347.3" cy="317.6" r="1"/>
							<rect x="346.9" y="323.9" class="st11" width="57" height="4"/>
						</g>
						<g>
							<polygon class="st14" points="495.9,66.7 444.8,15.7 449.2,11.3 500.2,62.3 505,71.7 							"/>
							<rect x="436.9" y="34.9" transform="matrix(0.7071 0.7071 -0.7071 0.7071 164.9927 -322.2912)" width="69.3" height="6.2"/>
							
								<rect x="446.6" y="11.5" transform="matrix(0.7071 0.7071 -0.7071 0.7071 141.5528 -312.577)" class="st15" width="3.1" height="6.2"/>
						</g>
						
							<rect x="484.9" y="95" transform="matrix(0.9 -0.4358 0.4358 0.9 -13.2072 243.8969)" class="st9" width="80.2" height="111.5"/>
						<path class="st15" d="M542.8,306.7c-1.4-4-2.5-7.9-2.5-12.2c0-4.7,2.2-9.3,5-13c0.4-0.6-0.5-1.1-0.9-0.5
							c-4.1,5.6-5.8,12-4.6,18.9c1.3,7.1,5.4,13.3,5,20.7c-0.5,7.8-8.9,12.9-16.1,9.9c-1.5-0.6-2.5-1.6-3.3-2.8
							c1.9-0.2,3.7-0.9,5.3-2.4c3.2-3,3.9-10-0.1-12.7c-5-3.5-7.9,4.3-8.1,8.1c-0.1,2.3,0.4,4.5,1.3,6.3c-1.5-0.1-3.1-0.6-4.4-1.2
							c-7-3.4-11.7-9.7-17.8-14.2c-9.9-7.4-24,0.4-27.5,11c-0.1,0.4,0.5,0.5,0.6,0.2c2.5-8.3,12.4-15.2,21.2-13.3
							c4.3,1,7.6,4.4,10.7,7.3c3.1,2.9,6.3,5.8,9.8,8.2c2.5,1.6,5.3,2.8,8.1,2.9c1.5,2.3,3.8,4,6.8,4.6c5.5,1.1,11.1-2.1,13.5-6.9
							C547.5,319.3,544.8,312.4,542.8,306.7z M531.2,314.6c2.2,3.3,1,7.8-1.7,10.3c-1.3,1.2-2.9,1.8-4.6,1.8
							c-0.9-1.7-1.3-3.6-1.4-5.5C523.1,317.4,527,308.4,531.2,314.6z"/>
						<g>
							<line class="st16" x1="479.8" y1="131.4" x2="537.9" y2="103.2"/>
							<line class="st16" x1="484" y1="140.2" x2="542.1" y2="112"/>
							<line class="st16" x1="488.3" y1="149" x2="546.4" y2="120.8"/>
							<line class="st16" x1="492.6" y1="157.8" x2="550.7" y2="129.6"/>
							<line class="st16" x1="496.8" y1="166.6" x2="554.9" y2="138.4"/>
							<line class="st16" x1="501.1" y1="175.4" x2="559.2" y2="147.2"/>
							<line class="st16" x1="505.3" y1="184.2" x2="563.4" y2="156"/>
							<line class="st16" x1="509.6" y1="193" x2="567.7" y2="164.8"/>
							<line class="st16" x1="513.9" y1="201.8" x2="572" y2="173.6"/>
						</g>
						<g>
							<path class="st15" d="M420.4,328.9c-2.2,0-3.1-1.6-2-3.5l13.9-24.1c1.1-1.9,3.8-3.3,6-3.3h27.8c2.2,0,4.9,1.4,6,3.3
								l13.9,24.3c1.1,1.9,0.2,3.4-2,3.4H420.4z"/>
						</g>
						<path class="st11" d="M516,236.1c0,0,10.3-8.5,13-7.1c0,0,7.6,6,9.9,7.4c2.3,1.4,16.7,15.6,19.2,37.9c0,0,1.3,8.5,1.6,10.2
							c0.4,1.8-11,9.7-12.9,8.5c-1.9-1.2-9.2-15.1-5.8-17.7c3.5-2.7,6-1.5,7.5-2.2c1.5-0.6,2.6-2.9-8.7-23.3c0,0-3-8.4-6.3-5.8
							c-3.3,2.7-5.5,6-8.9,3.1C521.3,244.2,514.6,238.1,516,236.1z"/>
						<path class="st2" d="M568.5,136.2c0.1-0.6-0.1-1.2-0.4-1.7c-1-3.4-2.7-6.5-4.2-8.5c-0.2-0.3-0.4-0.4-0.7-0.4
							c-0.5-1.4-1.2-2.6-1.9-3.2c-0.5-0.5-1.2-0.4-1.7-0.1c-0.5-1.9-1.7-3.2-4-1.8c-0.9,0.6-0.7,1.8,0.1,2.2c-1.4,1.3-2.2,3.4-2.9,5
							c-0.8,2-2.1,4.6-1.9,6.9c0.2,1.6,2,3.2,3.6,2.1c0.9-0.6,1.7-1.4,2.3-2.3c-0.3,1.8-0.4,3.8,0.1,5.4c0.5,1.4,1.6,1.9,3,1.7
							c0.2,0,0.5-0.1,0.7-0.2c-0.3,1-0.3,2.1-0.1,3.1c0.7,2.9,3.4,4.9,6,2.5C569.2,144.4,569.4,140.3,568.5,136.2z"/>
						<path class="st2" d="M550.8,244.8c-0.5-1-1.4-1.7-2.8-1.6c-2.3,0.3-2.7,2.9-1.1,4c0,0,0,0.1,0,0.1c0,0.4-0.1,0.7-0.2,1
							c-0.2,1-0.8,1.8-1.3,2.6c-0.7,1.2-2.3,1.9-2.6,3.4c-0.8,3.3,2.5,4.6,5.1,3.2c-0.2,0.7-0.3,1.4-0.4,2.1c-0.3,2.1,1,4.2,3,4
							c-0.3,0.9-0.5,1.8-0.5,2.5c0,2.5,1.9,5,4.5,3.2c2.3-1.6,3.6-5.2,4-7.8C558.9,256.9,551.3,244.5,550.8,244.8z"/>
						<path class="st2" d="M77,192.5c0.7-2.6-2.4-4.4-4.2-5.4c-1.6-0.9-3.4-1.5-5.1-2.1c-2.1-0.8-4.4-2-6.5-2.6
							c-0.7-0.2-1.1,0.4-1,1c0,0.1,0,0.1,0,0.2c-0.8,0.9-0.9,2.3,0.4,3c0.1,0.1,0.2,0.1,0.3,0.2c0.2,0.5,0.6,1,0.9,1.5
							c-0.7,0.3-1.1,1.1-1.1,1.8c0,0.6,0.1,1.1,0.3,1.6c-0.6,0.3-1.1,0.9-1.3,1.7c-0.2,0.7-0.1,1.3,0.2,1.9
							c-0.4,0.4-0.7,0.9-0.9,1.7c-0.3,1.2,0.1,2.1,0.8,2.9c0.1,0.6,0.4,1.1,1.1,1.5c4.7,2.2,7.4,8,13.3,5.2c1-0.5,1.5-2.1,0.8-3
							c0,0-0.1-0.1-0.1-0.1c0.3-0.7,0.3-1.6-0.1-2.3c0.9-0.5,1.5-1.7,0.8-2.8c-0.1-0.1-0.2-0.2-0.3-0.4c0.5-0.2,0.9-0.7,1.2-1.4
							c0.3-0.8,0-1.7-0.5-2.5C76.4,193.6,76.8,193.2,77,192.5z"/>
						<path class="st2" d="M490.9,48.9c-3-2.7-7.2-2.2-10.9-3.1c-3.5-0.8-6.1-3.4-9.9-2.7c-1.5,0.3-1.7,2.2-0.8,3.2
							c2.3,2.7,5.6,4.9,8.9,6.2c3.2,1.3,7.9,2.5,11.3,1.7C491.8,53.8,492.6,50.5,490.9,48.9z"/>
						<g>
							<g>
								<path class="st14" d="M58.8,54.9l-5.6-0.8c-0.9,1.3-1.7,2.5-2.6,3.8l6.4,0.9c3.6,0.5,6,4.7,5.3,9.4l-0.8,5.9
									c-0.7,4.7-4.1,8-7.8,7.5l-8.1-1.2c-2.9-0.4-4.9-3.1-5.4-6.6c-1.1,1.6-2.2,3.2-3.3,4.8c1.2,3,3.5,5.2,6.4,5.6l11,1.6
									c4.9,0.7,9.6-3.8,10.5-10.2l1.2-8.2C66.9,61.3,63.7,55.6,58.8,54.9z"/>
								<g>
									<path class="st14" d="M45.9,91.4c-0.6,1.5-2.4,2.6-4,2.4l-23-3.3c-1.6-0.2-3.1-1.8-3.2-3.4l-3.1-44.7
										c-0.1-1.6,1.1-2.8,2.8-2.6l44.1,6.3c1.6,0.2,2.5,1.7,1.9,3.2L45.9,91.4z"/>
								</g>
							</g>
						</g>
						<path class="st2" d="M77,73.8c-3.1-2.6-6.9-4.1-10.1-6.7c-2.5-2-6-3-8.9-1.1c-2.8,1.9-3.8,4.9-2.1,7.8
							c1.5,2.5,5.7,2.6,8.3,2.4c1.4-0.1,2.5-1.1,2.9-2.4c2.9,1.1,6.3,1.9,9.3,1.8C77.3,75.6,77.8,74.4,77,73.8z"/>
					</g>
				</g>
				<polygon points="315.9,316.9 235.9,304.9 235.9,303.9 315.9,303.9 				"/>
			</g>
		</g>
	</g>
</g>
</svg>
