<?xml version="1.0" encoding="utf-8"?>
<!-- Generator: Adobe Illustrator 19.1.0, SVG Export Plug-In . SVG Version: 6.00 Build 0)  -->
<svg version="1.1" xmlns="http://www.w3.org/2000/svg" xmlns:xlink="http://www.w3.org/1999/xlink" x="0px" y="0px"
	 viewBox="0 0 711.2 441.5" style="enable-background:new 0 0 711.2 441.5;" xml:space="preserve">
<style type="text/css">
	.st0{display:none;}
	.st1{display:inline;fill:#B8CDC3;}
	.st2{fill:#1D1D1B;}
	.st3{fill:#3C3C3B;}
	.st4{fill:#F3D19D;}
	.st5{fill:#F2C183;}
	.st6{fill:#FFFFFF;}
	.st7{fill:#F6F6F6;}
	.st8{fill:#FFE1AA;}
	.st9{fill:#634E42;}
	.st10{fill:#F6A424;}
	.st11{fill:#FFCE40;}
	.st12{fill:none;}
	.st13{fill:none;stroke:#3C3C3B;stroke-width:2;stroke-miterlimit:10;}
	.st14{fill:none;stroke:#3C3C3B;stroke-width:2;stroke-miterlimit:10;stroke-dasharray:4,4;}
	.st15{fill:none;stroke:#3C3C3B;stroke-width:2;stroke-miterlimit:10;stroke-dasharray:4.0303,4.0303;}
	.st16{fill:none;stroke:#3C3C3B;stroke-width:2;stroke-miterlimit:10;stroke-dasharray:4.1256,4.1256;}
	.st17{fill:none;stroke:#3C3C3B;stroke-width:2;stroke-miterlimit:10;stroke-dasharray:4.0082,4.0082;}
	.st18{fill:none;stroke:#3C3C3B;stroke-width:2;stroke-miterlimit:10;stroke-dasharray:4.0083,4.0083;}
</style>
<g id="Background" class="st0">
</g>
<g id="Objects">
	<g>
		<path class="st2" d="M83.5,230.9c-3.4-4.2-10.5-12.3-14.8-11.4c-5.8,1.2-9.2,12.4-14.4,16.3c-5.2,3.9-18.6,10.7-12.8,17.1
			c5.8,6.4,20.4,6.6,24.3-1.1c1.5-2.9,4.3-4.8,7.3-6.1C70.6,242,78.1,234.5,83.5,230.9z"/>
		<path class="st2" d="M135.9,299.8c-4.2-3.4-12.9-9.8-16.9-7.9c-5.4,2.5-6.3,14.1-10.5,19.1c-4.2,5-15.9,14.5-8.8,19.5
			c7,5,21.4,2,23.5-6.3c0.8-3.2,3.2-5.7,5.8-7.5C125.7,313.4,131.3,304.5,135.9,299.8z"/>
		<path class="st3" d="M165.2,205.8c-9.1,8.1-20.2,19.5-25.7,22.1c-9.1,4.2-47.1-0.7-52.4,1.1c-0.9,0.3-2.2,1-3.6,1.9
			c-5.5,3.6-12.9,11-10.4,14.9c0.4,0.6,1,1.1,2,1.5c8.4,3.5,29.2,2.5,36.9,10.2c7.7,7.7,10.6,13.4,29.2,9.5
			c18.6-3.9,38.4-6.7,53.5,6.3c5.4,4.7-2.8,9.9-4.8,11.5c-8,6.1-46.2,9.5-50.9,12.4c-0.8,0.5-1.9,1.4-3.1,2.6
			c-4.6,4.7-10.2,13.6-6.9,16.8c0.5,0.5,1.3,0.9,2.3,1.1c9,1.6,29-3.9,38.3,2c9.2,5.9,13.2,10.8,30.6,3
			c13.8-6.2,44.4-13.1,58.5-22.9c-12.3-4.8-36-15.6-53.2-32.5C184.2,246.3,168.8,213.7,165.2,205.8z"/>
		<path class="st4" d="M179.6,112.1c1.6-1.3,3-3.6,3.8-6.3c1.4-4.9,0.4-9.5-2.4-10.3c-1.6-0.5-3.5,0.6-5.1,2.5
			c-0.1-0.2-0.2-0.3-0.3-0.5c-5.4-7.6-14.6-10.3-20.6-6.1c-6,4.2-6.4,13.8-1,21.4c1.1,1.5,5.7,6.4,10,10.8l15.6-10
			C179.7,113.2,179.6,112.6,179.6,112.1z"/>
		<path class="st5" d="M179.7,113.8l-15.6,10l0,0c0.7,0.7,1.4,1.4,2,2.1l13.8-9C179.8,115.8,179.8,114.7,179.7,113.8z"/>
		<polygon class="st6" points="180.4,116.5 179.9,116.9 166.1,125.8 165.8,126.1 168.5,130 182.6,120.2 		"/>
		<path class="st4" d="M378.1,289.3c4.9,3.6,10.4,7.6,12,8.4c8.2,4.4,17.7,2.7,21.1-3.8c3.4-6.5-0.5-15.2-8.7-19.6
			c-0.2-0.1-0.4-0.2-0.6-0.3c1.8-1.8,2.5-3.8,1.9-5.3c-1.1-2.6-5.8-3-10.5-1c-2.6,1.2-4.7,2.9-5.8,4.6c-0.6,0-1.2,0.1-1.9,0.2
			c0.1,0,0.2,0,0.3,0L378.1,289.3z"/>
		<path class="st5" d="M378.1,289.3l7.8-16.8c-0.1,0-0.2,0-0.3,0c-0.3,0-0.7,0.1-1.1,0.1c0,0,0,0-0.1,0c-0.6,0-1.1,0.1-1.7,0.1
			l-7.1,14.8C376.5,288.1,377.3,288.7,378.1,289.3z"/>
		<polygon class="st6" points="375.6,287.9 375.8,287.5 382.8,272.7 383.1,272.1 379.1,270.4 370.6,285.3 		"/>
		<path class="st2" d="M207.9,264.6c-21-20.6-36.3-52.8-40-61c-0.8,0.7-1.7,1.4-2.5,2.2c0,0,0,0-0.1,0.1c0,0,0,0,0,0
			c3.5,7.9,19,40.5,40.1,61.2c17.2,16.9,40.9,27.7,53.2,32.5c0,0,0,0,0,0c0.4-0.3,0.8-0.6,1.2-0.9c0.1,0,0.1-0.1,0.2-0.1
			c0.4-0.3,0.7-0.6,1.1-0.9c0,0,0.1-0.1,0.1-0.1c0.1-0.1,0.3-0.2,0.4-0.3C249.3,292.5,225.2,281.7,207.9,264.6z"/>
		<path class="st3" d="M336.5,187.7c-1.8,0.5-3.5,0.8-5,0.9c-2.4,0.1-5.7-0.6-9.6-2c-7.2,3.7-18.6,9.5-23.9,12.1
			c-4.5,2.2-15.5,7.1-24.5,11.3c0,0,0,0,0,0c-0.4,0.2-0.7,0.3-1.1,0.5c-0.1,0.1-0.3,0.1-0.4,0.2c-0.3,0.1-0.5,0.3-0.8,0.4
			c-0.2,0.1-0.4,0.2-0.6,0.3c-0.2,0.1-0.4,0.2-0.7,0.3c-0.2,0.1-0.5,0.2-0.7,0.3c-0.2,0.1-0.4,0.2-0.6,0.3c-0.2,0.1-0.5,0.2-0.7,0.3
			c-0.2,0.1-0.3,0.2-0.5,0.2c-0.3,0.1-0.5,0.2-0.7,0.4c-0.1,0.1-0.3,0.1-0.4,0.2c-0.2,0.1-0.5,0.2-0.7,0.3c-0.1,0.1-0.3,0.1-0.4,0.2
			c-0.2,0.1-0.4,0.2-0.6,0.3c-0.1,0.1-0.2,0.1-0.4,0.2c-0.2,0.1-0.4,0.2-0.6,0.3c-0.1,0.1-0.2,0.1-0.3,0.2c-0.2,0.1-0.4,0.2-0.5,0.3
			c-0.1,0-0.2,0.1-0.3,0.1c-0.2,0.1-0.3,0.2-0.4,0.2c-0.1,0-0.2,0.1-0.2,0.1c-0.1,0.1-0.3,0.2-0.4,0.2c0,0-0.1,0.1-0.2,0.1
			c-0.2,0.1-0.3,0.2-0.4,0.3c0-0.1,0.1-0.3,0.1-0.5c0-0.1,0-0.1,0-0.2c0-0.1,0.1-0.3,0.1-0.4c0-0.1,0-0.2,0.1-0.3
			c0-0.2,0.1-0.3,0.1-0.5c0-0.1,0-0.2,0.1-0.4c0-0.2,0.1-0.4,0.1-0.6c0-0.1,0-0.3,0.1-0.4c0-0.2,0.1-0.4,0.1-0.7
			c0-0.1,0-0.3,0.1-0.4c0-0.3,0.1-0.6,0.1-0.9c0-0.1,0-0.3,0.1-0.4c0.1-0.4,0.1-0.8,0.2-1.2c0-0.2,0-0.4,0.1-0.5
			c0-0.3,0.1-0.6,0.1-0.9c0-0.2,0.1-0.5,0.1-0.7c0-0.3,0.1-0.5,0.1-0.8c0-0.2,0.1-0.5,0.1-0.7c0-0.3,0.1-0.5,0.1-0.8
			c0-0.3,0.1-0.5,0.1-0.8c0-0.3,0.1-0.5,0.1-0.8c0-0.3,0.1-0.6,0.1-0.9c0-0.2,0.1-0.5,0.1-0.7c0.2-1.3,0.3-2.6,0.5-3.9
			c0-0.1,0-0.2,0-0.3c0.1-0.5,0.1-1,0.2-1.4c0-0.1,0-0.1,0-0.2c0.9-8.1,1.8-16.4,2.4-20.3c0.7-5.3,2.4-16,3.7-24
			c-0.2-0.3-0.4-0.6-0.6-0.9c0,0.1,0,0.1,0,0.1s-2-2.3-4.1-6.9c-8.5-2.8-22.6-5.6-42.6-3.7c-26.3,2.5-37.5-21.7-37.5-21.7l-2.4,1.6
			l-14.1,9.8l-1.5,1.1c0,0,8.8,21.7,31.3,29.2c22.5,7.5,40.9,3.8,40.9,3.8L167,201.6c0,0,0.3,0.7,0.9,2c-0.8,0.7-1.7,1.4-2.5,2.2
			c0.9-0.8,1.7-1.5,2.5-2.2c3.7,8.3,19.1,40.4,40,61c17.4,17.1,41.5,27.9,53.6,32.7c-0.1,0.1-0.2,0.2-0.4,0.3
			c0.1-0.1,0.3-0.2,0.4-0.3c4.8,1.9,7.7,2.8,7.7,2.8l40.1-77.2c0,0,8.8,27.5,27.1,45.1c18.4,17.5,33,19.6,33,19.6l1.3-2.2l8.5-14.9
			l1.9-3.3c0,0-28.4-11.7-35.5-34.2c-6.5-20.5-3.6-35.9-9.7-46.3h0C336.1,186.9,336.3,187.3,336.5,187.7z M243.4,161.8
			c0.1-0.5,1.1-1.3,2.5-2.5c-0.5,2.6,7.7,17.7,7.7,19.1c0,0.4-1,1.3-2.5,2.3C250.5,178.6,242.8,164.3,243.4,161.8z M290.9,229.5
			c-1.8,0.6-31.3-9-32.7-10.3c-1.3-0.4-20-26.1-20-27.9c0-0.5,1-1.5,2.5-2.6c0,0,0,0,0,0.1c0,1.9,18.7,27.6,20,27.9
			c1.3,1.2,26,9.3,31.7,10.2C291.8,228.3,291.3,229.3,290.9,229.5z M317.2,215.4c-1.9,1.2-15-1.1-19.4-1.4c0.5-1.4,0.9-2.4,1.2-2.5
			c1.2-0.4,14.8,2.1,19.3,1.7C317.9,214.4,317.5,215.2,317.2,215.4z"/>
		<path class="st3" d="M258.2,219.2C258.1,219.2,258.1,219.2,258.2,219.2C258.1,219.2,258.2,219.2,258.2,219.2
			C258.2,219.2,258.2,219.2,258.2,219.2z"/>
		<path class="st2" d="M253.6,178.5c0-1.5-8.3-16.5-7.7-19.1c-1.4,1.1-2.4,2-2.5,2.5c-0.6,2.4,7.2,16.7,7.7,19
			C252.5,179.8,253.6,178.9,253.6,178.5z"/>
		<path class="st2" d="M260.6,216.7c-1.3-0.4-20-26.1-20-27.9c0,0,0,0,0-0.1c-1.5,1.1-2.5,2-2.5,2.6c0,1.9,18.7,27.6,20,27.9
			c0,0,0,0,0,0c0,0,0,0,0,0c0,0,0,0,0,0c1.4,1.3,31,10.9,32.7,10.3c0.4-0.1,0.9-1.1,1.4-2.6C286.7,225.9,262,217.9,260.6,216.7z"/>
		<path class="st2" d="M299.1,211.5c-0.3,0.1-0.8,1.1-1.2,2.5c4.3,0.3,17.5,2.6,19.4,1.4c0.3-0.2,0.7-1,1.2-2.2
			C313.8,213.6,300.3,211.1,299.1,211.5z"/>
		<path class="st3" d="M268.1,145.1c-0.1-0.3-0.3-0.5-0.4-0.8c-0.2,0.1-0.4,0.3-0.7,0.4c-0.6-0.2-1.2-0.4-1.9-0.7
			C266.2,144.4,267.2,144.7,268.1,145.1z"/>
		<path class="st2" d="M321.9,186.6C321.9,186.6,321.9,186.6,321.9,186.6c3.9,1.4,7.2,2.1,9.6,2c1.5-0.1,3.2-0.4,5-0.9
			c-0.2-0.4-0.4-0.8-0.6-1.1c-1,0.2-1.9,0.3-2.8,0.3c-2.2,0.1-5.1-0.5-8.6-1.7C323.7,185.6,322.8,186.1,321.9,186.6
			C321.9,186.6,321.9,186.6,321.9,186.6z"/>
		<path class="st2" d="M269.2,150.9c0,0,0,0,0-0.1c0.2,0.3,0.4,0.6,0.6,0.9c0.2-1.1,0.3-2.1,0.5-3.1c0,0,0,0,0,0c0,0,0,0,0,0
			c-0.5-0.7-1.3-1.8-2.2-3.4c-0.9-0.4-1.9-0.7-3-1.1c0,0,0,0,0,0l0,0C267.1,148.6,269.2,150.9,269.2,150.9z"/>
		<path class="st6" d="M270.5,211.3c-0.2,0.1-0.4,0.2-0.7,0.3C270.1,211.6,270.3,211.4,270.5,211.3z"/>
		<path class="st6" d="M263.5,197.5c0.1-0.5,0.1-1,0.2-1.4C263.6,196.6,263.6,197,263.5,197.5z"/>
		<path class="st6" d="M261,215.7c0-0.1,0-0.1,0-0.2C261.1,215.6,261.1,215.7,261,215.7z"/>
		<path class="st6" d="M266.7,213.2c-0.1,0.1-0.3,0.1-0.4,0.2C266.4,213.3,266.5,213.3,266.7,213.2z"/>
		<path class="st6" d="M261.9,211c0-0.1,0-0.3,0.1-0.4C261.9,210.7,261.9,210.8,261.9,211z"/>
		<path class="st6" d="M262.1,209.3c0-0.2,0-0.4,0.1-0.5C262.1,209,262.1,209.2,262.1,209.3z"/>
		<path class="st6" d="M262.5,206.4c0-0.2,0.1-0.5,0.1-0.7C262.5,205.9,262.5,206.2,262.5,206.4z"/>
		<path class="st6" d="M267.9,212.6c-0.2,0.1-0.3,0.2-0.5,0.2C267.6,212.8,267.7,212.7,267.9,212.6z"/>
		<path class="st6" d="M262.3,207.9c0-0.2,0.1-0.5,0.1-0.7C262.3,207.5,262.3,207.7,262.3,207.9z"/>
		<path class="st6" d="M261.3,214.3c0-0.1,0-0.2,0.1-0.4C261.4,214.1,261.4,214.2,261.3,214.3z"/>
		<path class="st6" d="M264.5,214.2c-0.1,0.1-0.2,0.1-0.4,0.2C264.3,214.4,264.4,214.3,264.5,214.2z"/>
		<path class="st6" d="M261.7,212.3c0-0.1,0-0.3,0.1-0.4C261.7,212,261.7,212.1,261.7,212.3z"/>
		<path class="st6" d="M261.5,213.4c0-0.1,0-0.3,0.1-0.4C261.5,213.1,261.5,213.2,261.5,213.4z"/>
		<path class="st6" d="M265.5,213.7c-0.1,0.1-0.3,0.1-0.4,0.2C265.3,213.9,265.4,213.8,265.5,213.7z"/>
		<path class="st6" d="M262.8,215.2c-0.1,0-0.2,0.1-0.3,0.1C262.6,215.3,262.7,215.2,262.8,215.2z"/>
		<path class="st6" d="M262.7,204.9c0-0.3,0.1-0.5,0.1-0.8C262.7,204.4,262.7,204.6,262.7,204.9z"/>
		<path class="st6" d="M263,201.8c0.2-1.3,0.3-2.6,0.5-3.9C263.3,199.2,263.2,200.5,263,201.8z"/>
		<path class="st6" d="M263.6,214.7c-0.1,0.1-0.2,0.1-0.3,0.2C263.4,214.8,263.5,214.8,263.6,214.7z"/>
		<path class="st6" d="M269.2,212c-0.2,0.1-0.4,0.2-0.6,0.3C268.8,212.2,269,212.1,269.2,212z"/>
		<path class="st6" d="M261.2,215.1c0-0.1,0-0.2,0.1-0.3C261.2,214.9,261.2,215,261.2,215.1z"/>
		<path class="st6" d="M273.5,210c-0.4,0.2-0.7,0.3-1.1,0.5C272.8,210.3,273.1,210.1,273.5,210z"/>
		<path class="st6" d="M272,210.7c-0.3,0.1-0.5,0.3-0.8,0.4C271.4,210.9,271.7,210.8,272,210.7z"/>
		<path class="st6" d="M262.9,203.3c0-0.3,0.1-0.6,0.1-0.9C262.9,202.7,262.9,203,262.9,203.3z"/>
		<path class="st6" d="M261.5,215.9c0,0-0.1,0.1-0.2,0.1C261.4,215.9,261.4,215.9,261.5,215.9z"/>
		<path class="st6" d="M261.8,215.7c0.1,0,0.1-0.1,0.2-0.1C262,215.6,261.9,215.6,261.8,215.7z"/>
		<path class="st6" d="M269.8,151.7c0.2-1.1,0.3-2.1,0.5-3.1C270.1,149.5,269.9,150.6,269.8,151.7c-1.3,7.9-2.9,18.6-3.7,23.9
			c-0.5,3.9-1.4,12.2-2.4,20.3c0.1-0.8,0.2-1.7,0.3-2.5c4.6-2.6,12.2-7,12.9-7.7c0.9-1-1.8-10.7-0.5-12.6c1.3-1.9,15.5-1.3,17.3,0
			c1.8,1.3,3.5,13.4,2.2,15c-1.3,1.7-9.4,1.3-10.1,1.8c-0.5,0.4-4.7,12.4-6.5,17.4c-2,0.9-4,1.8-5.9,2.7c8.9-4.1,20-9.1,24.5-11.3
			c5.3-2.6,16.8-8.4,23.9-12.1c0,0,0,0,0,0C305.1,180.7,277.6,163,269.8,151.7z"/>
		<path class="st6" d="M270.3,148.5C270.3,148.5,270.3,148.5,270.3,148.5C270.3,148.5,270.3,148.5,270.3,148.5L270.3,148.5z"/>
		<path class="st7" d="M272.5,151.4c-0.6-0.8-1.2-1.6-1.6-2.3c0,0.1,0,0.1,0,0.1s-0.2-0.2-0.6-0.7c0,0,0,0,0,0c0,0,0,0,0,0
			c-0.2,1-0.3,2-0.5,3.1c7.8,11.3,35.3,29,52.1,34.9c0,0,0,0,0,0c1-0.5,1.8-0.9,2.6-1.3C308.5,179.9,281.6,163,272.5,151.4
			C272.5,151.4,272.5,151.4,272.5,151.4C272.5,151.4,272.5,151.4,272.5,151.4z"/>
		<path class="st8" d="M385.8,144.3c0.2-0.5,0.5-1.1,0.7-1.6c0,0,0,0,0,0C386.3,143.2,386,143.8,385.8,144.3z"/>
		<path class="st8" d="M385.3,145.3c-0.6-0.2-1.3-0.5-1.9-0.8c-24.5-10-33.8-33.1-47.2-37.8c-13.4-4.7-22.7,7.4-22.7,7.4
			s0-2.9-0.9-6.3c-1.4,1.3-2.1,2.3-2.1,2.3s0.1-5.2-2.2-9.7c-0.8-0.7-1.8-1.4-3-1.8c-8.3-3.4-15.6-1.2-20.6,7.3
			c-5,8.5,2.9,16.5,2.9,16.5s-7.7,3.4-10.7,11.8c-2.8,7.7-3.1,17.5-3.1,19c-0.5-0.5-0.9-1.1-1.4-1.6c9.2,11.6,36,28.5,52,33.8
			c3.5,1.2,6.5,1.8,8.6,1.7c0.9,0,1.8-0.2,2.8-0.3h0C349.7,184,374.7,167.9,385.3,145.3z M312.4,168.5c-2.2-3.7,0.3-9.3,5.5-12.5
			c5.3-3.2,11.4-2.7,13.6,1c2.2,3.7-0.3,9.3-5.5,12.5C320.7,172.7,314.7,172.3,312.4,168.5z M326.7,137.1c2.1-2.7,4.8-4.2,5.8-3.3
			c1.1,0.9,0.2,3.7-1.9,6.5c-2.1,2.7-4.8,4.2-5.8,3.3C323.7,142.7,324.6,139.8,326.7,137.1z M337.9,122.8c-3.1-1-8.4-0.3-10.8,2
			c-0.9,0.9-2.4-0.5-1.4-1.4c2.9-2.8,8.9-3.7,12.7-2.5C339.7,121.3,339.1,123.2,337.9,122.8z M353.1,154.2c-2.1,2.7-4.8,4.2-5.8,3.3
			c-1.1-0.9-0.2-3.7,1.9-6.5c2.1-2.7,4.8-4.2,5.8-3.3C356.1,148.6,355.3,151.5,353.1,154.2z M367.6,147.9c0-3.3-3.3-7.6-6.1-9.1
			c-1.1-0.6-0.1-2.3,1-1.7c3.5,1.8,7.1,6.8,7.1,10.8C369.6,149.2,367.6,149.2,367.6,147.9z"/>
		<path class="st8" d="M270.8,148.6c0,0.2,0,0.3,0,0.4c0.5,0.7,1,1.5,1.6,2.3C272,150.7,271.4,149.8,270.8,148.6z"/>
		<path class="st5" d="M380.4,140.5c-24.5-10-33.8-33.1-47.2-37.8c-9.6-3.4-17.1,1.9-20.6,5.1c0.9,3.4,0.9,6.3,0.9,6.3
			s9.3-12.1,22.7-7.4c13.4,4.7,22.7,27.8,47.2,37.8c0.6,0.3,1.3,0.5,1.9,0.8l0,0c0.2-0.3,0.3-0.6,0.4-1c0.2-0.5,0.5-1.1,0.7-1.6
			C384.5,142.1,382.5,141.3,380.4,140.5z"/>
		<path class="st5" d="M302.3,94.5c-8.3-3.4-15.6-1.2-20.6,7.3c-5,8.5,2.9,16.5,2.9,16.5s-7.7,3.4-10.7,11.8
			c-2.6,7.2-3,16.3-3.1,18.6c0.6,1.1,1.2,2,1.6,2.7c0,0,0,0,0,0c0,0,0,0,0,0c0.4,0.5,0.9,1.1,1.4,1.6c0-1.5,0.4-11.3,3.1-19
			c3-8.3,10.7-11.8,10.7-11.8s-7.9-8-2.9-16.5c5-8.5,12.2-10.7,20.6-7.3c1.1,0.5,2.1,1.1,3,1.8C307.1,97.9,305.2,95.7,302.3,94.5z"
			/>
		<path class="st9" d="M268.1,145.1c0.9,1.6,1.7,2.8,2.2,3.4l0,0c0.3,0.5,0.6,0.7,0.6,0.7s0,0,0-0.1c0-0.1,0-0.2,0-0.4
			c0.1-2.3,0.5-11.4,3.1-18.6c3-8.3,10.7-11.8,10.7-11.8s-7.9-8-2.9-16.5c5-8.5,12.2-10.7,20.6-7.3c2.9,1.2,4.8,3.4,6,5.8
			c2.3,4.5,2.2,9.7,2.2,9.7s0.8-1,2.1-2.3c3.5-3.3,11-8.5,20.6-5.1c13.4,4.7,22.7,27.8,47.2,37.8c2.1,0.8,4.1,1.6,6.1,2.2
			c0,0,0,0,0,0c21.5,6.8,37.7,1.7,37.7,1.7s-12.5-0.6-13.2-7.8c6.3,4.2,18.5-4.3,18.5-4.3s-15.2-1.1-22.8-14.3
			c-7.6-13.2-7.9-38-35.2-49.6c-27.3-11.7-50.1,1.7-50.1,1.7s-4.6-8.2-22.8-3.8s-34.8,27.7-36.2,49.9c-0.8,13.6,2.4,22.9,5.1,28.1
			C267.8,144.5,267.9,144.8,268.1,145.1z"/>
		<path class="st10" d="M285.8,189.8c0.7-0.6,8.8-0.1,10.1-1.8c1.3-1.7-0.4-13.8-2.2-15c-1.8-1.3-16.1-1.8-17.3,0
			c-1.3,1.9,1.5,11.6,0.5,12.6c-0.7,0.7-8.3,5.1-12.9,7.7c-0.1,0.8-0.2,1.7-0.3,2.5c0,0.1,0,0.1,0,0.2c-0.1,0.5-0.1,1-0.2,1.4
			c0,0.1,0,0.2,0,0.3c-0.2,1.3-0.3,2.6-0.5,3.9c0,0.2-0.1,0.5-0.1,0.7c0,0.3-0.1,0.6-0.1,0.9c0,0.3-0.1,0.5-0.1,0.8
			c0,0.3-0.1,0.5-0.1,0.8c0,0.3-0.1,0.5-0.1,0.8c0,0.3-0.1,0.5-0.1,0.7c0,0.3-0.1,0.5-0.1,0.8c0,0.2-0.1,0.5-0.1,0.7
			c0,0.3-0.1,0.6-0.1,0.9c0,0.2,0,0.4-0.1,0.5c-0.1,0.4-0.1,0.8-0.2,1.2c0,0.2,0,0.3-0.1,0.4c0,0.3-0.1,0.6-0.1,0.9
			c0,0.1,0,0.3-0.1,0.4c0,0.2-0.1,0.5-0.1,0.7c0,0.1,0,0.3-0.1,0.4c0,0.2-0.1,0.4-0.1,0.6c0,0.1,0,0.2-0.1,0.4
			c0,0.2-0.1,0.3-0.1,0.5c0,0.1,0,0.2-0.1,0.3c0,0.2-0.1,0.3-0.1,0.4c0,0.1,0,0.1,0,0.2c0,0.2-0.1,0.4-0.1,0.5
			c0.1-0.1,0.2-0.2,0.4-0.3c0,0,0.1-0.1,0.2-0.1c0.1-0.1,0.2-0.1,0.4-0.2c0.1,0,0.1-0.1,0.2-0.1c0.1-0.1,0.3-0.2,0.4-0.2
			c0.1,0,0.2-0.1,0.3-0.1c0.2-0.1,0.3-0.2,0.5-0.3c0.1-0.1,0.2-0.1,0.3-0.2c0.2-0.1,0.4-0.2,0.6-0.3c0.1-0.1,0.2-0.1,0.4-0.2
			c0.2-0.1,0.4-0.2,0.6-0.3c0.1-0.1,0.3-0.1,0.4-0.2c0.2-0.1,0.5-0.2,0.7-0.3c0.1-0.1,0.3-0.1,0.4-0.2c0.2-0.1,0.5-0.2,0.7-0.4
			c0.2-0.1,0.3-0.2,0.5-0.2c0.2-0.1,0.5-0.2,0.7-0.3c0.2-0.1,0.4-0.2,0.6-0.3c0.2-0.1,0.5-0.2,0.7-0.3c0.2-0.1,0.4-0.2,0.7-0.3
			c0.2-0.1,0.4-0.2,0.6-0.3c0.3-0.1,0.5-0.3,0.8-0.4c0.1-0.1,0.3-0.1,0.4-0.2c0.4-0.2,0.7-0.3,1.1-0.5c0,0,0,0,0,0
			c1.9-0.9,3.9-1.8,5.9-2.7C281.1,202.2,285.3,190.2,285.8,189.8z"/>
		
			<ellipse transform="matrix(0.7834 0.6215 -0.6215 0.7834 157.3401 -174.238)" class="st3" cx="328.7" cy="138.6" rx="2.5" ry="6.3"/>
		
			<ellipse transform="matrix(-0.7834 -0.6215 0.6215 -0.7834 531.413 490.4488)" class="st3" cx="351.2" cy="152.6" rx="2.5" ry="6.3"/>
		<path class="st3" d="M338.4,120.9c-3.8-1.2-9.8-0.3-12.7,2.5c-0.9,0.9,0.5,2.3,1.4,1.4c2.4-2.3,7.7-2.9,10.8-2
			C339.1,123.2,339.7,121.3,338.4,120.9z"/>
		<path class="st3" d="M362.5,137.1c-1.1-0.6-2.2,1.1-1,1.7c2.9,1.5,6.1,5.8,6.1,9.1c0,1.3,2,1.3,2,0
			C369.6,143.9,366,139,362.5,137.1z"/>
		
			<ellipse transform="matrix(0.5148 0.8573 -0.8573 0.5148 295.7844 -197.0618)" class="st3" cx="322" cy="162.8" rx="7.8" ry="11.2"/>
	</g>
	<path class="st11" d="M632.1,93.7c-28.1-37.7-66.7-34.1-74.2-34.1s-46.1-3.6-74.2,34.1c-15.3,20.6-28,39.4,9.1,108.4
		c37.1,69,33.4,106.1,33.4,106.1l31.8-7.6l31.8,7.6c0,0-3.8-37.1,33.4-106.1C660.1,133.1,647.4,114.2,632.1,93.7z"/>
	<g>
		<path class="st6" d="M547,300.2c5.5-25.4,3.5-51.1-3-76.2c-2.6-10-5.9-19.8-9.2-29.6c-2.3-6.8-5-13.9-5.7-21.1
			c-0.3-3.5,0.2-7.6,2.4-10.4c2.9-3.6,7.6-2,10.8,0.1c3.8,2.5,6.1,7.1,6.1,11.5c0,1.3-2.2-2.4-2.1-2.3c-0.4-1.2-0.5-2.5-0.6-3.7
			c-0.2-2.8,0.4-5.4,2.3-7.5c3-3.4,8.5-1.4,11.8,0.5c4.1,2.3,7.6,6.5,7.7,11.3c0,1.7-1.8,0-2.3-0.5c-1.5-1.5-1.2-3.9-0.7-5.8
			c2.1-6.9,8.3-7.2,13.1-3.2c7.8,6.6,7.8,15.8,5.8,24.9c-2,8.9-5.1,17.5-7.6,26.3c-8,27.4-10.9,55.4-8.1,83.8c0.3,3.2,5.3,3.2,5,0
			c-2.4-24.9-0.6-49.7,5.6-73.9c3.7-14.3,9.9-28.4,11.3-43.2c0.8-7.9-2.2-15-7.7-20.6c-5.4-5.6-14.2-7.4-19.4-0.5
			c-4,5.3-5.6,15.2,2.4,18c7.5,2.7,8.4-6.4,6.2-11.3c-3.2-7.1-10.8-12.2-18.5-12.5c-8.6-0.4-12.4,8-11.9,15.4
			c0.2,3.1,1.2,7.8,4.3,9.4c2.8,1.4,7,1.8,7.9-2.1c1.9-7.7-3.3-15.5-9.8-19.3c-6.3-3.7-13.8-1.9-17.2,4.6c-3.1,5.8-2,12.8-0.5,18.9
			c4.7,19.2,12.6,37.3,16.6,56.7c4.1,20.2,4.5,40.9,0.1,61.1C541.5,302,546.3,303.3,547,300.2L547,300.2z"/>
	</g>
	<path class="st6" d="M624.3,102c16.9,25.1,7.3,51.6,4.1,49.8c-3.2-0.7-0.6-23.4-14.3-43c-12.9-20.2-34.8-26.5-34.3-29.7
		C579.5,75.5,607.6,76.8,624.3,102z"/>
	
		<ellipse transform="matrix(0.9711 0.2388 -0.2388 0.9711 57.5949 -144.6214)" class="st6" cx="625.7" cy="165.4" rx="3.2" ry="7.7"/>
	<path class="st3" d="M701.4,245.2c0-7.4-6-13.4-13.4-13.4c-7.4,0-13.4,6-13.4,13.4c0,3.4,1.3,6.5,3.4,8.8
		c-3.9,10.1-8,20.1-11.7,30.2c-13.4,0.8-26.8,1.8-40.3,2.7c-2.6-5.2-7.9-8.8-14.1-8.8H503.8c-5.2,0-9.9,2.6-12.7,6.5
		c-24.8-0.5-49.6-2-74.4-3c-2-4.9-6.8-8.4-12.4-8.4c-7.4,0-13.4,6-13.4,13.4s6,13.4,13.4,13.4c4.6,0,8.6-2.3,11-5.8
		c24.3,1,48.7,2.5,73.1,3c1.5,7.2,7.8,12.6,15.4,12.6h5.1c-7,1.6-12.1,7.9-12.1,15.3c0,8.7,7.1,15.8,15.8,15.8h12.8
		c0.5,9.8,5.3,18.5,12.5,24.2c-0.8,2.5-1.7,5.1-2.6,7.6c-1.1,3.2-2.3,6.4-3.6,9.5c-0.7,1.6-1.4,3.1-2.2,4.6c-0.3,0.6-0.7,1.3-1,1.9
		c0,0.1-0.4,0.7-0.6,0.9c-0.2,0.2-0.4,0.3-0.6,0.4c-1.5,0.6-3.2,0.9-4.8,1.1c-4.3,0.7-8.8,0.5-13.1,0.5c-10.2,0-20.4-0.3-30.6,0.1
		c-2.4-3.5-6.4-5.8-11-5.8c-7.4,0-13.4,6-13.4,13.4c0,7.4,6,13.4,13.4,13.4c5.6,0,10.4-3.5,12.4-8.4c10.6-0.3,21.2,0,31.9,0
		c7.7-0.1,18,0.3,24.2-5.2c5.1-4.6,7.5-13.1,9.8-19.3c1.1-3,2.2-6,3.2-9c2.8,0.8,5.7,1.2,8.7,1.2c5.7,0,11-1.4,15.6-4
		c11.3,1.2,22.6,2.6,33.8,4c-0.1,0.4-0.2,0.9-0.3,1.3c-0.8,3.9-1.7,7.8-2.6,11.6c-1,4.5-2.1,9-3.1,13.5c-4.6,2.1-7.8,6.7-7.8,12.2
		c0,7.4,6,13.4,13.4,13.4c7.4,0,13.4-6,13.4-13.4c0-4.7-2.5-8.9-6.2-11.2c2.6-10.8,5.7-21.7,6.9-32.7c0.4-3.7-3.2-5.9-6.3-6.3
		c-9.7-1.1-19.5-2.3-29.2-3.5c2.9-4.6,4.7-10.1,5-15.9h12.8c8.7,0,15.8-7.1,15.8-15.8c0-7.5-5.2-13.7-12.1-15.3h5.1
		c6.8,0,12.5-4.3,14.7-10.2c14.7-1,29.4-2,44.1-3c3-0.2,5-1.8,6-4.6c4-11.3,8.5-22.4,12.9-33.5C696.3,257.6,701.4,252,701.4,245.2z"
		/>
	<g>
		<path class="st12" d="M152.3,111.7c0.5,0.5,1.2,0.5,1.7,0.1l18.2-17.2c0.5-0.5,0.5-1.2,0.1-1.7l-3.9-4.1l-20,18.9L152.3,111.7z"/>
		<path class="st2" d="M127.4,127.4l17.7-16.7l3.9,4.1c2.2,2.3,5.9,2.4,8.2,0.2l18.2-17.2c2.3-2.2,2.4-5.9,0.2-8.2l-3.9-4.1
			l17.7-16.7c1.8-1.7,1.9-4.6,0.2-6.5l-38-40.4c-1.7-1.8-4.6-1.9-6.5-0.2L83.1,80.3c-1.8,1.7-1.9,4.6-0.2,6.5l38,40.4
			C122.7,129,125.6,129.1,127.4,127.4z M172.4,92.8c0.5,0.5,0.4,1.3-0.1,1.7l-18.2,17.2c-0.5,0.5-1.3,0.4-1.7-0.1l-3.9-4.1l20-18.9
			L172.4,92.8z"/>
	</g>
	<circle class="st6" cx="254.1" cy="225.2" r="2.9"/>
	<circle class="st6" cx="240.8" cy="241.6" r="2.9"/>
	<circle class="st6" cx="227.2" cy="257.5" r="2.9"/>
	<path class="st6" d="M38,171.7c9.1,12.9,18.3,25.8,27.4,38.7c23.1-16.4,43.2-36.7,59.4-59.9c-13-9-25.9-18.1-38.9-27.1
		C72.9,142.2,56.7,158.5,38,171.7z"/>
	<path class="st7" d="M78.3,149c-3.6-1-7.2-1.9-10.8-2.9c-8.9,9.5-18.8,18-29.4,25.6c6.8,9.5,13.5,19.1,20.3,28.6
		C66.9,184.1,73.6,166.9,78.3,149z"/>
	<path class="st6" d="M0,195.7c13,9,26,18,39,26.9c16.1-23.3,28-49.3,35.3-76.7c-15.3-4-30.6-8.1-45.9-12.1
		C22.6,156,13,176.9,0,195.7z"/>
	<g>
		<line class="st13" x1="222.7" y1="359.2" x2="224.7" y2="359.2"/>
		<line class="st14" x1="228.7" y1="359.2" x2="450.7" y2="359.2"/>
		<line class="st13" x1="452.7" y1="359.2" x2="454.7" y2="359.2"/>
	</g>
	<g>
		<line class="st13" x1="317.7" y1="377.2" x2="319.7" y2="377.2"/>
		<line class="st15" x1="323.7" y1="377.2" x2="450.7" y2="377.2"/>
		<line class="st13" x1="452.7" y1="377.2" x2="454.7" y2="377.2"/>
	</g>
	<g>
		<path class="st13" d="M233.6,76.9c0,0,0-0.7,0.2-2"/>
		<path class="st16" d="M234.9,71c2-5.8,6.9-15.1,19.3-24.4c13.7-10.3,24.3-11.5,29.7-11.1"/>
		<path class="st13" d="M285.9,35.6c1.3,0.2,1.9,0.4,1.9,0.4"/>
	</g>
	<g>
		<path class="st13" d="M58.6,119.2c0,0-0.5-0.5-1.1-1.6"/>
		<path class="st16" d="M55.6,114c-2.4-5.6-5-15.8-2.1-31.1C56.7,66.1,63.7,58.1,68,54.7"/>
		<path class="st13" d="M69.6,53.5c1.1-0.7,1.7-1,1.7-1"/>
	</g>
	<g>
		<path class="st13" d="M427.3,74c0,0,0.7,0.2,1.8,0.8"/>
		<path class="st17" d="M432.5,76.8c3.9,2.8,9.1,8.1,13.2,17.9c4.7,11.1,4,18.8,2.9,23"/>
		<path class="st13" d="M448,119.6c-0.5,1.2-0.9,1.8-0.9,1.8"/>
	</g>
	<g>
		<path class="st13" d="M107.2,359.3c0,0-0.7,0.1-2,0.1"/>
		<path class="st18" d="M101.2,358.9c-4.6-1-11.6-3.7-19.3-11c-8.8-8.3-11.3-15.6-12-19.8"/>
		<path class="st13" d="M69.7,326c-0.1-1.3,0.1-2,0.1-2"/>
	</g>
	<path class="st2" d="M525.7,344.3H590c0.2-1.3,0.4-2.6,0.4-3.9h-65.1C525.3,341.7,525.5,343,525.7,344.3z"/>
	<path class="st2" d="M613.5,313.2c-2.8-2.4-6.4-3.9-10.3-3.9h-90.7c-3.9,0-7.6,1.5-10.3,3.9c0.5,0.1,1,0.1,1.6,0.1H612
		C612.5,313.2,613,313.2,613.5,313.2z"/>
</g>
</svg>
