<?xml version="1.0" encoding="utf-8"?>
<!-- Generator: Adobe Illustrator 19.1.0, SVG Export Plug-In . SVG Version: 6.00 Build 0)  -->
<svg version="1.1" id="Layer_1" xmlns="http://www.w3.org/2000/svg" xmlns:xlink="http://www.w3.org/1999/xlink" x="0px" y="0px"
	 viewBox="-147 248 315.6 298" style="enable-background:new -147 248 315.6 298;" xml:space="preserve">
<style type="text/css">
	.st0{fill:#D2D4D4;}
	.st1{opacity:0.68;fill:url(#SVGID_1_);enable-background:new    ;}
	.st2{opacity:0.68;}
	.st3{fill:url(#SVGID_2_);}
	.st4{fill:url(#SVGID_3_);}
	.st5{fill:url(#SVGID_4_);}
	.st6{fill:url(#SVGID_5_);}
	.st7{fill:url(#SVGID_6_);}
	.st8{fill:url(#SVGID_7_);}
	.st9{fill:url(#SVGID_8_);}
	.st10{fill:url(#SVGID_9_);}
	.st11{fill:url(#SVGID_10_);}
	.st12{fill:url(#SVGID_11_);}
	.st13{fill:url(#SVGID_12_);}
	.st14{fill:url(#SVGID_13_);}
	.st15{fill:url(#SVGID_14_);}
	.st16{fill:url(#SVGID_15_);}
	.st17{fill:url(#SVGID_16_);}
	.st18{fill:url(#SVGID_17_);}
	.st19{fill:url(#SVGID_18_);}
	.st20{fill:url(#SVGID_19_);}
	.st21{fill:url(#SVGID_20_);}
	.st22{fill:url(#SVGID_21_);}
	.st23{fill:url(#SVGID_22_);}
	.st24{fill:url(#SVGID_23_);}
	.st25{fill:url(#SVGID_24_);}
	.st26{fill:url(#SVGID_25_);}
	.st27{fill:url(#SVGID_26_);}
	.st28{fill:url(#SVGID_27_);}
	.st29{fill:url(#SVGID_28_);}
	.st30{fill:url(#SVGID_29_);}
	.st31{fill:url(#SVGID_30_);}
	.st32{fill:url(#SVGID_31_);}
	.st33{fill:url(#SVGID_32_);}
	.st34{opacity:0.36;fill:url(#SVGID_33_);enable-background:new    ;}
	.st35{fill:#4E4E4E;}
	.st36{fill:#E5E5E5;}
	.st37{fill:#F0D3A6;}
	.st38{fill:#82493B;}
	.st39{fill:#303030;}
	.st40{fill:#FDFDFD;}
	.st41{fill:#009E8F;}
	.st42{fill:#EFC997;}
	.st43{fill:#FFFFFF;}
	.st44{fill:url(#SVGID_34_);}
	.st45{fill:url(#SVGID_35_);}
	.st46{fill:#B8B9BA;}
	.st47{fill:#F0F0F0;}
	.st48{fill:#87B8BC;}
	.st49{fill:#CD602E;}
	.st50{fill:#DDAC49;}
	.st51{fill:#8D8F92;}
	.st52{fill:#BCBEBF;}
	.st53{opacity:0.36;fill:url(#SVGID_36_);enable-background:new    ;}
	.st54{fill:#4F5052;}
	.st55{fill:#CCCCCC;}
	.st56{opacity:0.36;fill:url(#SVGID_37_);enable-background:new    ;}
	.st57{fill:#A3A3A3;}
	.st58{opacity:0.4;}
	.st59{opacity:0.36;fill:url(#SVGID_38_);enable-background:new    ;}
	.st60{fill:#342B1E;}
	.st61{fill:#C6CED7;}
	.st62{fill:#AAB6C1;}
	.st63{fill:#E6E5E3;}
	.st64{fill:#BED3ED;}
	.st65{fill:#53729D;}
	.st66{fill:#6D8AB1;}
	.st67{fill:#86A1C5;}
	.st68{fill:#A2BBD9;}
	.st69{fill:#E8B6B1;}
	.st70{fill:#CE6565;}
	.st71{fill:#DB8383;}
	.st72{fill:#E29696;}
	.st73{fill:#DDA29A;}
	.st74{fill:#E28B33;}
	.st75{opacity:0.36;fill:url(#SVGID_39_);enable-background:new    ;}
	.st76{fill:#E8C08B;}
	.st77{opacity:0.36;fill:url(#SVGID_40_);enable-background:new    ;}
	.st78{fill:#FFEC00;}
	.st79{fill:#925B48;}
	.st80{fill:#C97945;}
	.st81{fill:#D77A2F;}
	.st82{opacity:0.36;fill:url(#SVGID_41_);enable-background:new    ;}
	.st83{fill:#977C59;}
	.st84{fill:#D0B68E;}
	.st85{fill:#C7B186;}
	.st86{fill:#AA916D;}
	.st87{fill:#7A6147;}
	.st88{fill:#EBD5AD;}
	.st89{fill:#413223;}
	.st90{fill:#81694F;}
	.st91{fill:#FBF285;}
	.st92{fill:#7F7F7F;}
	.st93{opacity:0.2;fill:#FFFFFF;enable-background:new    ;}
</style>
<rect x="-1357" y="117.2" class="st0" width="800" height="800"/>
<g>
	
		<linearGradient id="SVGID_1_" gradientUnits="userSpaceOnUse" x1="-1339.5" y1="277.2758" x2="-539.5" y2="277.2758" gradientTransform="matrix(1 0 0 -1 0 796)">
		<stop  offset="0" style="stop-color:#2E95AA"/>
		<stop  offset="0.9903" style="stop-color:#007E97"/>
	</linearGradient>
	<rect x="-1339.5" y="118.7" class="st1" width="800" height="800"/>
</g>
<g id="LOGO">
	<g class="st2">
		<g>
			
				<linearGradient id="SVGID_2_" gradientUnits="userSpaceOnUse" x1="-1076.176" y1="-94.9" x2="-1066.0228" y2="-94.9" gradientTransform="matrix(1 0 0 -1 0 796)">
				<stop  offset="0" style="stop-color:#2E95AA"/>
				<stop  offset="0.9903" style="stop-color:#007E97"/>
			</linearGradient>
			<path class="st3" d="M-1068.5,896.5v-0.3c-0.3,0.4-0.7,0.7-1,1c-0.3,0.3-0.7,0.4-1.1,0.6c-0.4,0.1-0.8,0.2-1.3,0.2
				c-0.6,0-1.2-0.1-1.7-0.4s-1-0.6-1.4-1.1s-0.7-1.1-0.9-1.7c-0.2-0.7-0.3-1.4-0.3-2.1c0-1.6,0.4-2.9,1.2-3.8
				c0.8-0.9,1.8-1.4,3.1-1.4c0.7,0,1.4,0.1,1.9,0.4c0.5,0.3,1,0.7,1.5,1.2v-3.8c0-0.5,0.1-0.9,0.3-1.2c0.2-0.3,0.5-0.4,0.9-0.4
				s0.7,0.1,0.9,0.4c0.2,0.3,0.3,0.6,0.3,1.1v11.4c0,0.5-0.1,0.9-0.3,1.1c-0.2,0.2-0.5,0.4-0.9,0.4s-0.6-0.1-0.9-0.4
				C-1068.4,897.4-1068.5,897-1068.5,896.5z M-1073.6,892.7c0,0.7,0.1,1.3,0.3,1.8c0.2,0.5,0.5,0.9,0.9,1.1c0.4,0.3,0.8,0.4,1.2,0.4
				c0.5,0,0.9-0.1,1.2-0.4c0.4-0.2,0.7-0.6,0.9-1.1c0.2-0.5,0.3-1.1,0.3-1.8c0-0.7-0.1-1.3-0.3-1.8c-0.2-0.5-0.5-0.9-0.9-1.1
				c-0.4-0.3-0.8-0.4-1.3-0.4s-0.9,0.1-1.3,0.4c-0.4,0.3-0.7,0.7-0.9,1.2C-1073.5,891.5-1073.6,892-1073.6,892.7z"/>
			
				<linearGradient id="SVGID_3_" gradientUnits="userSpaceOnUse" x1="-1064.76" y1="-96.7" x2="-1054.9016" y2="-96.7" gradientTransform="matrix(1 0 0 -1 0 796)">
				<stop  offset="0" style="stop-color:#2E95AA"/>
				<stop  offset="0.9903" style="stop-color:#007E97"/>
			</linearGradient>
			<path class="st4" d="M-1057,893.4h-5.1c0,0.6,0.1,1.1,0.4,1.6c0.2,0.5,0.5,0.8,0.9,1c0.4,0.2,0.8,0.3,1.3,0.3
				c0.3,0,0.6,0,0.8-0.1c0.3-0.1,0.5-0.2,0.7-0.3c0.2-0.2,0.5-0.3,0.7-0.5c0.2-0.2,0.5-0.4,0.8-0.7c0.1-0.1,0.3-0.2,0.6-0.2
				c0.3,0,0.5,0.1,0.6,0.2c0.2,0.1,0.2,0.4,0.2,0.6c0,0.2-0.1,0.5-0.3,0.8c-0.2,0.3-0.5,0.6-0.8,0.9c-0.4,0.3-0.8,0.5-1.4,0.7
				c-0.6,0.2-1.2,0.3-1.9,0.3c-1.7,0-3-0.5-3.9-1.4s-1.4-2.2-1.4-3.9c0-0.8,0.1-1.5,0.3-2.1c0.2-0.7,0.6-1.2,1-1.7s1-0.8,1.6-1.1
				c0.6-0.3,1.3-0.4,2.1-0.4c1,0,1.9,0.2,2.6,0.6c0.7,0.4,1.3,1,1.6,1.7c0.4,0.7,0.5,1.4,0.5,2.1s-0.2,1.1-0.6,1.3
				C-1055.8,893.3-1056.4,893.4-1057,893.4z M-1062.1,891.9h4.7c-0.1-0.9-0.3-1.6-0.7-2s-1-0.7-1.6-0.7s-1.2,0.2-1.6,0.7
				C-1061.8,890.4-1062,891-1062.1,891.9z"/>
			
				<linearGradient id="SVGID_4_" gradientUnits="userSpaceOnUse" x1="-1054.1135" y1="-96.7" x2="-1045.2241" y2="-96.7" gradientTransform="matrix(1 0 0 -1 0 796)">
				<stop  offset="0" style="stop-color:#2E95AA"/>
				<stop  offset="0.9903" style="stop-color:#007E97"/>
			</linearGradient>
			<path class="st5" d="M-1045.2,894.6c0,0.7-0.2,1.3-0.5,1.8c-0.3,0.5-0.9,0.9-1.5,1.2c-0.7,0.3-1.5,0.4-2.5,0.4
				c-0.9,0-1.7-0.1-2.4-0.4c-0.7-0.3-1.2-0.6-1.5-1.1c-0.3-0.4-0.5-0.9-0.5-1.3c0-0.3,0.1-0.5,0.3-0.7c0.2-0.2,0.5-0.3,0.8-0.3
				c0.3,0,0.5,0.1,0.6,0.2s0.3,0.3,0.4,0.6c0.3,0.5,0.6,0.8,1,1c0.4,0.2,0.9,0.3,1.5,0.3c0.5,0,0.9-0.1,1.3-0.3
				c0.3-0.2,0.5-0.5,0.5-0.8c0-0.5-0.2-0.8-0.5-1c-0.3-0.2-0.9-0.4-1.7-0.6c-0.9-0.2-1.6-0.5-2.2-0.7c-0.6-0.2-1-0.6-1.3-1
				c-0.3-0.4-0.5-0.9-0.5-1.5c0-0.5,0.2-1,0.5-1.5c0.3-0.5,0.8-0.8,1.4-1.1c0.6-0.3,1.3-0.4,2.2-0.4c0.7,0,1.3,0.1,1.8,0.2
				c0.5,0.1,1,0.3,1.3,0.6c0.4,0.2,0.6,0.5,0.8,0.8c0.2,0.3,0.3,0.6,0.3,0.8c0,0.3-0.1,0.5-0.3,0.7c-0.2,0.2-0.5,0.3-0.9,0.3
				c-0.3,0-0.5-0.1-0.7-0.2c-0.2-0.2-0.4-0.4-0.6-0.7c-0.2-0.3-0.4-0.5-0.7-0.6c-0.3-0.2-0.6-0.2-1.1-0.2s-0.9,0.1-1.2,0.3
				c-0.3,0.2-0.5,0.4-0.5,0.7c0,0.3,0.1,0.5,0.3,0.7c0.2,0.2,0.5,0.3,0.9,0.4c0.4,0.1,0.9,0.3,1.6,0.4c0.8,0.2,1.5,0.4,2,0.7
				c0.5,0.3,0.9,0.6,1.2,1C-1045.4,893.7-1045.2,894.1-1045.2,894.6z"/>
			
				<linearGradient id="SVGID_5_" gradientUnits="userSpaceOnUse" x1="-1043.8862" y1="-94.9" x2="-1041.2924" y2="-94.9" gradientTransform="matrix(1 0 0 -1 0 796)">
				<stop  offset="0" style="stop-color:#2E95AA"/>
				<stop  offset="0.9903" style="stop-color:#007E97"/>
			</linearGradient>
			<path class="st6" d="M-1042.6,886.3c-0.4,0-0.7-0.1-0.9-0.3c-0.3-0.2-0.4-0.5-0.4-0.9s0.1-0.7,0.4-0.9c0.3-0.2,0.6-0.4,0.9-0.4
				s0.6,0.1,0.9,0.3c0.3,0.2,0.4,0.5,0.4,0.9s-0.1,0.7-0.4,0.9C-1041.9,886.1-1042.2,886.3-1042.6,886.3z M-1041.3,888.9v7.5
				c0,0.5-0.1,0.9-0.4,1.2c-0.2,0.3-0.6,0.4-0.9,0.4c-0.4,0-0.7-0.1-0.9-0.4c-0.2-0.3-0.4-0.7-0.4-1.2V889c0-0.5,0.1-0.9,0.4-1.2
				c0.2-0.3,0.5-0.4,0.9-0.4s0.7,0.1,0.9,0.4C-1041.4,888.1-1041.3,888.5-1041.3,888.9z"/>
			
				<linearGradient id="SVGID_6_" gradientUnits="userSpaceOnUse" x1="-1040.0493" y1="-98.45" x2="-1029.934" y2="-98.45" gradientTransform="matrix(1 0 0 -1 0 796)">
				<stop  offset="0" style="stop-color:#2E95AA"/>
				<stop  offset="0.9903" style="stop-color:#007E97"/>
			</linearGradient>
			<path class="st7" d="M-1029.9,889.4v7.5c0,0.9-0.1,1.6-0.3,2.2c-0.2,0.6-0.5,1.1-0.9,1.5s-0.9,0.7-1.6,0.9
				c-0.7,0.2-1.5,0.3-2.4,0.3s-1.7-0.1-2.4-0.4c-0.7-0.3-1.2-0.6-1.6-1c-0.4-0.4-0.6-0.8-0.6-1.2c0-0.3,0.1-0.6,0.3-0.8
				c0.2-0.2,0.5-0.3,0.8-0.3c0.4,0,0.7,0.2,1,0.5c0.1,0.2,0.3,0.3,0.4,0.5c0.1,0.2,0.3,0.3,0.5,0.4c0.2,0.1,0.4,0.2,0.7,0.3
				c0.3,0.1,0.5,0.1,0.9,0.1c0.7,0,1.2-0.1,1.6-0.3c0.4-0.2,0.6-0.4,0.8-0.8c0.1-0.3,0.2-0.7,0.3-1.1c0-0.4,0-1,0.1-1.8
				c-0.4,0.6-0.9,1-1.4,1.3c-0.5,0.3-1.1,0.4-1.9,0.4c-0.9,0-1.6-0.2-2.3-0.7c-0.6-0.4-1.1-1.1-1.5-1.9c-0.3-0.8-0.5-1.7-0.5-2.8
				c0-0.8,0.1-1.5,0.3-2.1c0.2-0.6,0.5-1.2,0.9-1.6c0.4-0.4,0.8-0.8,1.4-1c0.5-0.2,1.1-0.3,1.7-0.3c0.7,0,1.4,0.1,1.9,0.4
				s1,0.7,1.5,1.3v-0.4c0-0.4,0.1-0.8,0.3-1c0.2-0.2,0.5-0.4,0.9-0.4c0.5,0,0.8,0.2,1,0.5C-1030,888.3-1029.9,888.7-1029.9,889.4z
				 M-1037.4,892.6c0,1.1,0.2,1.8,0.7,2.4c0.5,0.5,1.1,0.8,1.8,0.8c0.4,0,0.8-0.1,1.2-0.3c0.4-0.2,0.7-0.6,0.9-1
				c0.2-0.5,0.4-1,0.4-1.7c0-1.1-0.2-1.9-0.7-2.5s-1.1-0.9-1.8-0.9c-0.7,0-1.3,0.3-1.8,0.8C-1037.2,890.8-1037.4,891.6-1037.4,892.6
				z"/>
			
				<linearGradient id="SVGID_7_" gradientUnits="userSpaceOnUse" x1="-1028.2446" y1="-96.65" x2="-1019.0023" y2="-96.65" gradientTransform="matrix(1 0 0 -1 0 796)">
				<stop  offset="0" style="stop-color:#2E95AA"/>
				<stop  offset="0.9903" style="stop-color:#007E97"/>
			</linearGradient>
			<path class="st8" d="M-1025.8,888.9v0.3c0.5-0.6,1-1,1.5-1.3c0.5-0.3,1.2-0.4,1.9-0.4c0.7,0,1.3,0.1,1.8,0.4
				c0.5,0.3,0.9,0.7,1.2,1.3c0.2,0.3,0.3,0.7,0.3,1c0.1,0.4,0.1,0.8,0.1,1.4v4.8c0,0.5-0.1,0.9-0.4,1.2c-0.2,0.3-0.5,0.4-0.9,0.4
				s-0.7-0.1-0.9-0.4c-0.2-0.3-0.4-0.7-0.4-1.2v-4.3c0-0.9-0.1-1.5-0.4-2c-0.2-0.5-0.7-0.7-1.4-0.7c-0.5,0-0.9,0.1-1.3,0.4
				c-0.4,0.3-0.7,0.7-0.8,1.1s-0.2,1.1-0.2,2.2v3.2c0,0.5-0.1,0.9-0.4,1.2c-0.2,0.3-0.6,0.4-0.9,0.4c-0.4,0-0.7-0.1-0.9-0.4
				c-0.2-0.3-0.4-0.7-0.4-1.2v-7.5c0-0.5,0.1-0.9,0.3-1.1c0.2-0.2,0.5-0.4,0.9-0.4c0.2,0,0.4,0.1,0.6,0.2c0.2,0.1,0.3,0.3,0.4,0.5
				C-1025.9,888.3-1025.8,888.6-1025.8,888.9z"/>
			
				<linearGradient id="SVGID_8_" gradientUnits="userSpaceOnUse" x1="-1017.76" y1="-96.7" x2="-1007.9008" y2="-96.7" gradientTransform="matrix(1 0 0 -1 0 796)">
				<stop  offset="0" style="stop-color:#2E95AA"/>
				<stop  offset="0.9903" style="stop-color:#007E97"/>
			</linearGradient>
			<path class="st9" d="M-1010,893.4h-5.1c0,0.6,0.1,1.1,0.4,1.6c0.2,0.5,0.5,0.8,0.9,1c0.4,0.2,0.8,0.3,1.3,0.3
				c0.3,0,0.6,0,0.9-0.1c0.3-0.1,0.5-0.2,0.7-0.3c0.2-0.2,0.5-0.3,0.7-0.5c0.2-0.2,0.5-0.4,0.8-0.7c0.1-0.1,0.3-0.2,0.6-0.2
				c0.3,0,0.5,0.1,0.6,0.2c0.2,0.1,0.2,0.4,0.2,0.6c0,0.2-0.1,0.5-0.3,0.8c-0.2,0.3-0.5,0.6-0.8,0.9c-0.4,0.3-0.8,0.5-1.4,0.7
				c-0.6,0.2-1.2,0.3-1.9,0.3c-1.7,0-3-0.5-3.9-1.4s-1.4-2.2-1.4-3.9c0-0.8,0.1-1.5,0.3-2.1c0.2-0.7,0.6-1.2,1-1.7s1-0.8,1.6-1.1
				c0.6-0.3,1.3-0.4,2.1-0.4c1,0,1.9,0.2,2.6,0.6c0.7,0.4,1.3,1,1.6,1.7c0.4,0.7,0.5,1.4,0.5,2.1s-0.2,1.1-0.6,1.3
				C-1008.8,893.3-1009.4,893.4-1010,893.4z M-1015.1,891.9h4.7c-0.1-0.9-0.3-1.6-0.7-2s-1-0.7-1.6-0.7s-1.2,0.2-1.6,0.7
				C-1014.8,890.4-1015,891-1015.1,891.9z"/>
			
				<linearGradient id="SVGID_9_" gradientUnits="userSpaceOnUse" x1="-1007.1713" y1="-94.9" x2="-997.0178" y2="-94.9" gradientTransform="matrix(1 0 0 -1 0 796)">
				<stop  offset="0" style="stop-color:#2E95AA"/>
				<stop  offset="0.9903" style="stop-color:#007E97"/>
			</linearGradient>
			<path class="st10" d="M-999.5,896.5v-0.3c-0.3,0.4-0.7,0.7-1,1c-0.3,0.3-0.7,0.4-1.1,0.6c-0.4,0.1-0.8,0.2-1.3,0.2
				c-0.6,0-1.2-0.1-1.7-0.4s-1-0.6-1.4-1.1s-0.7-1.1-0.9-1.7c-0.2-0.7-0.3-1.4-0.3-2.1c0-1.6,0.4-2.9,1.2-3.8
				c0.8-0.9,1.8-1.4,3.1-1.4c0.7,0,1.4,0.1,1.9,0.4c0.5,0.3,1,0.7,1.5,1.2v-3.8c0-0.5,0.1-0.9,0.3-1.2c0.2-0.3,0.5-0.4,0.9-0.4
				s0.7,0.1,0.9,0.4c0.2,0.3,0.3,0.6,0.3,1.1v11.4c0,0.5-0.1,0.9-0.3,1.1c-0.2,0.2-0.5,0.4-0.9,0.4s-0.6-0.1-0.9-0.4
				C-999.4,897.4-999.5,897-999.5,896.5z M-1004.6,892.7c0,0.7,0.1,1.3,0.3,1.8c0.2,0.5,0.5,0.9,0.9,1.1c0.4,0.3,0.8,0.4,1.2,0.4
				c0.5,0,0.9-0.1,1.2-0.4c0.4-0.2,0.7-0.6,0.9-1.1c0.2-0.5,0.3-1.1,0.3-1.8c0-0.7-0.1-1.3-0.3-1.8c-0.2-0.5-0.5-0.9-0.9-1.1
				c-0.4-0.3-0.8-0.4-1.3-0.4s-0.9,0.1-1.3,0.4c-0.4,0.3-0.7,0.7-0.9,1.2C-1004.5,891.5-1004.6,892-1004.6,892.7z"/>
			
				<linearGradient id="SVGID_10_" gradientUnits="userSpaceOnUse" x1="-991.3207" y1="-94.9999" x2="-981.1859" y2="-94.9999" gradientTransform="matrix(1 0 0 -1 0 796)">
				<stop  offset="0" style="stop-color:#2E95AA"/>
				<stop  offset="0.9903" style="stop-color:#007E97"/>
			</linearGradient>
			<path class="st11" d="M-988.9,885.1v4c0.5-0.5,1-0.9,1.5-1.2c0.5-0.3,1.1-0.4,1.9-0.4c0.9,0,1.6,0.2,2.3,0.6
				c0.6,0.4,1.2,1,1.5,1.8c0.4,0.8,0.5,1.7,0.5,2.8c0,0.8-0.1,1.5-0.3,2.2c-0.2,0.7-0.5,1.2-0.9,1.7s-0.8,0.9-1.4,1.1
				c-0.5,0.3-1.1,0.4-1.8,0.4c-0.4,0-0.8,0-1.1-0.1c-0.4-0.1-0.7-0.2-0.9-0.4c-0.2-0.2-0.5-0.3-0.6-0.5c-0.2-0.2-0.4-0.4-0.7-0.7
				v0.3c0,0.5-0.1,0.9-0.4,1.1c-0.2,0.3-0.5,0.4-0.9,0.4s-0.7-0.1-0.9-0.4c-0.2-0.3-0.3-0.6-0.3-1.1v-11.3c0-0.5,0.1-0.9,0.3-1.2
				c0.2-0.3,0.5-0.4,0.9-0.4s0.7,0.1,0.9,0.4C-989,884.2-988.9,884.6-988.9,885.1z M-988.7,892.8c0,1,0.2,1.8,0.7,2.4
				s1.1,0.8,1.9,0.8c0.7,0,1.2-0.3,1.7-0.8c0.5-0.6,0.7-1.4,0.7-2.4c0-0.7-0.1-1.3-0.3-1.8c-0.2-0.5-0.5-0.9-0.8-1.1
				c-0.4-0.3-0.8-0.4-1.3-0.4s-0.9,0.1-1.3,0.4c-0.4,0.3-0.7,0.7-0.9,1.2C-988.6,891.5-988.7,892.1-988.7,892.8z"/>
			
				<linearGradient id="SVGID_11_" gradientUnits="userSpaceOnUse" x1="-981.3676" y1="-98.7001" x2="-971.556" y2="-98.7001" gradientTransform="matrix(1 0 0 -1 0 796)">
				<stop  offset="0" style="stop-color:#2E95AA"/>
				<stop  offset="0.9903" style="stop-color:#007E97"/>
			</linearGradient>
			<path class="st12" d="M-977.8,898.3l0.2-0.6l-3.2-8c-0.2-0.5-0.3-0.8-0.3-1c0-0.2,0.1-0.4,0.2-0.6c0.1-0.2,0.3-0.3,0.5-0.5
				c0.2-0.1,0.4-0.2,0.6-0.2c0.4,0,0.7,0.1,0.8,0.4c0.2,0.2,0.4,0.6,0.5,1l2.2,6.4l2.1-5.9c0.2-0.5,0.3-0.9,0.4-1.1
				c0.1-0.3,0.3-0.5,0.4-0.6c0.1-0.1,0.4-0.1,0.6-0.1s0.4,0.1,0.6,0.2s0.3,0.2,0.4,0.4c0.1,0.2,0.1,0.4,0.1,0.6
				c0,0.1-0.1,0.3-0.1,0.5c-0.1,0.2-0.1,0.4-0.2,0.7l-3.4,8.9c-0.3,0.8-0.6,1.4-0.9,1.8c-0.3,0.4-0.6,0.8-1.1,1
				c-0.5,0.2-1.1,0.4-1.9,0.4c-0.8,0-1.3-0.1-1.7-0.2c-0.4-0.2-0.6-0.5-0.6-0.9c0-0.3,0.1-0.5,0.3-0.7c0.2-0.2,0.4-0.2,0.8-0.2
				c0.1,0,0.3,0,0.4,0.1c0.2,0,0.3,0.1,0.4,0.1c0.3,0,0.5,0,0.7-0.1c0.2-0.1,0.3-0.2,0.5-0.5C-978.2,899.1-978,898.7-977.8,898.3z"
				/>
		</g>
		<g>
			
				<linearGradient id="SVGID_12_" gradientUnits="userSpaceOnUse" x1="-941.5659" y1="-94.9" x2="-934.0012" y2="-94.9" gradientTransform="matrix(1 0 0 -1 0 796)">
				<stop  offset="0" style="stop-color:#2E95AA"/>
				<stop  offset="0.9903" style="stop-color:#007E97"/>
			</linearGradient>
			<path class="st13" d="M-940.3,887.7h0.6v-0.8c0-0.8,0.1-1.5,0.3-1.9c0.2-0.5,0.6-0.8,1-1c0.5-0.2,1.2-0.3,2-0.3
				c1.5,0,2.3,0.4,2.3,1.1c0,0.2-0.1,0.4-0.2,0.6c-0.2,0.2-0.3,0.3-0.6,0.3c-0.1,0-0.3,0-0.5-0.1c-0.2,0-0.5-0.1-0.6-0.1
				c-0.5,0-0.8,0.1-0.9,0.4c-0.1,0.3-0.2,0.7-0.2,1.2v0.6h0.6c1,0,1.5,0.3,1.5,0.9c0,0.4-0.1,0.7-0.4,0.8s-0.6,0.2-1.1,0.2h-0.6v6.9
				c0,0.5-0.1,0.9-0.4,1.2c-0.2,0.3-0.6,0.4-0.9,0.4c-0.4,0-0.7-0.1-0.9-0.4c-0.2-0.3-0.4-0.7-0.4-1.2v-6.9h-0.7
				c-0.4,0-0.7-0.1-0.9-0.3c-0.2-0.2-0.3-0.4-0.3-0.7C-941.6,888-941.1,887.7-940.3,887.7"/>
			
				<linearGradient id="SVGID_13_" gradientUnits="userSpaceOnUse" x1="-934.3715" y1="-96.8" x2="-927.2455" y2="-96.8" gradientTransform="matrix(1 0 0 -1 0 796)">
				<stop  offset="0" style="stop-color:#2E95AA"/>
				<stop  offset="0.9903" style="stop-color:#007E97"/>
			</linearGradient>
			<path class="st14" d="M-931.8,894.3v2.2c0,0.5-0.1,0.9-0.4,1.2c-0.2,0.3-0.6,0.4-0.9,0.4c-0.4,0-0.7-0.1-0.9-0.4
				c-0.2-0.3-0.4-0.7-0.4-1.2v-7.2c0-1.2,0.4-1.8,1.3-1.8c0.4,0,0.7,0.1,0.9,0.4c0.2,0.3,0.3,0.7,0.3,1.2c0.3-0.5,0.6-0.9,0.9-1.2
				c0.3-0.3,0.8-0.4,1.3-0.4s1.1,0.1,1.6,0.4c0.5,0.3,0.8,0.6,0.8,1.1c0,0.3-0.1,0.6-0.3,0.8c-0.2,0.2-0.5,0.3-0.7,0.3
				c-0.1,0-0.3-0.1-0.7-0.2c-0.4-0.1-0.7-0.2-1-0.2c-0.4,0-0.7,0.1-0.9,0.3c-0.2,0.2-0.4,0.5-0.6,0.9c-0.1,0.4-0.2,0.9-0.3,1.4
				C-931.8,892.8-931.8,893.5-931.8,894.3"/>
			
				<linearGradient id="SVGID_14_" gradientUnits="userSpaceOnUse" x1="-927.5795" y1="-96.7" x2="-917.7152" y2="-96.7" gradientTransform="matrix(1 0 0 -1 0 796)">
				<stop  offset="0" style="stop-color:#2E95AA"/>
				<stop  offset="0.9903" style="stop-color:#007E97"/>
			</linearGradient>
			<path class="st15" d="M-919.9,893.4h-5.1c0,0.6,0.1,1.1,0.4,1.6c0.2,0.4,0.5,0.8,0.9,1c0.4,0.2,0.8,0.3,1.3,0.3
				c0.3,0,0.6,0,0.8-0.1c0.3-0.1,0.5-0.2,0.7-0.3c0.2-0.2,0.5-0.3,0.7-0.5c0.2-0.2,0.5-0.4,0.8-0.7c0.1-0.1,0.3-0.2,0.6-0.2
				c0.3,0,0.5,0.1,0.6,0.2c0.2,0.1,0.2,0.4,0.2,0.6c0,0.2-0.1,0.5-0.3,0.8c-0.2,0.3-0.5,0.6-0.8,0.9c-0.4,0.3-0.8,0.5-1.4,0.7
				c-0.6,0.2-1.2,0.3-1.9,0.3c-1.7,0-3-0.5-3.9-1.4c-0.9-1-1.4-2.2-1.4-3.9c0-0.8,0.1-1.5,0.3-2.1c0.2-0.7,0.6-1.2,1-1.7
				s1-0.8,1.6-1.1c0.6-0.2,1.3-0.4,2.1-0.4c1,0,1.9,0.2,2.6,0.6c0.7,0.4,1.3,1,1.6,1.7c0.4,0.7,0.5,1.4,0.5,2.1
				c0,0.6-0.2,1.1-0.6,1.3C-918.6,893.3-919.2,893.4-919.9,893.4 M-924.9,891.9h4.7c-0.1-0.9-0.3-1.6-0.7-2s-1-0.7-1.6-0.7
				s-1.2,0.2-1.6,0.7C-924.6,890.4-924.8,891-924.9,891.9"/>
			
				<linearGradient id="SVGID_15_" gradientUnits="userSpaceOnUse" x1="-916.7943" y1="-96.7" x2="-906.9282" y2="-96.7" gradientTransform="matrix(1 0 0 -1 0 796)">
				<stop  offset="0" style="stop-color:#2E95AA"/>
				<stop  offset="0.9903" style="stop-color:#007E97"/>
			</linearGradient>
			<path class="st16" d="M-909.1,893.4h-5.1c0,0.6,0.1,1.1,0.4,1.6c0.2,0.4,0.5,0.8,0.9,1c0.4,0.2,0.8,0.3,1.3,0.3
				c0.3,0,0.6,0,0.8-0.1c0.3-0.1,0.5-0.2,0.8-0.3c0.2-0.2,0.5-0.3,0.7-0.5c0.2-0.2,0.5-0.4,0.8-0.7c0.1-0.1,0.3-0.2,0.6-0.2
				c0.3,0,0.5,0.1,0.7,0.2c0.2,0.1,0.2,0.4,0.2,0.6c0,0.2-0.1,0.5-0.3,0.8c-0.2,0.3-0.5,0.6-0.8,0.9c-0.4,0.3-0.8,0.5-1.4,0.7
				c-0.6,0.2-1.2,0.3-1.9,0.3c-1.7,0-3-0.5-3.9-1.4c-0.9-1-1.4-2.2-1.4-3.9c0-0.8,0.1-1.5,0.3-2.1c0.2-0.7,0.6-1.2,1-1.7
				s1-0.8,1.6-1.1c0.6-0.2,1.4-0.4,2.1-0.4c1,0,1.9,0.2,2.6,0.6c0.7,0.4,1.3,1,1.6,1.7c0.4,0.7,0.5,1.4,0.5,2.1
				c0,0.6-0.2,1.1-0.6,1.3C-907.9,893.3-908.4,893.4-909.1,893.4 M-914.1,891.9h4.7c-0.1-0.9-0.3-1.6-0.7-2s-1-0.7-1.6-0.7
				s-1.2,0.2-1.6,0.7C-913.8,890.4-914.1,891-914.1,891.9"/>
			
				<linearGradient id="SVGID_16_" gradientUnits="userSpaceOnUse" x1="-905.8344" y1="-98.7" x2="-895.6957" y2="-98.7" gradientTransform="matrix(1 0 0 -1 0 796)">
				<stop  offset="0" style="stop-color:#2E95AA"/>
				<stop  offset="0.9903" style="stop-color:#007E97"/>
			</linearGradient>
			<path class="st17" d="M-903.4,888.9v0.3c0.5-0.6,1-1,1.5-1.3c0.5-0.3,1.1-0.4,1.8-0.4c0.8,0,1.5,0.2,2.2,0.6
				c0.7,0.4,1.2,1,1.6,1.8c0.4,0.8,0.6,1.7,0.6,2.8c0,0.8-0.1,1.5-0.3,2.2c-0.2,0.7-0.5,1.2-0.9,1.7s-0.9,0.8-1.4,1
				c-0.5,0.2-1.1,0.4-1.7,0.4c-0.7,0-1.4-0.1-1.9-0.4s-1-0.7-1.4-1.3v3.9c0,1.1-0.4,1.7-1.2,1.7c-0.5,0-0.8-0.1-1-0.4
				c-0.2-0.3-0.2-0.7-0.2-1.3V889c0-0.5,0.1-0.9,0.3-1.1c0.2-0.2,0.5-0.4,0.9-0.4s0.7,0.1,0.9,0.4
				C-903.5,888.1-903.4,888.4-903.4,888.9 M-898.3,892.7c0-0.7-0.1-1.3-0.3-1.8c-0.2-0.5-0.5-0.9-0.9-1.1c-0.4-0.3-0.8-0.4-1.2-0.4
				c-0.7,0-1.3,0.3-1.8,0.8c-0.5,0.6-0.7,1.4-0.7,2.5c0,1,0.2,1.8,0.7,2.4s1.1,0.9,1.8,0.9c0.4,0,0.8-0.1,1.2-0.4
				c0.4-0.3,0.7-0.6,0.9-1.1S-898.3,893.4-898.3,892.7"/>
			
				<linearGradient id="SVGID_17_" gradientUnits="userSpaceOnUse" x1="-894.395" y1="-94.85" x2="-891.801" y2="-94.85" gradientTransform="matrix(1 0 0 -1 0 796)">
				<stop  offset="0" style="stop-color:#2E95AA"/>
				<stop  offset="0.9903" style="stop-color:#007E97"/>
			</linearGradient>
			<path class="st18" d="M-893.1,886.2c-0.4,0-0.7-0.1-0.9-0.3c-0.3-0.2-0.4-0.5-0.4-0.9s0.1-0.7,0.4-0.9c0.3-0.2,0.6-0.4,0.9-0.4
				s0.6,0.1,0.9,0.3c0.3,0.2,0.4,0.5,0.4,0.9s-0.1,0.7-0.4,0.9C-892.4,886.1-892.7,886.2-893.1,886.2 M-891.8,888.9v7.5
				c0,0.5-0.1,0.9-0.4,1.2c-0.3,0.3-0.6,0.4-0.9,0.4c-0.4,0-0.7-0.1-0.9-0.4c-0.2-0.3-0.4-0.7-0.4-1.2V889c0-0.5,0.1-0.9,0.4-1.2
				c0.2-0.3,0.5-0.4,0.9-0.4s0.7,0.1,0.9,0.4C-891.9,888.1-891.8,888.5-891.8,888.9"/>
			
				<linearGradient id="SVGID_18_" gradientUnits="userSpaceOnUse" x1="-889.7211" y1="-94.75" x2="-880.7836" y2="-94.75" gradientTransform="matrix(1 0 0 -1 0 796)">
				<stop  offset="0" style="stop-color:#2E95AA"/>
				<stop  offset="0.9903" style="stop-color:#007E97"/>
			</linearGradient>
			<path class="st19" d="M-883.4,896.8l-2.3-3.8l-1.4,1.3v2.1c0,0.5-0.1,0.9-0.4,1.2c-0.3,0.3-0.6,0.4-0.9,0.4
				c-0.4,0-0.7-0.1-0.9-0.4c-0.2-0.3-0.3-0.7-0.3-1.2v-11.1c0-0.6,0.1-1,0.3-1.3c0.2-0.3,0.5-0.5,1-0.5c0.4,0,0.7,0.1,0.9,0.4
				c0.2,0.3,0.4,0.7,0.4,1.2v6.3l2.9-3.1c0.4-0.4,0.6-0.6,0.8-0.8c0.2-0.1,0.4-0.2,0.7-0.2c0.3,0,0.6,0.1,0.8,0.3
				c0.2,0.2,0.3,0.5,0.3,0.8c0,0.4-0.4,0.9-1.1,1.5l-1.4,1.3l2.7,4.2c0.2,0.3,0.3,0.5,0.4,0.7c0.1,0.2,0.1,0.3,0.1,0.5
				c0,0.4-0.1,0.7-0.3,1c-0.2,0.2-0.5,0.4-0.9,0.4c-0.3,0-0.6-0.1-0.7-0.3C-882.9,897.6-883.2,897.3-883.4,896.8"/>
			
				<linearGradient id="SVGID_19_" gradientUnits="userSpaceOnUse" x1="-879.2484" y1="-100.55" x2="-876.385" y2="-100.55" gradientTransform="matrix(1 0 0 -1 0 796)">
				<stop  offset="0" style="stop-color:#2E95AA"/>
				<stop  offset="0.9903" style="stop-color:#007E97"/>
			</linearGradient>
			<path class="st20" d="M-877.8,898c-0.4,0-0.7-0.1-1-0.4c-0.3-0.3-0.4-0.6-0.4-1.1c0-0.4,0.1-0.7,0.4-1c0.3-0.3,0.6-0.4,1-0.4
				s0.7,0.1,1,0.4c0.3,0.3,0.4,0.6,0.4,1c0,0.5-0.1,0.8-0.4,1.1S-877.4,898-877.8,898"/>
			
				<linearGradient id="SVGID_20_" gradientUnits="userSpaceOnUse" x1="-874.7133" y1="-96.5999" x2="-864.9133" y2="-96.5999" gradientTransform="matrix(1 0 0 -1 0 796)">
				<stop  offset="0" style="stop-color:#2E95AA"/>
				<stop  offset="0.9903" style="stop-color:#007E97"/>
			</linearGradient>
			<path class="st21" d="M-864.9,894.8c0,0.3-0.1,0.7-0.3,1c-0.2,0.4-0.5,0.7-0.9,1c-0.4,0.3-0.9,0.6-1.5,0.8
				c-0.6,0.2-1.3,0.3-2,0.3c-1.6,0-2.9-0.5-3.8-1.4s-1.3-2.2-1.3-3.8c0-1.1,0.2-2,0.6-2.8c0.4-0.8,1-1.4,1.8-1.9
				c0.8-0.4,1.7-0.7,2.8-0.7c0.7,0,1.3,0.1,1.9,0.3c0.6,0.2,1,0.5,1.4,0.8c0.4,0.3,0.7,0.6,0.9,1c0.2,0.4,0.3,0.7,0.3,1
				c0,0.3-0.1,0.6-0.3,0.8c-0.2,0.2-0.5,0.3-0.8,0.3c-0.2,0-0.4-0.1-0.5-0.2c-0.1-0.1-0.3-0.3-0.5-0.5c-0.3-0.5-0.6-0.8-1-1.1
				c-0.3-0.2-0.8-0.4-1.3-0.4c-0.8,0-1.4,0.3-1.9,0.9s-0.7,1.4-0.7,2.5c0,0.5,0.1,0.9,0.2,1.3c0.1,0.4,0.3,0.8,0.5,1
				c0.2,0.3,0.5,0.5,0.8,0.7c0.3,0.2,0.7,0.2,1.1,0.2c0.5,0,1-0.1,1.3-0.4c0.4-0.2,0.7-0.6,1-1.1c0.2-0.3,0.3-0.5,0.5-0.7
				c0.2-0.2,0.4-0.2,0.7-0.2c0.3,0,0.6,0.1,0.8,0.4C-865,894.3-864.9,894.5-864.9,894.8"/>
			
				<linearGradient id="SVGID_21_" gradientUnits="userSpaceOnUse" x1="-864.0414" y1="-96.65" x2="-853.7172" y2="-96.65" gradientTransform="matrix(1 0 0 -1 0 796)">
				<stop  offset="0" style="stop-color:#2E95AA"/>
				<stop  offset="0.9903" style="stop-color:#007E97"/>
			</linearGradient>
			<path class="st22" d="M-853.7,892.7c0,0.8-0.1,1.5-0.4,2.1c-0.2,0.7-0.6,1.2-1,1.7c-0.5,0.5-1,0.8-1.6,1.1
				c-0.6,0.2-1.3,0.4-2.1,0.4c-0.8,0-1.5-0.1-2.1-0.4s-1.2-0.6-1.6-1.1c-0.5-0.5-0.8-1-1.1-1.7c-0.2-0.6-0.3-1.4-0.3-2.1
				c0-0.8,0.1-1.5,0.4-2.2c0.2-0.7,0.6-1.2,1-1.7c0.5-0.5,1-0.8,1.6-1.1c0.6-0.3,1.3-0.4,2.1-0.4c0.8,0,1.5,0.1,2.1,0.4
				s1.2,0.6,1.6,1.1c0.5,0.5,0.8,1,1,1.7C-853.8,891.2-853.7,891.9-853.7,892.7 M-856.3,892.7c0-1.1-0.2-1.9-0.7-2.5
				s-1.1-0.9-1.9-0.9c-0.5,0-1,0.1-1.3,0.4c-0.4,0.3-0.7,0.7-0.9,1.2c-0.2,0.5-0.3,1.1-0.3,1.8c0,0.7,0.1,1.3,0.3,1.8
				c0.2,0.5,0.5,0.9,0.9,1.2c0.4,0.3,0.8,0.4,1.4,0.4c0.8,0,1.4-0.3,1.9-0.9C-856.6,894.6-856.3,893.8-856.3,892.7"/>
			
				<linearGradient id="SVGID_22_" gradientUnits="userSpaceOnUse" x1="-852.6039" y1="-96.65" x2="-837.7543" y2="-96.65" gradientTransform="matrix(1 0 0 -1 0 796)">
				<stop  offset="0" style="stop-color:#2E95AA"/>
				<stop  offset="0.9903" style="stop-color:#007E97"/>
			</linearGradient>
			<path class="st23" d="M-843.8,892.9v3.4c0,0.5-0.1,1-0.4,1.2c-0.3,0.3-0.6,0.4-1,0.4s-0.7-0.1-1-0.4c-0.2-0.3-0.4-0.7-0.4-1.2
				v-4.1c0-0.7,0-1.2-0.1-1.5c0-0.4-0.2-0.7-0.4-0.9c-0.2-0.2-0.5-0.4-0.9-0.4c-0.8,0-1.4,0.3-1.7,0.9c-0.3,0.6-0.4,1.4-0.4,2.5v3.5
				c0,0.5-0.1,0.9-0.4,1.2c-0.3,0.3-0.6,0.4-1,0.4s-0.7-0.1-1-0.4c-0.3-0.3-0.4-0.7-0.4-1.2v-7.4c0-0.5,0.1-0.9,0.3-1.1
				c0.2-0.3,0.5-0.4,0.9-0.4s0.7,0.1,0.9,0.4c0.2,0.2,0.4,0.6,0.4,1v0.2c0.5-0.5,0.9-0.9,1.4-1.2c0.5-0.3,1.1-0.4,1.7-0.4
				c0.7,0,1.2,0.1,1.7,0.4c0.5,0.3,0.9,0.7,1.2,1.2c0.4-0.5,0.9-0.9,1.4-1.2c0.5-0.3,1.1-0.4,1.7-0.4c0.7,0,1.3,0.1,1.8,0.4
				c0.5,0.3,0.9,0.7,1.1,1.2c0.2,0.5,0.3,1.2,0.3,2.2v5.1c0,0.5-0.1,1-0.4,1.2c-0.2,0.3-0.6,0.4-1,0.4s-0.7-0.1-1-0.4
				c-0.3-0.3-0.4-0.7-0.4-1.2v-4.4c0-0.6,0-1-0.1-1.3c0-0.3-0.2-0.6-0.4-0.8c-0.2-0.2-0.5-0.3-1-0.3c-0.3,0-0.7,0.1-1,0.3
				c-0.3,0.2-0.5,0.5-0.7,0.8C-843.7,891-843.8,891.8-843.8,892.9"/>
		</g>
		<g>
			
				<linearGradient id="SVGID_23_" gradientUnits="userSpaceOnUse" x1="-964.5" y1="-96.1" x2="-964.5" y2="-96.1" gradientTransform="matrix(1 0 0 -1 0 796)">
				<stop  offset="0" style="stop-color:#2E95AA"/>
				<stop  offset="0.9903" style="stop-color:#007E97"/>
			</linearGradient>
			<path class="st24" d="M-964.5,892.1L-964.5,892.1L-964.5,892.1z"/>
			
				<linearGradient id="SVGID_24_" gradientUnits="userSpaceOnUse" x1="-964.515" y1="-96.55" x2="-964.3959" y2="-96.55" gradientTransform="matrix(1 0 0 -1 0 796)">
				<stop  offset="0" style="stop-color:#2E95AA"/>
				<stop  offset="0.9903" style="stop-color:#007E97"/>
			</linearGradient>
			<path class="st25" d="M-964.4,892.9L-964.4,892.9c0-0.2-0.1-0.5-0.1-0.7C-964.5,892.5-964.4,892.7-964.4,892.9z"/>
			
				<linearGradient id="SVGID_25_" gradientUnits="userSpaceOnUse" x1="-963.558" y1="-99.3" x2="-963.5405" y2="-99.3" gradientTransform="matrix(1 0 0 -1 0 796)">
				<stop  offset="0" style="stop-color:#2E95AA"/>
				<stop  offset="0.9903" style="stop-color:#007E97"/>
			</linearGradient>
			<path class="st26" d="M-963.5,895.3C-963.5,895.3-963.6,895.3-963.5,895.3C-963.6,895.3-963.5,895.3-963.5,895.3z"/>
			
				<linearGradient id="SVGID_26_" gradientUnits="userSpaceOnUse" x1="-963.6879" y1="-99.15" x2="-963.6224" y2="-99.15" gradientTransform="matrix(1 0 0 -1 0 796)">
				<stop  offset="0" style="stop-color:#2E95AA"/>
				<stop  offset="0.9903" style="stop-color:#007E97"/>
			</linearGradient>
			<path class="st27" d="M-963.6,895.2C-963.6,895.2-963.6,895.1-963.6,895.2C-963.7,895.1-963.6,895.1-963.6,895.2z"/>
			
				<linearGradient id="SVGID_27_" gradientUnits="userSpaceOnUse" x1="-964.1577" y1="-98.5" x2="-963.7006" y2="-98.5" gradientTransform="matrix(1 0 0 -1 0 796)">
				<stop  offset="0" style="stop-color:#2E95AA"/>
				<stop  offset="0.9903" style="stop-color:#007E97"/>
			</linearGradient>
			<path class="st28" d="M-964.2,893.9c0.1,0.4,0.3,0.8,0.5,1.2C-963.9,894.6-964,894.2-964.2,893.9L-964.2,893.9z"/>
			
				<linearGradient id="SVGID_28_" gradientUnits="userSpaceOnUse" x1="-959.1489" y1="-84.9" x2="-953.0775" y2="-84.9" gradientTransform="matrix(1 0 0 -1 0 796)">
				<stop  offset="0" style="stop-color:#2E95AA"/>
				<stop  offset="0.9903" style="stop-color:#007E97"/>
			</linearGradient>
			<path class="st29" d="M-954.5,882.2c0.5,0,0.9,0,1.3,0.1l0.1-0.8c0,0-1.2-0.4-2.7-0.2l-0.1-0.4c0.5-0.1,0.8-0.5,0.8-1
				c0-0.6-0.5-1.1-1.1-1.1s-1.1,0.5-1.1,1.1c0,0.5,0.4,0.9,0.8,1l0.1,0.5c-1.6,0.2-2.9,0.9-2.9,0.9l0.2,0.7c1-0.3,1.8-0.5,2.6-0.6
				C-955.5,882.2-955,882.2-954.5,882.2z"/>
			
				<linearGradient id="SVGID_29_" gradientUnits="userSpaceOnUse" x1="-968.1273" y1="-91.9" x2="-963.4409" y2="-91.9" gradientTransform="matrix(1 0 0 -1 0 796)">
				<stop  offset="0" style="stop-color:#2E95AA"/>
				<stop  offset="0.9903" style="stop-color:#007E97"/>
			</linearGradient>
			<path class="st30" d="M-963.6,886L-963.6,886c0-0.1,0.1-0.1,0.1-0.2l-0.3-0.2l-0.5-0.4c0,0-0.8,0.7-1.4,2l-0.1-0.1
				c-0.2-0.2-0.4-0.3-0.8-0.3l0,0c-0.2,0-0.3-0.1-0.4-0.1c0.1-0.1,0.1-0.3,0.1-0.4c0-0.4-0.3-0.7-0.7-0.7s-0.7,0.3-0.7,0.7
				s0.3,0.7,0.7,0.7c0.1,0,0.1,0,0.2,0c0.2,0.2,0.4,0.3,0.8,0.3c0.2,0,0.3,0,0.4,0.2c0.1,0.1,0.1,0.3,0.2,0.4l0,0
				c-0.4,1.2-0.3,2.7-0.3,2.7h1.1c0-0.5,0.1-1.5,0.4-2.2C-964.2,887-963.6,886.1-963.6,886z"/>
			
				<linearGradient id="SVGID_30_" gradientUnits="userSpaceOnUse" x1="-949.2407" y1="-89.6" x2="-944.6188" y2="-89.6" gradientTransform="matrix(1 0 0 -1 0 796)">
				<stop  offset="0" style="stop-color:#2E95AA"/>
				<stop  offset="0.9903" style="stop-color:#007E97"/>
			</linearGradient>
			<path class="st31" d="M-945.3,883c-0.4,0-0.7,0.3-0.7,0.7c0,0.1,0,0.1,0,0.2c-0.2,0.2-0.3,0.4-0.3,0.8c0,0.2,0,0.3-0.2,0.4
				c-0.1,0.1-0.2,0.1-0.3,0.1c-0.8-1.1-1.8-1.8-1.8-1.8l-0.8,0.8c0.6,0.5,1.2,1.2,1.7,2c0.4,0.6,0.8,1.3,1.1,2l1-0.5
				c0,0-0.5-1.2-1.1-2.2c0.1,0,0.2-0.1,0.3-0.2c0.2-0.2,0.3-0.4,0.3-0.8c0-0.2,0.1-0.3,0.1-0.4c0.1,0.1,0.3,0.1,0.4,0.1
				c0.4,0,0.7-0.3,0.7-0.7C-944.6,883.3-944.9,883-945.3,883z"/>
			
				<linearGradient id="SVGID_31_" gradientUnits="userSpaceOnUse" x1="-964.1547" y1="-98.9999" x2="-946.0632" y2="-98.9999" gradientTransform="matrix(1 0 0 -1 0 796)">
				<stop  offset="0" style="stop-color:#2E95AA"/>
				<stop  offset="0.9903" style="stop-color:#007E97"/>
			</linearGradient>
			<path class="st32" d="M-948,892.3c-1.4,0.7-3.7,1.6-6.8,2c-1.2,0.2-2.4,0.2-3.4,0.2c-1.4,0-2.6-0.1-3.6-0.2
				c-1.1-0.1-1.9-0.3-2.4-0.4c0.1,0.4,0.3,0.8,0.5,1.2l0,0c0,0,0,0.1,0.1,0.1c0,0,0,0.1,0.1,0.1l0,0c0.3,0.6,0.7,1.1,1.1,1.5
				c1.4,1.6,2.9,1.8,2.9,1.8l0,0l0,0c0,0,1.3,0.4,3.3,0.4c1.9,0,3.9-0.4,5.7-1.2c1.3-0.7,2.6-1.7,3.3-2.7c0.5-0.7,0.8-1.5,1-2.3
				c0.1-0.4,0.2-1.1,0.1-1.8C-946.5,891.5-947.1,891.8-948,892.3z"/>
			
				<linearGradient id="SVGID_32_" gradientUnits="userSpaceOnUse" x1="-964.5884" y1="-92.3227" x2="-946.2289" y2="-92.3227" gradientTransform="matrix(1 0 0 -1 0 796)">
				<stop  offset="0" style="stop-color:#2E95AA"/>
				<stop  offset="0.9903" style="stop-color:#007E97"/>
			</linearGradient>
			<path class="st33" d="M-963.1,886.4c0,0.1-0.7,0.9-1.1,2.3c-0.4,1-0.3,2.4-0.3,2.5l0,0c0,0.3,0,0.7,0.1,1l0,0v0.1
				c0,0.2,0.1,0.5,0.1,0.7c0.7,0.2,4.9,1.2,9.5,0.5c2.9-0.4,5.1-1.3,6.5-1.9c1.1-0.5,1.8-1,2.1-1.2c-0.3-1-1-2.6-1.7-3.6
				c-2-2.9-4.2-3.6-5.3-3.8c-0.4-0.1-0.8-0.1-1.2-0.1s-1,0-1.7,0.1c-0.7,0.1-1.6,0.3-2.5,0.6c-1.3,0.5-2.6,1.2-3.5,2l0,0
				C-962.5,885.6-962.8,885.9-963.1,886.4z M-950.8,885.7c1,0,1.7,0.8,1.7,1.7c0,1-0.8,1.7-1.7,1.7c-1,0-1.7-0.8-1.7-1.7
				C-952.6,886.5-951.8,885.7-950.8,885.7z M-959.1,885.6c1.6,0,2.8,1.3,2.8,2.8c0,1.6-1.3,2.8-2.8,2.8c-1.6,0-2.8-1.3-2.8-2.8
				C-961.9,886.9-960.6,885.6-959.1,885.6z"/>
		</g>
	</g>
</g>
<linearGradient id="SVGID_33_" gradientUnits="userSpaceOnUse" x1="-740.8" y1="328.4" x2="-613.2" y2="328.4" gradientTransform="matrix(1 0 0 -1 0 796)">
	<stop  offset="0" style="stop-color:#2E95AA"/>
	<stop  offset="0.9903" style="stop-color:#007E97"/>
</linearGradient>
<ellipse class="st34" cx="-677" cy="467.6" rx="63.8" ry="8.6"/>
<path class="st35" d="M-714.2,397.1c-0.9,16.7-0.8,24.1-0.9,26.6h86.4c0,0,0.9,1.9,1.8-26.6H-714.2z"/>
<g>
	<path class="st36" d="M-711.5,337.9c-0.8,5.6-1.5,42.5-2.3,55.7h87.1c0.3-10.7,0.6-46.7,0.8-58.3
		C-674.6,344.5-703.7,339.6-711.5,337.9z"/>
	<path class="st37" d="M-626,336.1c0.7-40.9,0.5-80.7-2.7-96.7c0,0-74.1-5.5-78.2,12.3c0,0-8.2,41.6-9.6,54l8.2,1.4l-1.4,11
		c0,0,30.2,0,43.9-21.9c0,0,0,37-45.3,35.7c0,0-0.2,2.9-0.5,6.8C-703.7,340.2-674.7,345.2-626,336.1z"/>
	<path class="st38" d="M-621.2,233.5c-6.1-1.5-12.3-2.3-18.3-2.6l-8-19.7c0,0-52.4-11.2-70.5,4.9c-18.2,16.1-7.7,32.1-2.1,42.6
		c5.6,10.5-4.9,12.6-9.1,10.5c0,0,7.7,14,30.7-0.7c18-11.4,16.8-16.1,26.7-18.9c12.2-1.2,23.9,0,25.8,1.9c2.3,2.2,1.7,5.6,1.4,8.4
		c-0.3,2.6-1.5,5.6-2.8,8.4c1.2,1.7,2.9,2.8,4.5,4c2.7-4.3,6.4-8.7,10.3-7.9c2.9,0.6,6.8,39.8,6.8,39.8
		C-614.4,266.7-621.2,233.5-621.2,233.5z"/>
</g>
<polygon class="st39" points="-680.9,346.8 -686.5,380.9 -678.3,389.1 -669.7,380.4 -673.9,346.8 -678.1,342.6 "/>
<g>
	<path class="st38" d="M-650.4,273.9c-0.9,1.5-1.6,2.5-1.6,2.5l5.3,3.8c0,0,0.5-1.2,1.3-2.8C-647.2,276.5-648.9,275.3-650.4,273.9z"
		/>
	<path class="st38" d="M-648,269.9c-0.5,1-1,1.9-1.5,2.7c1.4,1.4,3,2.5,4.7,3.4c0.4-0.7,0.8-1.5,1.2-2.3
		C-645.1,272.5-646.7,271.4-648,269.9z"/>
	
		<ellipse transform="matrix(0.1855 -0.9826 0.9826 0.1855 -786.4881 -395.2567)" class="st37" cx="-631.7" cy="276.8" rx="13.8" ry="10.6"/>
</g>
<g>
	<path class="st40" d="M-711.5,337.7c0,0-0.1,0.9-0.1,1.2c6,10.4,18.3,24.3,18.3,24.3l15.8-18.6l13.8,19.4c9-4.3,32-22.8,37.8-27.6
		c0-0.1,0-0.8,0-1C-673.7,344.6-706.5,338.8-711.5,337.7z"/>
</g>
<polygon class="st39" points="-626.8,399.1 -714.5,399.1 -714.1,391.6 -626.5,391.6 "/>
<g>
	<rect x="-699.3" y="423" class="st35" width="15" height="34.4"/>
	<path class="st39" d="M-699.2,455.2c0,0-10.6,5.3-15.9,13.5h30.8v-13.5H-699.2z"/>
</g>
<g>
	<rect x="-659.5" y="423" class="st35" width="15" height="34.4"/>
	<path class="st39" d="M-659.4,455.2c0,0-10.6,5.3-15.9,13.5h30.8v-13.5H-659.4z"/>
</g>
<g>
	<g>
		<ellipse class="st41" cx="-700.8" cy="284" rx="1.9" ry="3.8"/>
		<ellipse class="st41" cx="-675.3" cy="284" rx="1.9" ry="3.8"/>
	</g>
	<path class="st42" d="M-708.7,292.8c0,0,7.9-4.3,18.3-5.4L-708.7,292.8z"/>
	<path class="st42" d="M-685.4,293c0,0,7.9-4.3,18.3-5.4L-685.4,293z"/>
	<path class="st42" d="M-680,293.4c0,0,7.9-4.3,18.3-5.4L-680,293.4z"/>
</g>
<path class="st42" d="M-628.9,269.8c0,0-9.2,1.5-9.2,9.2c0,5.3,5.7,7.6,6.9,7.2C-631.2,286.2-642.3,278.6-628.9,269.8z"/>
<g>
	<g>
		<path class="st43" d="M-762.9,166.2c16.5,1,29,15.2,28,31.7c-0.7,10.7-6.9,19.8-15.7,24.6l-4.6,24.4l-25-1.5l-1.7-24.8
			c-8.2-5.8-13.3-15.5-12.7-26.3C-793.6,177.7-779.4,165.2-762.9,166.2z"/>
		<g>
			
				<linearGradient id="SVGID_34_" gradientUnits="userSpaceOnUse" x1="-779.7505" y1="577.3367" x2="-751.9545" y2="577.3367" gradientTransform="matrix(1 0 0 -1 0 796)">
				<stop  offset="0" style="stop-color:#BC6119"/>
				<stop  offset="0.1582" style="stop-color:#BE6520"/>
				<stop  offset="0.5549" style="stop-color:#C16D2A"/>
				<stop  offset="1" style="stop-color:#C26F2E"/>
			</linearGradient>
			<path class="st44" d="M-771.9,233.1c0.1,0.6-0.3,1.3-1,1.4c-0.6,0.1-1.3-0.3-1.4-1l-3.8-21l0.6-9.7l0.1,0.2
				c0-0.1-0.1-0.2-0.1-0.3l0,0c0.4,0.5,0.8,0.9,1.3,1.4c2.8,2.5,6.5,4,10.3,4.3c3.8,0.2,7.6-0.7,10.4-3c0.5-0.4,0.9-0.8,1.4-1.3
				c0.4-0.5,1.2-0.5,1.7-0.1c0.4,0.3,0.5,0.8,0.3,1.3l-9,29.1c-0.2,0.6-0.9,1-1.5,0.8c-0.6-0.2-1-0.9-0.8-1.5l7.9-25.4
				c-3.1,1.9-6.8,2.7-10.5,2.5c-3.9-0.3-7.7-1.6-10.8-4L-771.9,233.1z M-778.1,212.5l-1.6-9c-0.1-0.6,0.3-1.3,1-1.4
				c0.5-0.1,0.9,0.1,1.2,0.5l0.1,0.1l0,0c0-0.1-0.1-0.1-0.1-0.2l0.1,0.2L-778.1,212.5z"/>
		</g>
		
			<linearGradient id="SVGID_35_" gradientUnits="userSpaceOnUse" x1="-783.8389" y1="555.0906" x2="-749.9389" y2="555.0906" gradientTransform="matrix(1 0 0 -1 0 796)">
			<stop  offset="0" style="stop-color:#BC6119"/>
			<stop  offset="0.1582" style="stop-color:#BE6520"/>
			<stop  offset="0.5549" style="stop-color:#C16D2A"/>
			<stop  offset="1" style="stop-color:#C26F2E"/>
		</linearGradient>
		<path class="st45" d="M-783.8,230l33.9,2.1l-2.7,15.7c-0.5,2.8-0.7,4.2-4.5,4l-22.1-1.3c-3.8-0.2-3.8-1.6-4-4.5L-783.8,230z"/>
	</g>
</g>
<path class="st43" d="M-759.1,143.6c0-0.8-1.2-0.8-1.2-0.1c-0.5,5.9-0.7,11.8-0.6,17.7c0,0.6,0.9,0.7,1,0
	C-759.5,155.4-759.2,149.5-759.1,143.6z"/>
<path class="st43" d="M-788.1,148.5c-0.3-0.7-1.4-0.2-1.1,0.5c2.2,5.5,4.6,10.9,7.3,16.2c0.3,0.6,1.1,0.2,0.9-0.4
	C-783.2,159.3-785.5,153.8-788.1,148.5z"/>
<path class="st43" d="M-777.4,211.6c-0.6-0.5-1.3,0.3-0.7,0.9c4.3,3.9,8.8,7.6,13.4,11.1c0.5,0.4,1-0.3,0.6-0.7
	C-768.4,219-772.8,215.2-777.4,211.6z"/>
<path class="st43" d="M-816.1,192.5c-0.8,0-0.9,1-0.1,1.1c5.7,0.6,11.6,1,17.4,1.1c0.6,0,0.7-0.8,0.1-0.9
	C-804.4,193.2-810.3,192.7-816.1,192.5z"/>
<path class="st43" d="M-732.8,154.3c0.5-0.6-0.4-1.4-1-0.8c-3.8,4.5-7.5,9.2-10.9,14c-0.4,0.5,0.4,1.1,0.8,0.6
	C-740,163.7-736.2,159.1-732.8,154.3z"/>
<path class="st43" d="M-719.5,175.7c0.7-0.3,0.2-1.4-0.5-1.1c-5.3,2-10.5,4.3-15.6,6.7c-0.5,0.3-0.2,1.1,0.4,0.9
	C-729.9,180.3-724.6,178.1-719.5,175.7z"/>
<path class="st43" d="M-715.1,199.3c0.7-0.1,0.6-1.3-0.2-1.2c-5.6,0.5-11.2,1.4-16.8,2.4c-0.6,0.1-0.5,1,0.1,1
	C-726.3,201-720.6,200.3-715.1,199.3z"/>
<path class="st37" d="M-749.1,314.6c0,0,13.3-22.5,11.7-23.8c-1.6-1.3-4.9-2.7-4.9-2.7l-5.8,9.2l-2.1-4.4
	c-6.2-1.2-11.8-0.3-16.7,2.6l3.5,20.3L-749.1,314.6z"/>
<path class="st36" d="M-707.3,346l-2.8,0.8c-0.1,0-6,1.6-13.2,1.6c-7.9,0-14-1.8-18.2-5.4c-6.2-5.3-8.5-15.1-6.8-29.1l0.1-1H-764
	c-2.1,19.1,2,33.3,12.2,42.1c7.1,6.1,16.7,9.2,28.5,9.2c9.2,0,16.5-2,17.3-2.2l2.8-0.8L-707.3,346z"/>
<path class="st37" d="M-630.3,403.6c0,0-16.3,1.9-16.3,3.8c0,1.9,1.3,5,1.3,5l4.1-0.7l-4.1,7l3.1,3.8l6.5-5.2l-2.8,6.4l5,1.9
	l11.9-12.5L-630.3,403.6z"/>
<path class="st36" d="M-626,336.1c0.7,0.4,8.1,7.4,14.4,14.3c8,8.7,12.1,17.9,12.4,27.3c0.4,13.5-7.3,26.1-22.9,37.4l-10.6-11.7
	l0.9-0.6c11.5-8.2,17.2-16.5,17-24.6c-0.2-5.5-2.9-11.3-8.2-17.1c-4.9-5.3-10-8.7-10.1-8.7l-2.5-1.6L-626,336.1z"/>
<g>
	<g id="XMLID_664_">
		<path id="XMLID_706_" class="st46" d="M-1021.3,235.3c7.8,1.6,15.6,3.2,23.4,4.8c7.8,1.6,15.6,3.2,23.4,4.7
			c-1.9,9.4-3.8,18.7-5.7,28.1s-3.8,18.7-5.7,28.1c-7.8-1.6-15.6-3.2-23.5-4.7c-7.8-1.6-15.6-3.2-23.4-4.8
			c1.9-9.4,3.8-18.7,5.7-28.1C-1025.1,254.1-1023.2,244.7-1021.3,235.3z"/>
		<polygon id="XMLID_705_" class="st47" points="-1018.4,236.9 -969.2,251.6 -983.8,300.5 -983.8,300.5 -996,308 -1036,296 		"/>
		
			<rect id="XMLID_704_" x="-1013.2" y="252.4" transform="matrix(0.958 0.2867 -0.2867 0.958 31.3654 301.0164)" class="st48" width="2.1" height="10.5"/>
		
			<rect id="XMLID_703_" x="-1009.2" y="249.1" transform="matrix(0.958 0.2868 -0.2868 0.958 31.2209 299.9088)" class="st49" width="2.1" height="14.8"/>
		
			<rect id="XMLID_702_" x="-1006.1" y="252.2" transform="matrix(0.9581 0.2865 -0.2865 0.9581 31.9355 298.7773)" class="st50" width="2.1" height="12.7"/>
		
			<rect id="XMLID_701_" x="-1003.2" y="256.3" transform="matrix(0.9581 0.2864 -0.2864 0.9581 32.785 297.9653)" class="st48" width="2.1" height="9.6"/>
		
			<rect id="XMLID_700_" x="-999.3" y="254.2" transform="matrix(0.9581 0.2864 -0.2864 0.9581 32.8044 296.8296)" class="st49" width="2.1" height="12.8"/>
		
			<rect id="XMLID_699_" x="-995.6" y="252.8" transform="matrix(0.9581 0.2865 -0.2865 0.9581 32.9057 295.8585)" class="st50" width="2.1" height="15.2"/>
		
			<rect id="XMLID_698_" x="-991.9" y="251.3" transform="matrix(0.958 0.2866 -0.2866 0.958 32.9998 294.9001)" class="st48" width="2.1" height="17.8"/>
		
			<rect id="XMLID_697_" x="-989" y="255.8" transform="matrix(0.958 0.2868 -0.2868 0.958 33.9016 294.3741)" class="st49" width="2.1" height="14.3"/>
		
			<rect id="XMLID_696_" x="-986.1" y="259.6" transform="matrix(0.958 0.2866 -0.2866 0.958 34.6984 293.4444)" class="st50" width="2.1" height="11.3"/>
		<path id="XMLID_695_" class="st49" d="M-994.2,277.4l2.8,2c0.4-0.5,0.6-1.2,0.6-1.9l0,0L-994.2,277.4L-994.2,277.4z"/>
		<path id="XMLID_694_" class="st50" d="M-994.2,277.4l3.5,0.1c0.1-1.9-1.4-3.5-3.3-3.6L-994.2,277.4z"/>
		<path id="XMLID_693_" class="st48" d="M-994.2,277.4l0.1-3.5c-1.9-0.1-3.5,1.4-3.6,3.3c-0.1,1.9,1.4,3.5,3.3,3.6
			c1.2,0,2.3-0.5,2.9-1.4L-994.2,277.4L-994.2,277.4z"/>
		<path id="XMLID_692_" class="st48" d="M-1003.6,270.9c-1.9-0.1-3.5,1.4-3.6,3.3c-0.1,1.9,1.4,3.5,3.3,3.6c1.2,0,2.3-0.5,2.9-1.4
			c0.4-0.5,0.6-1.2,0.6-1.9l0,0C-1000.2,272.6-1001.7,271-1003.6,270.9z"/>
		<path id="XMLID_691_" class="st50" d="M-1003.6,270.9l-0.1,3.5l0,0l0,0l3.3-1C-1000.8,272-1002.1,271-1003.6,270.9z"/>
		<path id="XMLID_690_" class="st49" d="M-1000.4,273.4l-3.3,1l0,0l-2.5,2.3c0.6,0.6,1.5,1.1,2.4,1.1c1.1,0,2.1-0.4,2.7-1.2
			c0.5-0.6,0.8-1.3,0.8-2.1C-1000.3,274.1-1000.3,273.8-1000.4,273.4z"/>
		<path id="XMLID_689_" class="st48" d="M-1013.2,268.2c-1.9-0.1-3.5,1.4-3.6,3.3s1.4,3.5,3.3,3.6c1.2,0,2.3-0.5,2.9-1.4
			c0.4-0.5,0.6-1.2,0.6-1.9l0,0C-1009.8,269.9-1011.3,268.3-1013.2,268.2z"/>
		<path id="XMLID_688_" class="st49" d="M-1011.5,274.6l-1.9-2.9l-3.3,1c0.4,1.4,1.7,2.4,3.2,2.5
			C-1012.7,275.1-1012,274.9-1011.5,274.6z"/>
		<path id="XMLID_687_" class="st50" d="M-1013.4,271.7l1.9,2.9c0.9-0.6,1.6-1.6,1.6-2.8c0-0.9-0.3-1.7-0.8-2.4L-1013.4,271.7
			L-1013.4,271.7z"/>
		
			<rect id="XMLID_686_" x="-1023.6" y="278.8" transform="matrix(0.9581 0.2865 -0.2865 0.9581 37.3167 303.3197)" class="st51" width="11.5" height="0.8"/>
		
			<rect id="XMLID_685_" x="-1024.1" y="280.5" transform="matrix(0.9581 0.2866 -0.2866 0.9581 37.7916 303.6367)" class="st51" width="11.5" height="0.8"/>
		
			<rect id="XMLID_684_" x="-1024.7" y="282.1" transform="matrix(0.9581 0.2864 -0.2864 0.9581 38.239 303.6599)" class="st51" width="11.5" height="0.8"/>
		
			<rect id="XMLID_683_" x="-1025.2" y="283.9" transform="matrix(0.9581 0.2865 -0.2865 0.9581 38.7097 303.9759)" class="st51" width="11.5" height="0.8"/>
		
			<rect id="XMLID_682_" x="-1025.7" y="285.6" transform="matrix(0.9581 0.2866 -0.2866 0.9581 39.1803 304.2916)" class="st51" width="11.5" height="0.8"/>
		
			<rect id="XMLID_681_" x="-1026.2" y="287.3" transform="matrix(0.9581 0.2866 -0.2866 0.9581 39.6496 304.5125)" class="st51" width="11.5" height="0.8"/>
		
			<rect id="XMLID_680_" x="-1026.7" y="288.5" transform="matrix(0.9581 0.2864 -0.2864 0.9581 39.9066 304.9211)" class="st51" width="8.5" height="0.8"/>
		
			<rect id="XMLID_679_" x="-1011.1" y="282.5" transform="matrix(0.9581 0.2865 -0.2865 0.9581 38.8979 299.8771)" class="st51" width="11.5" height="0.8"/>
		
			<rect id="XMLID_678_" x="-1011.6" y="284.2" transform="matrix(0.9581 0.2866 -0.2866 0.9581 39.3822 300.1974)" class="st51" width="11.5" height="0.8"/>
		
			<rect id="XMLID_677_" x="-1012.1" y="285.9" transform="matrix(0.9581 0.2865 -0.2865 0.9581 39.827 300.3151)" class="st51" width="11.5" height="0.8"/>
		
			<rect id="XMLID_676_" x="-1012.5" y="287.6" transform="matrix(0.9581 0.2865 -0.2865 0.9581 40.3035 300.5078)" class="st51" width="11.5" height="0.8"/>
		
			<rect id="XMLID_675_" x="-1013" y="289.3" transform="matrix(0.9581 0.2866 -0.2866 0.9581 40.7818 300.8258)" class="st51" width="11.5" height="0.8"/>
		
			<rect id="XMLID_674_" x="-1013.6" y="291" transform="matrix(0.9581 0.2865 -0.2865 0.9581 41.2358 300.9469)" class="st51" width="11.5" height="0.8"/>
		
			<rect id="XMLID_673_" x="-1014" y="292.2" transform="matrix(0.9581 0.2865 -0.2865 0.9581 41.4648 301.7118)" class="st51" width="7.4" height="0.8"/>
		
			<rect id="XMLID_672_" x="-998.5" y="286.3" transform="matrix(0.9581 0.2865 -0.2865 0.9581 40.5239 296.4238)" class="st51" width="11.5" height="0.8"/>
		
			<rect id="XMLID_671_" x="-999" y="288" transform="matrix(0.9581 0.2865 -0.2865 0.9581 40.9914 296.6441)" class="st51" width="11.5" height="0.8"/>
		
			<rect id="XMLID_670_" x="-999.5" y="289.7" transform="matrix(0.9581 0.2865 -0.2865 0.9581 41.4561 296.863)" class="st51" width="11.5" height="0.8"/>
		
			<rect id="XMLID_669_" x="-1000" y="291.4" transform="matrix(0.9581 0.2866 -0.2866 0.9581 41.9287 297.1773)" class="st51" width="11.5" height="0.8"/>
		
			<rect id="XMLID_668_" x="-1000.5" y="293.1" transform="matrix(0.9581 0.2865 -0.2865 0.9581 42.3876 297.3018)" class="st51" width="11.5" height="0.8"/>
		
			<rect id="XMLID_667_" x="-1001" y="294.8" transform="matrix(0.9581 0.2865 -0.2865 0.9581 42.8514 297.5211)" class="st51" width="11.5" height="0.8"/>
		
			<rect id="XMLID_666_" x="-1001.5" y="296" transform="matrix(0.9581 0.2865 -0.2865 0.9581 43.1259 298.1474)" class="st51" width="8.5" height="0.8"/>
		<path id="XMLID_665_" class="st52" d="M-992.5,297.6c-0.9,5.5-1.8,8.1-3.5,10.4l12.2-7.4C-986.3,300.8-988.5,300.1-992.5,297.6z"
			/>
	</g>
	
		<linearGradient id="SVGID_36_" gradientUnits="userSpaceOnUse" x1="-974.6" y1="328.6" x2="-844.2" y2="328.6" gradientTransform="matrix(1 0 0 -1 0 796)">
		<stop  offset="0" style="stop-color:#2E95AA"/>
		<stop  offset="0.9903" style="stop-color:#007E97"/>
	</linearGradient>
	<ellipse class="st53" cx="-909.4" cy="467.4" rx="65.2" ry="8.8"/>
	<g>
		<path class="st35" d="M-947.5,395.4c-0.9,17.1-0.8,24.6-0.9,27.2h88.3c0,0,0.9,1.9,1.8-27.2H-947.5z"/>
		<g>
			<path class="st36" d="M-944.7,334.8c-0.8,5.8-1.5,43.5-2.3,56.9h89c0.3-10.9,0.6-47.7,0.8-59.5
				C-907,341.6-936.7,336.6-944.7,334.8z"/>
			<path class="st37" d="M-857.3,333c0.7-41.8,0.5-82.5-2.7-98.9c0,0-75.7-5.6-79.9,12.6c0,0-8.4,42.6-9.8,55.2l8.4,1.4l-1.4,11.2
				c0,0,30.8,0,44.9-22.4c0,0,0,37.9-46.3,36.5c0,0-0.2,3-0.5,6.9C-936.8,337.3-907.1,342.3-857.3,333z"/>
			<path class="st38" d="M-852.4,228.2c-6.3-1.5-12.6-2.3-18.7-2.7l-8.2-20.1c0,0-53.5-11.4-72.1,5s-7.9,32.8-2.1,43.5
				c5.7,10.7-5,12.8-9.3,10.7c0,0,7.9,14.3,31.4-0.7c18.4-11.6,17.2-16.4,27.3-19.2c12.4-1.2,24.4,0,26.4,1.9
				c2.3,2.3,1.8,5.8,1.5,8.6c-0.3,2.6-1.5,5.7-2.9,8.6c1.2,1.7,2.9,2.9,4.6,4.1c2.7-4.4,6.5-8.9,10.6-8.1c3,0.6,6.9,40.7,6.9,40.7
				C-845.5,262.1-852.4,228.2-852.4,228.2z"/>
		</g>
		<polygon class="st39" points="-913.4,344 -920.9,383.1 -912.5,391.4 -903.7,382.6 -906.3,344 -910.6,339.7 		"/>
		<g>
			<path class="st38" d="M-882.2,269.5c-1,1.6-1.7,2.6-1.7,2.6l5.4,3.8c0,0,0.5-1.2,1.3-2.9C-879,272.1-880.8,270.9-882.2,269.5z"/>
			<path class="st38" d="M-879.8,265.3c-0.5,1-1,1.9-1.5,2.8c1.4,1.4,3.1,2.6,4.9,3.5c0.4-0.7,0.8-1.5,1.2-2.3
				C-876.8,268-878.5,266.9-879.8,265.3z"/>
			
				<ellipse transform="matrix(0.1855 -0.9826 0.9826 0.1855 -970.749 -626.1377)" class="st37" cx="-863.1" cy="272.5" rx="14.1" ry="10.9"/>
		</g>
		<g>
			<path class="st40" d="M-944.7,334.7c0,0-0.1,0.9-0.1,1.2c6.1,10.6,18.7,24.8,18.7,24.8l16.1-19.1l14.1,19.8
				c9.2-4.4,32.7-23.3,38.7-28.3c0-0.1,0-0.9,0-1C-906.1,341.8-939.6,335.7-944.7,334.7z"/>
		</g>
		<polygon class="st39" points="-858.2,397.4 -947.7,397.4 -947.3,389.8 -857.8,389.8 		"/>
		<g>
			<rect x="-932.2" y="421.8" class="st35" width="15.3" height="35.2"/>
			<path class="st39" d="M-932.1,454.7c0,0-10.8,5.4-16.2,13.8h31.4v-13.8H-932.1z"/>
		</g>
		<g>
			<rect x="-891.6" y="421.8" class="st35" width="15.3" height="35.2"/>
			<path class="st39" d="M-891.5,454.7c0,0-10.8,5.4-16.2,13.8h31.4v-13.8H-891.5z"/>
		</g>
		<g>
			<g>
				<path class="st41" d="M-935.2,281.4c-0.2,2.1-1.2,3.7-2.3,3.7c-1.1-0.1-1.8-1.9-1.6-4s12.2-2.8,13.2-2.7
					C-924.7,278.5-935,279.3-935.2,281.4z"/>
				<path class="st41" d="M-905.8,280.7c-0.2,2.1-1.2,3.7-2.3,3.7c-1.1-0.1-1.8-1.9-1.6-4s12.2-2.8,13.2-2.7
					C-895.3,277.8-905.6,278.6-905.8,280.7z"/>
			</g>
			<path class="st42" d="M-941.8,288.8c0,0,8.1-4.4,18.7-5.5L-941.8,288.8z"/>
			<path class="st42" d="M-918,289c0,0,8.1-4.4,18.7-5.5L-918,289z"/>
			<path class="st42" d="M-912.5,289.3c0,0,8.1-4.4,18.7-5.5L-912.5,289.3z"/>
		</g>
		<path class="st42" d="M-860.3,265.3c0,0-9.4,1.5-9.4,9.4c0,5.5,5.8,7.8,7,7.4C-862.7,282.1-874,274.3-860.3,265.3z"/>
	</g>
	<g>
		<path class="st37" d="M-986.8,315.3c0,0,10.2-13.8,8.7-15.1c-1.4-1.3-4.7-2.6-4.7-2.6l-2.3,3.6l-2.5-8.1l-5.1-0.3l-0.7,8.7
			l-2.9-6.7l-5,2.5l1.1,18H-986.8z"/>
		<path class="st36" d="M-943.5,348.2l-2.9,0.8c-0.1,0-6.1,1.6-13.5,1.6c-8.1,0-14.3-1.9-18.6-5.6c-6.3-5.4-8.6-15.5-6.9-29.8
			l0.1-1.1h-16.1c-2.2,19.5,2,34,12.5,43c7.3,6.2,17.1,9.4,29.1,9.4c9.4,0,16.9-2,17.7-2.2l2.9-0.8L-943.5,348.2z"/>
	</g>
	<g>
		<path class="st37" d="M-935.5,355.4c0,0-0.8-16.7-2.7-16.9c-1.9-0.1-5.2,0.9-5.2,0.9l0.5,4.2l-6.9-4.6l-4,2.9l4.8,7l-6.4-3.3
			l-2.3,5l12,13L-935.5,355.4z"/>
		<path class="st36" d="M-863.1,358.6c-3.7,4.2-14.6,14.8-18.1,17.6c-9.4,7.5-19.1,11.1-28.7,10.8c-13.3-0.5-26.4-7.1-36.5-22.5
			c-0.7-1.1,11.6-12.5,11.6-12.5h1.6c7.6,12.3,15.6,18.7,24,19c12.8,0.4,27.8-17.3,27.8-17.3c0.8-1.1,14.1-10.3,15.2-9.5
			C-866.2,344.2-859.6,354.7-863.1,358.6z"/>
	</g>
	<path id="XMLID_626_" class="st54" d="M-950,274.6c1.4-0.6,9.4-1.8,15.5-1.8c0.4,0,0.7,0,1.1,0c5.5,0.1,12.1,1.9,17,1.7l0,0l0,0
		c4.9-0.3,11.4-2.7,16.8-3.3c0.4,0,0.7-0.1,1.1-0.1c6-0.6,14.1-0.1,15.6,0.3c1.9,0.5,1.9,0.7,2.1,2.1c0.1,1.4-0.1,2.6-1.1,3
		c-1.4,0.5-1.4,2.2-2.1,6.9c0,0.3-0.1,0.7-0.1,1c-0.3,2.2-0.9,4.2-2.2,5.8c-1.7,2.1-4.7,3.6-9.9,4.2c-0.3,0-0.7,0.1-1,0.1
		c-8.4,0.5-11.5-5-12.5-6.9c-1.9-3.4-1.6-8-6.3-7.8c-4.7,0.3-3.9,4.9-5.5,8.4c-0.8,1.9-3.3,7.7-11.8,8.1c-0.3,0-0.7,0-1,0
		c-5.3-0.1-8.4-1.3-10.3-3.2c-1.5-1.5-2.3-3.4-2.8-5.6c-0.1-0.3-0.2-0.7-0.2-1c-1.1-4.6-1.3-6.3-2.8-6.7c-1.1-0.3-1.4-1.5-1.4-2.9
		C-951.9,275.5-951.9,275.3-950,274.6L-950,274.6z M-887,287.7L-887,287.7c0.9-2,1.5-4.7,1.5-7.3c0.1-3.3-0.6-6.3-2.3-7.3
		c-1.4-0.8-6-1.1-10.7-0.7c-4,0.3-8,1.2-10.3,2.9c-0.5,0.4-1,0.8-1.3,1.3c-0.4,0.6-0.7,1.4-0.8,2.3c-0.5,4.6,3.8,11.7,7.8,13.4
		c1.5,0.6,3.5,0.9,5.6,0.8c4.2-0.2,8.8-1.9,10.4-5C-887.1,287.9-887,287.8-887,287.7L-887,287.7z M-944.4,290.6L-944.4,290.6
		c0.1,0.1,0.1,0.2,0.2,0.3c1.9,2.9,6.6,4.1,10.8,3.9c2.1-0.1,4.1-0.6,5.5-1.4c3.7-2.1,7.3-9.6,6.4-14.1c-0.2-0.8-0.5-1.6-1-2.2
		c-0.4-0.4-0.8-0.8-1.4-1.1c-2.4-1.4-6.5-1.9-10.5-1.8c-4.8,0.1-9.3,0.9-10.6,1.8c-1.6,1.1-2,4.2-1.6,7.5
		C-946.4,286-945.6,288.7-944.4,290.6z"/>
</g>
<g>
	<g>
		<path class="st37" d="M-1184.4,675.3c0,0,14.3-8.1,15.4-6.6c1.1,1.5,1.9,4.8,1.9,4.8l-3.7,1.8l7.4,3.3l-0.3,4.9l-8.3-0.3l6,3.5
			l-2.9,4.5l-17-3.1L-1184.4,675.3z"/>
		<rect x="-1278.1" y="672.7" class="st55" width="95.5" height="15.7"/>
	</g>
	
		<linearGradient id="SVGID_37_" gradientUnits="userSpaceOnUse" x1="-1467.8086" y1="-4.4" x2="-1340.2085" y2="-4.4" gradientTransform="matrix(-1 0 0 -1 -2669.2085 796)">
		<stop  offset="0" style="stop-color:#2E95AA"/>
		<stop  offset="0.9903" style="stop-color:#007E97"/>
	</linearGradient>
	<ellipse class="st56" cx="-1265.2" cy="800.4" rx="63.8" ry="8.6"/>
	<g>
		<path class="st35" d="M-1218.1,729.9c0.9,16.7,0.8,24.1,0.9,26.6h-86.4c0,0-0.9,1.9-1.8-26.6H-1218.1z"/>
		<g>
			<path class="st36" d="M-1220.8,670.7c0.8,5.6,1.5,42.5,2.3,55.7h-87.1c-0.3-10.7-0.6-46.7-0.8-58.3
				C-1257.7,677.3-1228.6,672.4-1220.8,670.7z"/>
			<path class="st37" d="M-1306.3,668.9c-0.7-40.9-0.5-80.7,2.7-96.7c0,0,74.1-5.5,78.2,12.3c0,0,8.2,41.6,9.6,54l-8.2,1.4l1.4,11
				c0,0-30.2,0-43.9-22c0,0,0,37,45.3,35.7c0,0,0.2,2.9,0.5,6.8C-1228.6,673-1257.6,678-1306.3,668.9z"/>
			<path class="st38" d="M-1311.1,566.3c6.1-1.5,12.3-2.3,18.3-2.6l8-19.7c0,0,52.4-11.2,70.5,4.9c18.2,16.1,7.7,32.1,2.1,42.6
				s4.9,12.6,9.1,10.5c0,0-7.7,14-30.7-0.7c-18-11.4-16.8-16.1-26.7-18.9c-12.2-1.2-23.9,0-25.8,1.9c-2.3,2.2-1.7,5.6-1.4,8.4
				c0.3,2.6,1.5,5.6,2.8,8.4c-1.2,1.7-2.9,2.8-4.5,4c-2.7-4.3-6.4-8.7-10.3-7.9c-2.9,0.6-6.8,39.8-6.8,39.8
				C-1317.9,599.5-1311.1,566.3-1311.1,566.3z"/>
		</g>
		<polygon class="st39" points="-1251.4,679.6 -1245.8,713.7 -1254,721.9 -1262.6,713.2 -1258.4,679.6 -1254.2,675.4 		"/>
		<g>
			<path class="st38" d="M-1282,606.7c0.9,1.5,1.6,2.5,1.6,2.5l-5.3,3.8c0,0-0.5-1.2-1.3-2.8C-1285.1,609.3-1283.4,608.1-1282,606.7
				z"/>
			<path class="st38" d="M-1284.3,602.7c0.5,1,1,1.9,1.5,2.7c-1.4,1.4-3,2.5-4.7,3.4c-0.4-0.7-0.8-1.5-1.2-2.3
				C-1287.2,605.2-1285.6,604.2-1284.3,602.7z"/>
			
				<ellipse transform="matrix(0.1855 0.9826 -0.9826 0.1855 -460.3039 1774.6896)" class="st37" cx="-1300.7" cy="609.7" rx="13.8" ry="10.6"/>
		</g>
		<g>
			<path class="st40" d="M-1220.8,670.5c0,0,0.1,0.9,0.1,1.2c-6,10.4-18.3,24.3-18.3,24.3l-15.8-18.6l-13.8,19.4
				c-9-4.3-32-22.8-37.8-27.6c0-0.1,0-0.8,0-1C-1258.6,677.4-1225.8,671.6-1220.8,670.5z"/>
		</g>
		<polygon class="st39" points="-1305.5,731.9 -1217.8,731.9 -1218.3,724.4 -1305.8,724.4 		"/>
		<g>
			<rect x="-1248" y="755.8" class="st35" width="15" height="34.4"/>
			<path class="st39" d="M-1233.1,788c0,0,10.6,5.3,15.9,13.5h-30.8V788H-1233.1z"/>
		</g>
		<g>
			<rect x="-1287.8" y="755.8" class="st35" width="15" height="34.4"/>
			<path class="st39" d="M-1272.9,788c0,0,10.6,5.3,15.9,13.5h-30.8V788H-1272.9z"/>
		</g>
		<g>
			<g>
				<ellipse class="st41" cx="-1231.5" cy="616.8" rx="1.9" ry="3.8"/>
				<ellipse class="st41" cx="-1257" cy="616.8" rx="1.9" ry="3.8"/>
			</g>
			<path class="st42" d="M-1223.7,625.6c0,0-7.9-4.3-18.3-5.4L-1223.7,625.6z"/>
			<path class="st42" d="M-1247,625.8c0,0-7.9-4.3-18.3-5.4L-1247,625.8z"/>
			<path class="st42" d="M-1252.3,626.1c0,0-7.9-4.3-18.3-5.4L-1252.3,626.1z"/>
		</g>
		<path class="st42" d="M-1303.4,602.6c0,0,9.2,1.5,9.2,9.2c0,5.3-5.7,7.6-6.9,7.2C-1301.1,619-1290,611.4-1303.4,602.6z"/>
	</g>
	<g>
		<g>
			<polygon class="st57" points="-1233.2,704.5 -1189.8,697.4 -1189.8,705.7 -1233.2,705.7 			"/>
			<g>
				<polygon class="st54" points="-1117.3,696.4 -1185.6,709.6 -1190.1,707.6 -1190.3,627.2 -1185.6,626.3 -1117.3,640.3 				"/>
				<polygon class="st57" points="-1112.6,696.5 -1185.6,709.6 -1185.6,626.3 -1112.6,639.4 				"/>
			</g>
			<polygon class="st54" points="-1233.7,706.8 -1185.6,709.8 -1186.6,704.5 -1233.7,704.5 			"/>
			<ellipse class="st57" cx="-1188.1" cy="707" rx="1" ry="1.5"/>
		</g>
		<g class="st58">
			<path class="st43" d="M-1150.1,670.9L-1150.1,670.9L-1150.1,670.9z"/>
			<path class="st43" d="M-1149.9,671.9L-1149.9,671.9c-0.1-0.3-0.1-0.5-0.2-0.8C-1150,671.3-1149.9,671.6-1149.9,671.9z"/>
			<path class="st43" d="M-1148.6,674.4C-1148.6,674.4-1148.6,674.3-1148.6,674.4C-1148.6,674.3-1148.6,674.4-1148.6,674.4z"/>
			<path class="st43" d="M-1148.7,674.2l-0.1-0.1C-1148.8,674.1-1148.8,674.2-1148.7,674.2z"/>
			<path class="st43" d="M-1149.5,672.9c0.2,0.4,0.4,0.8,0.7,1.2C-1149.1,673.7-1149.3,673.3-1149.5,672.9L-1149.5,672.9z"/>
			<path class="st43" d="M-1139.3,661.8c0.4,0.1,0.6,0.2,0.9,0.3l0.1-0.6c0,0-0.8-0.5-2-0.7l-0.1-0.4c0.4,0,0.7-0.3,0.7-0.7
				c0-0.5-0.4-1-0.8-1.1c-0.5-0.2-0.9,0.1-0.9,0.6c0,0.4,0.3,0.9,0.7,1.1l0.1,0.4c-1.4-0.2-2.7,0.1-2.7,0.1l0.2,0.7
				c1-0.1,1.7-0.1,2.4,0C-1140.1,661.7-1139.6,661.8-1139.3,661.8z"/>
			<path class="st43" d="M-1148.6,664L-1148.6,664c0.1-0.1,0.1-0.1,0.2-0.1l-0.4-0.3l-0.7-0.5c0,0-1.2,0.7-2.2,2.2
				c0-0.1-0.1-0.1-0.2-0.2c-0.3-0.3-0.8-0.4-1.3-0.4l0,0c-0.4,0-0.6-0.1-0.8-0.2c0.2-0.1,0.3-0.3,0.3-0.5c0-0.5-0.6-0.9-1.3-1
				c-0.8-0.1-1.4,0.3-1.4,0.8s0.6,1,1.4,1c0.1,0,0.2,0,0.3,0c0.3,0.3,0.8,0.5,1.5,0.5c0.4,0,0.6,0.1,0.8,0.2
				c0.2,0.2,0.3,0.4,0.3,0.5l0,0c-0.8,1.5-0.5,3.3-0.5,3.3h1.8c0-0.6,0.2-1.8,0.6-2.6C-1149.6,665-1148.7,664.1-1148.6,664z"/>
			<path class="st43" d="M-1133.9,663.6c-0.2,0-0.3,0.1-0.3,0.4v0.1c-0.1,0.1-0.2,0.2-0.2,0.5c0,0.1,0,0.2-0.1,0.3l-0.1,0.1
				c-0.4-0.8-0.9-1.3-0.9-1.3l-0.4,0.5c0.3,0.4,0.6,0.9,0.9,1.5c0.2,0.4,0.4,0.9,0.6,1.4l0.5-0.3c0,0-0.2-0.7-0.5-1.4
				c0.1,0,0.1-0.1,0.2-0.1c0.1-0.1,0.1-0.3,0.1-0.5c0-0.1,0-0.2,0.1-0.3c0.1,0.1,0.1,0.1,0.2,0.1c0.2,0,0.3-0.1,0.3-0.4
				C-1133.6,663.8-1133.7,663.6-1133.9,663.6z"/>
			<path class="st43" d="M-1135.2,669.5c-0.8,0.6-2.2,1.4-4.3,2.1c-0.9,0.3-1.9,0.5-2.9,0.7c-1.4,0.2-2.7,0.4-3.8,0.4
				c-1.4,0.1-2.5,0.1-3.3,0.1c0.2,0.4,0.4,0.8,0.7,1.2l0,0l0.1,0.1l0.1,0.1l0,0c0.4,0.5,0.9,1,1.5,1.3c1.8,1.1,3.4,0.9,3.4,0.9l0,0
				l0,0c0,0,1.3,0,3.1-0.6c1.5-0.5,2.9-1.2,4-2.2c0.8-0.7,1.5-1.6,1.8-2.3c0.2-0.5,0.4-1.1,0.5-1.6c0.1-0.3,0.1-0.7,0.1-1.2
				C-1134.4,669-1134.7,669.2-1135.2,669.5z"/>
			<path class="st43" d="M-1148,664.5c-0.1,0.1-0.9,1-1.6,2.4c-0.6,1.1-0.5,2.8-0.5,2.8l0,0c0,0.4,0,0.8,0.1,1.2l0,0v0.1
				c0,0.3,0.1,0.5,0.2,0.8c1,0.1,6.1,0.3,10.3-0.9c2.1-0.6,3.4-1.4,4.2-1.9c0.6-0.4,0.9-0.7,1.1-0.9c-0.1-0.7-0.5-1.7-0.9-2.4
				c-1.1-2.1-2.4-2.9-3.2-3.2c-0.3-0.1-0.5-0.2-0.9-0.3c-0.3-0.1-0.8-0.1-1.4-0.2c-0.6-0.1-1.4,0-2.3,0.1c-1.4,0.2-2.8,0.7-4,1.4
				l0,0C-1147.2,663.8-1147.5,664-1148,664.5z M-1136.8,664.9c0.6,0.1,1,0.7,1,1.3c0,0.7-0.4,1.2-1,1.2c-0.6,0-1.1-0.6-1.1-1.3
				C-1137.9,665.4-1137.4,664.9-1136.8,664.9z M-1143.3,664.2c1.5,0.2,2.6,1.4,2.6,2.7c0,1.3-1.1,2.5-2.6,2.6
				c-1.7,0.1-3.2-1.1-3.2-2.7C-1146.4,665.1-1144.9,664-1143.3,664.2z"/>
		</g>
	</g>
	<g>
		<path class="st37" d="M-1213.2,687.1c0,0,14.3-8.1,15.4-6.6s1.9,4.8,1.9,4.8l-3.7,1.8l7.4,3.3l-0.3,4.9l-8.3-0.3l6,3.5l-2.9,4.5
			l-17-3.1L-1213.2,687.1z"/>
		<rect x="-1296.1" y="684.5" class="st36" width="84.7" height="15.7"/>
	</g>
</g>
<g>
	<g>
		
			<linearGradient id="SVGID_38_" gradientUnits="userSpaceOnUse" x1="-1074" y1="33.1" x2="-948" y2="33.1" gradientTransform="matrix(1 0 0 -1 0 796)">
			<stop  offset="0" style="stop-color:#2E95AA"/>
			<stop  offset="0.9903" style="stop-color:#007E97"/>
		</linearGradient>
		<ellipse class="st59" cx="-1011" cy="762.9" rx="63" ry="16"/>
		<g>
			<rect x="-1083.8" y="567.1" class="st43" width="156.7" height="115.8"/>
			<path class="st60" d="M-1008.7,746.6v-61c0-1.3,1.6-2.3,3.6-2.3l0,0c2,0,3.6,1,3.6,2.3v61c0,1.3-1.6,2.3-3.6,2.3l0,0
				C-1007.1,748.9-1008.7,747.9-1008.7,746.6z"/>
			<path class="st61" d="M-1005.4,568.7h78.3h3.6v2.2v112.8v2.2h-3.6h-78.3v-4.4h74.8V573.1h-74.8V568.7z M-1083.7,568.7h78.3v4.4
				h-74.8v108.4h74.8v4.4h-78.3h-3.6v-2.2V570.9v-2.2L-1083.7,568.7L-1083.7,568.7z"/>
			<g>
				<path class="st60" d="M-1065.4,766.3l39.1-78.4h7.6l-39.7,79.8C-1060.2,771.1-1067.2,770.3-1065.4,766.3z"/>
				<path class="st60" d="M-944.7,766.3l-39.1-78.4h-7.6l39.7,79.8C-950.2,770.7-943,769.7-944.7,766.3z"/>
			</g>
			<rect x="-1041.5" y="725.2" class="st60" width="72.8" height="4.6"/>
			<g>
				<polygon class="st62" points="-930.6,664.4 -945.2,681.5 -930.6,681.5 				"/>
				<path class="st63" d="M-930.6,664.4l-14.5,17.1c1.5-6,1-12.1-2.6-18.1C-942.3,667.3-936.6,667.2-930.6,664.4z"/>
			</g>
			<g>
				<circle class="st64" cx="-1036.4" cy="619.9" r="34.8"/>
				<path class="st65" d="M-1017.3,648.9c5-3.3,9.1-7.8,11.8-13.2l-31-15.8L-1017.3,648.9z"/>
				<path class="st66" d="M-1005.4,635.7c2.4-4.8,3.8-10.1,3.8-15.8c0-11.1-5.2-21-13.3-27.4l-21.4,27.4L-1005.4,635.7z"/>
				<path class="st67" d="M-1015,592.5c-5.9-4.6-13.4-7.4-21.4-7.4v34.8L-1015,592.5z"/>
				<path class="st68" d="M-1036.4,585.1v34.8l-24.8-24.4C-1054.9,589.1-1046.1,585.1-1036.4,585.1z"/>
			</g>
			<g>
				<circle class="st64" cx="-982.3" cy="650.3" r="12.3"/>
				<path class="st65" d="M-975.6,660.5c1.8-1.2,3.2-2.8,4.2-4.7l-10.9-5.6L-975.6,660.5z"/>
				<path class="st66" d="M-971.4,655.9c0.9-1.7,1.3-3.6,1.3-5.6c0-3.9-1.8-7.4-4.7-9.7l-7.6,9.7L-971.4,655.9z"/>
				<path class="st67" d="M-974.8,640.6c-2.1-1.6-4.7-2.6-7.6-2.6v12.3L-974.8,640.6z"/>
				<path class="st68" d="M-982.3,638v12.3l-8.8-8.6C-988.9,639.4-985.8,638-982.3,638z"/>
			</g>
			<g>
				<circle class="st69" cx="-952.7" cy="650.3" r="12.3"/>
				<path class="st70" d="M-946,660.5c1.8-1.2,3.2-2.8,4.2-4.7l-10.9-5.6L-946,660.5z"/>
				<path class="st71" d="M-941.8,655.9c0.9-1.7,1.3-3.6,1.3-5.6c0-3.9-1.8-7.4-4.7-9.7l-7.6,9.7L-941.8,655.9z"/>
				<path class="st72" d="M-945.1,640.6c-2.1-1.6-4.7-2.6-7.6-2.6v12.3L-945.1,640.6z"/>
				<path class="st73" d="M-952.7,638v12.3l-8.8-8.6C-959.2,639.4-956.1,638-952.7,638z"/>
			</g>
			<g>
				<rect x="-989.4" y="625.8" class="st74" width="46" height="2.3"/>
				<rect x="-951.7" y="578.6" class="st65" width="8.2" height="47.2"/>
				<rect x="-961.1" y="596.4" class="st66" width="8.2" height="29.4"/>
				<rect x="-970.6" y="606.3" class="st67" width="8.2" height="19.4"/>
				<rect x="-980" y="597.2" class="st68" width="8.2" height="28.6"/>
				<rect x="-989.4" y="605.3" class="st64" width="8.2" height="20.4"/>
			</g>
			<g>
				<path class="st60" d="M-1089,684.4h168c2,0,3.6,1,3.6,2.3l0,0c0,1.3-1.6,2.3-3.6,2.3h-168c-2,0-3.6-1-3.6-2.3l0,0
					C-1092.6,685.4-1091,684.4-1089,684.4z"/>
				<path class="st60" d="M-1089,564.1h168c2,0,3.6,1,3.6,2.3l0,0c0,1.3-1.6,2.3-3.6,2.3h-168c-2,0-3.6-1-3.6-2.3l0,0
					C-1092.6,565.1-1091,564.1-1089,564.1z"/>
			</g>
			<rect x="-1067.1" y="666.2" class="st64" width="5.9" height="5.9"/>
			<rect x="-1056.1" y="666.2" class="st68" width="5.9" height="5.9"/>
			<rect x="-1045.1" y="666.2" class="st67" width="5.9" height="5.9"/>
			<rect x="-1034.1" y="666.2" class="st66" width="5.9" height="5.9"/>
			<rect x="-1023.1" y="666.2" class="st65" width="5.9" height="5.9"/>
			<rect x="-1012.1" y="666.2" class="st71" width="5.9" height="5.9"/>
		</g>
	</g>
	
		<linearGradient id="SVGID_39_" gradientUnits="userSpaceOnUse" x1="-968.4" y1="-4.4" x2="-840.8" y2="-4.4" gradientTransform="matrix(1 0 0 -1 0 796)">
		<stop  offset="0" style="stop-color:#2E95AA"/>
		<stop  offset="0.9903" style="stop-color:#007E97"/>
	</linearGradient>
	<ellipse class="st75" cx="-904.6" cy="800.4" rx="63.8" ry="8.6"/>
	<g>
		<path class="st35" d="M-939.2,729.9c-0.9,16.7-0.8,24.1-0.9,26.6h86.4c0,0,0.9,1.9,1.8-26.6H-939.2z"/>
		<g>
			<path class="st36" d="M-936.5,670.7c-0.8,5.6-1.5,42.5-2.3,55.7h87.1c0.3-10.7,0.6-46.7,0.8-58.3
				C-899.6,677.3-928.7,672.4-936.5,670.7z"/>
			<path class="st37" d="M-851,668.9c0.7-40.9,0.5-80.7-2.7-96.7c0,0-74.1-5.5-78.2,12.3c0,0-8.2,41.6-9.6,54l8.2,1.4l-1.4,11
				c0,0-1.6,16.6-1.9,20.5C-928.7,673-899.7,678-851,668.9z"/>
			<path class="st38" d="M-846.2,566.3c-6.1-1.5-12.3-2.3-18.3-2.6l-8-19.7c0,0-52.4-11.2-70.5,4.9c-18.2,16.1-7.7,32.1-2.1,42.6
				c5.6,10.5-4.9,12.6-9.1,10.5c0,0,7.7,14,30.7-0.7c18-11.4,16.8-16.1,26.7-18.9c12.2-1.2,23.9,0,25.8,1.9c2.3,2.2,1.7,5.6,1.4,8.4
				c-0.3,2.6-1.5,5.6-2.8,8.4c1.2,1.7,2.9,2.8,4.5,4c2.7-4.3,6.4-8.7,10.3-7.9c2.9,0.6,6.8,39.8,6.8,39.8
				C-839.4,599.5-846.2,566.3-846.2,566.3z"/>
		</g>
		<polygon class="st39" points="-905.9,679.6 -911.5,713.7 -903.3,721.9 -894.7,713.2 -898.9,679.6 -903.1,675.4 		"/>
		<g>
			<path class="st38" d="M-875.4,606.7c-0.9,1.5-1.6,2.5-1.6,2.5l5.3,3.8c0,0,0.5-1.2,1.3-2.8C-872.2,609.3-873.9,608.1-875.4,606.7
				z"/>
			<path class="st38" d="M-873,602.7c-0.5,1-1,1.9-1.5,2.7c1.4,1.4,3,2.5,4.7,3.4c0.4-0.7,0.8-1.5,1.2-2.3
				C-870.1,605.2-871.8,604.2-873,602.7z"/>
			
				<ellipse transform="matrix(0.1855 -0.9826 0.9826 0.1855 -1296.7513 -345.2896)" class="st37" cx="-856.7" cy="609.6" rx="13.8" ry="10.6"/>
		</g>
		<g>
			<path class="st40" d="M-936.5,670.5c0,0-0.1,0.9-0.1,1.2c6,10.4,18.3,24.3,18.3,24.3l15.8-18.6l13.8,19.4
				c9-4.3,32-22.8,37.8-27.6c0-0.1,0-0.8,0-1C-898.7,677.4-931.5,671.6-936.5,670.5z"/>
		</g>
		<polygon class="st39" points="-851.8,731.9 -939.5,731.9 -939.1,724.4 -851.5,724.4 		"/>
		<g>
			<rect x="-924.3" y="755.8" class="st35" width="15" height="34.4"/>
			<path class="st39" d="M-924.2,788c0,0-10.6,5.3-15.9,13.5h30.8V788H-924.2z"/>
		</g>
		<g>
			<rect x="-884.5" y="755.8" class="st35" width="15" height="34.4"/>
			<path class="st39" d="M-884.4,788c0,0-10.6,5.3-15.9,13.5h30.8V788H-884.4z"/>
		</g>
		<g>
			<g>
				<ellipse class="st41" cx="-925.8" cy="616.8" rx="1.9" ry="3.8"/>
				<ellipse class="st41" cx="-900.3" cy="616.8" rx="1.9" ry="3.8"/>
			</g>
			<path class="st42" d="M-933.7,625.6c0,0,7.9-4.3,18.3-5.4L-933.7,625.6z"/>
			<path class="st42" d="M-910.4,625.8c0,0,7.9-4.3,18.3-5.4L-910.4,625.8z"/>
			<path class="st42" d="M-905,626.1c0,0,7.9-4.3,18.3-5.4L-905,626.1z"/>
		</g>
		<path class="st42" d="M-853.9,602.6c0,0-9.2,1.5-9.2,9.2c0,5.3,5.7,7.6,6.9,7.2C-856.2,619-867.3,611.4-853.9,602.6z"/>
		<g>
			<path class="st76" d="M-905.6,661.8c0,0,9.9-13.5,8.5-14.8s-4.6-2.6-4.6-2.6l-2.3,3.6l-2.4-7.9l-5-0.3l-0.7,8.5l-2.9-6.6
				l-4.9,2.4l1.1,17.6L-905.6,661.8z"/>
			<path class="st36" d="M-863.2,694l-2.8,0.8c-0.1,0-6,1.6-13.2,1.6c-7.9,0-14-1.8-18.2-5.4c-6.2-5.3-8.5-15.1-6.8-29.1l0.1-1
				h-15.8c-2.1,19.1,2,33.3,12.2,42.1c7.1,6.1,16.7,9.2,28.5,9.2c9.2,0,16.5-2,17.3-2.2l2.8-0.8L-863.2,694z"/>
		</g>
		<g>
			<path class="st37" d="M-940,723.1c0,0,14.7,8.1,13.9,9.9c-0.7,1.8-3.1,4.3-3.1,4.3l-3.6-2.3l1.1,8.2l-4.4,2.3l-4.2-7.4l0.2,7.1
				l-5.5-0.2l-6.4-16.5L-940,723.1z"/>
			<path class="st36" d="M-945.9,694.5c1.8-3.9,4.8-6,9.5-8.9l0.8-20.1c-0.7,0.3-17.6,9.9-23.5,21.1c-6.3,12-3.4,26.9,6.5,43.4
				l14.3-6.6l-0.5-0.9C-946.1,710.5-949.3,701.9-945.9,694.5z"/>
		</g>
	</g>
</g>
<g>
	<g>
		
			<linearGradient id="SVGID_40_" gradientUnits="userSpaceOnUse" x1="-745.2149" y1="-10.6912" x2="-624.115" y2="-10.6912" gradientTransform="matrix(1 -4.300000e-003 -4.300000e-003 -1 -25.731 787.7147)">
			<stop  offset="0" style="stop-color:#2E95AA"/>
			<stop  offset="0.9903" style="stop-color:#007E97"/>
		</linearGradient>
		<path class="st77" d="M-649.8,801.1c0,4.5-27.1,8.3-60.5,8.4c-33.4,0.1-60.5-3.4-60.6-7.9c0-4.5,27.1-8.3,60.5-8.4
			C-676.9,793.1-649.8,796.6-649.8,801.1z"/>
		<g>
			<path class="st35" d="M-728.3,690.5c-6.7,14.4-9.3,20.9-10.3,23.1l77.4,26.9c0,0,8.4-11.9,13.4-32.3L-728.3,690.5z"/>
			<g>
				<path class="st36" d="M-716.3,637.3c-1.7,5.1-8.6,39.5-11.6,51.6l81.3,14.8c2.1-9.9,8.5-43.5,10.6-54.3
					C-683,649.7-709.3,640.2-716.3,637.3z"/>
				<path class="st37" d="M-636.2,650.1c7.6-38.1,14.2-75.3,14-90.8c0,0-68.2-17.7-75.1-1.8c0,0-14.8,37.5-18.1,48.8l7.5,2.7
					l-3.1,10c0,0,28.2,5.1,44.7-13c0,0-6.3,34.6-48.3,25.6c0,0-0.7,2.7-1.6,6.2C-709.4,640.8-683.2,650.4-636.2,650.1z"/>
				<path class="st38" d="M-614.2,555.2c-5.5-2.4-11.1-4.2-16.7-5.6L-635,530c0,0-47-19.3-66.7-7.4c-19.7,11.9-12.6,28.7-9.2,39.4
					c3.4,10.7-6.7,10.9-10.3,8.2c0,0,4.8,14.3,28.8,4.6c18.7-7.6,18.5-12.2,28.2-13.1c11.6,0.9,22.3,4.1,23.8,6.1
					c1.8,2.4,0.7,5.6-0.1,8.1c-0.7,2.4-2.3,5-4,7.4c0.8,1.8,2.2,3.1,3.5,4.5c3.2-3.6,7.4-7,11-5.6c2.7,1.1-0.5,38.3-0.5,38.3
					C-613.5,587.4-614.2,555.2-614.2,555.2z"/>
			</g>
			<polygon class="st39" points="-689.2,650.8 -700.3,681.7 -694,690.7 -684.5,684.1 -682.7,652 -685.9,647.4 			"/>
			<g>
				<path class="st38" d="M-648.3,588c-1.1,1.3-1.9,2.1-1.9,2.1l4.3,4.4c0,0,0.6-1,1.7-2.4C-645.9,590.9-647.2,589.6-648.3,588z"/>
				<path class="st38" d="M-645.5,584.6c-0.6,0.8-1.3,1.6-1.9,2.3c1,1.5,2.4,2.9,3.9,4c0.5-0.6,1-1.3,1.5-1.9
					C-643.2,587.5-644.5,586.2-645.5,584.6z"/>
				
					<ellipse transform="matrix(0.3585 -0.9335 0.9335 0.3585 -959.4581 -208.4342)" class="st37" cx="-631.4" cy="593.9" rx="13.1" ry="10.1"/>
			</g>
			<g>
				<path class="st40" d="M-716.2,637.2c0,0-0.3,0.8-0.3,1.1c3.8,10.7,12.9,25.8,12.9,25.8l17.9-14.7l9.6,20.5
					c9.1-2.5,33.8-15.9,40-19.4c0-0.1,0.2-0.8,0.2-0.9C-682.1,650-711.8,639-716.2,637.2z"/>
			</g>
			<polygon class="st39" points="-647.6,708.9 -729.5,693.9 -727.8,687 -646.1,702 			"/>
			<g>
				<g>
					
						<ellipse transform="matrix(0.1791 -0.9838 0.9838 0.1791 -1151.5948 -202.5495)" class="st41" cx="-697.2" cy="588.8" rx="3.6" ry="1.8"/>
					
						<ellipse transform="matrix(0.1792 -0.9838 0.9838 0.1792 -1136.1123 -175.6116)" class="st41" cx="-673.3" cy="593.1" rx="3.6" ry="1.8"/>
				</g>
				<path class="st42" d="M-706,595.7c0,0,8.1-2.7,18-1.9L-706,595.7z"/>
				<path class="st42" d="M-684.2,599.8c0,0,8.1-2.7,18-1.9L-684.2,599.8z"/>
				<path class="st42" d="M-679.3,601.1c0,0,8.1-2.7,18-1.9L-679.3,601.1z"/>
			</g>
			<path class="st42" d="M-627.6,587.8c0,0-8.8-0.1-10.1,7c-0.9,5,4,8.1,5.2,7.9C-632.6,602.7-641.6,593.7-627.6,587.8z"/>
			<g>
				<g>
					<path class="st35" d="M-665.4,733.5l-14.8-2.1v1c-0.3,13.4-3.8,22.3-10.3,26.5c-4.4,2.8-10.4,3.7-17.8,2.7
						c-1.6-0.2-3-0.5-4.4-0.8c-1.1,4.8-2.6,9.7-4.4,14.3c2,0.5,4.2,1,6.6,1.3c11.1,1.6,20.5,0,28-4.8
						C-671.7,764.5-666,751.8-665.4,733.5z"/>
				</g>
				<g>
					<path class="st35" d="M-720.4,701l9.3,11.7l-0.8,0.5c-11.4,7-17.4,14.5-17.7,22.2c-0.2,5.2,2,10.9,6.7,16.8
						c1,1.2,2,2.4,2.9,3.4c-3.6,3.4-7,7.1-10.1,11c-1.4-1.5-2.9-3.2-4.4-5c-7-8.8-10.3-17.7-10-26.6C-744,722-735.8,710.6-720.4,701
						z"/>
				</g>
				<g>
					<g>
						<path class="st39" d="M-737.6,758.2c0,0-3.7,11.6-1.4,21.4l22.1-22.7l-10-9.7L-737.6,758.2z"/>
					</g>
					<g>
						<path class="st39" d="M-709.8,775.4c0,0-8.2,9-17.9,11.9l8.7-30.5l13.4,3.8L-709.8,775.4z"/>
					</g>
				</g>
			</g>
			<path class="st78" d="M-704.1,755.1c-0.1,0-0.2,0-0.3,0c-4.8,0.1-5.2-1.7-1.4-5.6c0.1,0,0.3-0.1,0.4-0.2c0.6-0.3,0.3-1.2-0.3-1.2
				c-1.2,0-2.2,0.3-2.9,0.8c-3,0-3.2-3.8-2.1-6.5c1.3-0.8,2.5-1.7,3.5-2.4c0.4-0.3,0.4-0.9-0.1-1.1c-1.7-0.6-3.2,0.7-4.2,2.5
				c-1.4,0.8-2.8,1.5-4.2,2.1c-1.9,0.8-5.5,3-7.4,0.6c-1.5-2-1.9-5.6-1-7.8c0.2-0.5-0.7-0.9-0.9-0.4c-1.1,2.5-0.9,9.8,2.7,10.4
				c3,0.5,6.5-0.9,9.7-2.7c-0.3,0.9-0.5,1.8-0.6,2.5c-0.1,2.4,1.7,3.5,3.7,3.8c-1.5,2.4,0,6.4,3.8,6.7c0.1,0,0.1,0,0.2,0h0.1
				c0.4,0,0.9,0,1.4-0.1C-703.2,756.3-703.4,755-704.1,755.1z"/>
			<path class="st78" d="M-743.2,782.1c-1.4-1-4.3-3-7-3.9c2-2.1,3.5-5.5,4-7.3c0.6-2-0.5-4.3-2-5.4c3.9-2.4,5.7-6.9,4.3-11.8
				c-0.1-0.2-0.3-0.4-0.5-0.4c-1.4,0-1.1,0-2.2,0.8c-0.4,0.3,0.2,1.1,0.6,0.8c0.5,0.6,1,1.1,1.6,1.7c0.1,1.8-0.3,3.5-1.3,5.1
				c-0.8,1.5-2.1,2.6-3.7,3.4c-1-0.2-2,0.1-3,1.1c-0.4,0.4,0,1,0.5,0.9c0.1,0,0.2-0.1,0.3-0.1c1.4,0.9,2.9,1.7,4.3,2.6
				c-0.1,1.6-0.6,3.1-1.5,4.4c-0.6,1.1-1.5,2-2.2,3c-0.3,0.4-0.6,0.7-0.8,1c-1.4-0.2-2.6,0.1-3.5,1.2c-0.2,0.2-0.1,0.6,0.2,0.8
				c1.3,0.6,2.5,0.3,3.7-0.6c0.2,0.1,0.5,0.2,0.9,0.3c2.5,0.7,4.6,2.1,6.7,3.5C-743.1,783.4-742.6,782.5-743.2,782.1z"/>
			<path class="st78" d="M-701.1,778c-3.4-2-4.6,3-4.7,6.5c-0.8-0.2-1.8,0.2-2.9,0.7c-0.2,0.1-0.3,0.1-0.4,0.3
				c-1.4,2.5-2.2,2.5-4.7,1.9c-2.1-0.5-4.3-0.4-6.4,0.1c-0.8,0.2-0.4,1.3,0.3,1.2c2.4-0.3,4.5-0.3,6.8,0.3c0.9,0.2,1.7,0.8,2.6,0.5
				c0.4-0.1,3.8-6,4.7-2.8c0,0.1,0.1,0.3,0.1,0.4c0.2,0.8,1.3,0.4,1.2-0.3c0-0.2-0.1-0.4-0.1-0.6c-0.3-2.3-0.6-9.3,2.9-7.4
				C-701,779.1-700.5,778.3-701.1,778z"/>
		</g>
		<g>
			<path class="st37" d="M-749.5,612.4c0,0,12.7-9.5,11.8-11.1s-3.5-3.6-3.5-3.6l-3.1,2.6v-7.9l-4.5-1.6l-3,7.5l-0.8-6.7l-5.1,0.9
				l-3.9,16.3L-749.5,612.4z"/>
			<path class="st36" d="M-718.1,653.5l-4.6-0.3c-0.1,0-5.9-0.2-12.4-2.2c-7.2-2.2-12.2-5.5-15-9.9c-4.2-6.5-3.5-16.1,1.9-28.3
				l0.4-0.9l-14.3-4.3c-7.2,16.8-7.4,30.8-0.5,41.6c4.8,7.5,12.7,13,23.4,16.2c8.4,2.5,15.5,2.8,16.3,2.8l2.8,0.1L-718.1,653.5z"/>
		</g>
		<g>
			<path class="st37" d="M-607.9,628.8c0,0-8.2-13.6-6.8-14.7c1.4-1.1,4.6-2,4.6-2l1.9,3.6l3-7.3l4.7,0.2l-0.1,8.1l3.3-5.9l4.4,2.7
				l-2.5,16.6L-607.9,628.8z"/>
			<path class="st36" d="M-594.3,629l-14.9-1.4v1c0.4,13.4-2.6,22.5-8.9,27c-4.3,3-10.2,4.2-17.7,3.6c-1.6-0.1-3.1-0.4-4.4-0.6
				c-0.9,4.9-2.1,9.8-3.7,14.5c2,0.4,4.3,0.7,6.7,1c11.2,1,20.5-1.1,27.8-6.2C-599,660.3-593.9,647.3-594.3,629z"/>
		</g>
	</g>
	<g>
		<path id="XMLID_551_" class="st79" d="M-724.6,585.5l-1.9-1.4c-0.8-0.6-2-0.4-2.7,0.4l-4.1,5.5c-0.6,0.8-0.4,2,0.4,2.7l1.9,1.4
			c0.8,0.6,2,0.4,2.7-0.4l4.1-5.5C-723.6,587.3-723.7,586.1-724.6,585.5z"/>
		<path id="XMLID_550_" class="st80" d="M-760.6,609.3c3,1.8,6.9,0.9,8.8-2.1l11.1-17.9c1.8-3,0.9-6.9-2.1-8.8
			c-3-1.8-6.9-0.9-8.8,2.1l-11.1,17.9C-764.6,603.5-763.6,607.5-760.6,609.3z"/>
		<path id="XMLID_549_" class="st43" d="M-771.5,558c-2.3,3.3-6.8,4.1-10,1.8c-3.3-2.3-4.1-6.8-1.8-10c2.3-3.3,6.8-4.1,10-1.8
			C-770,550.3-769.2,554.8-771.5,558z"/>
		<path id="XMLID_548_" class="st43" d="M-789.4,574.3c0,0,14.1-2.3,20.9,2.4l9.7,6.7l11,1l8.1-14l-3.4-10l-9.5-6.6
			c-9.1-6.7-9.2-19.1-9.2-19.1L-789.4,574.3z"/>
		<g id="XMLID_546_">
			<path id="XMLID_547_" class="st81" d="M-728.3,570.8c4.7,3.3,5.7,9.8,2.3,14.7l-3.7,5.3c-3.4,4.8-9.9,6.1-14.6,2.9l-14.8-10.3
				l15.9-22.8L-728.3,570.8z"/>
		</g>
		<g id="XMLID_544_">
			<path id="XMLID_545_" class="st81" d="M-794.3,571.3c-1,1.4-0.6,3.3,0.8,4.3c1.4,1,3.3,0.6,4.3-0.8l27.7-39.7
				c1-1.4,0.6-3.3-0.8-4.3c-1.4-1-3.3-0.6-4.3,0.8L-794.3,571.3z"/>
		</g>
	</g>
	<path class="st43" d="M-779.8,538.4c-1.1-3.8-2.3-7.6-3.4-11.4c-0.2-0.7-1.1-0.8-1.4-0.2c-0.5,0.8-0.9,1.6-1.3,2.4
		c-1.1-3-2.1-6-3.2-9c-0.5-1.5-0.8-3-2.6-3c-0.3,0-0.6,0.2-0.7,0.4c-0.1,0.2-0.1,0.3-0.2,0.5c-0.4,0.8,0.5,1.5,1.2,0.9
		c-0.5,0.5,4.3,11.6,4.7,12.8c0.3,0.7,1.3,0.8,1.6,0c0.3-0.9,0.6-1.8,1-2.6c1,3.2,2,6.4,3,9.5C-780.8,539.6-779.5,539.2-779.8,538.4
		z"/>
	<path class="st43" d="M-785.6,543.1c-1.9-3.1-4.1-6.1-6.2-9.1c-0.4-0.6-1.3-0.5-1.5,0.2c-0.4,1.2-0.7,2.3-0.8,3.4
		c-3.3-3.8-6.8-8.4-11.6-9.6c-0.8-0.2-1.4,1.1-0.6,1.4c5.2,2.3,8.6,6.9,12.4,11c0.5,0.5,1.5,0.1,1.5-0.6c0-1.2,0.1-2.3,0.3-3.4
		c1.8,2.6,3.6,5.1,5.5,7.6C-786.2,544.6-785.2,543.8-785.6,543.1z"/>
	<path class="st43" d="M-791.3,549.9c-2.4-0.1-4.8-0.1-7.3-0.1c-0.1-0.3-0.2-0.5-0.3-0.8c0.2-0.2,0.4-0.4,0.6-0.6
		c0.4-0.4,0.3-1-0.2-1.3c-2.9-1.7-6.4-2.6-9.7-1.7c-0.8,0.2-0.6,1.4,0.2,1.4c2.8-0.1,5.2,0.1,7.7,1.2c-0.1,0.1-0.2,0.2-0.3,0.3
		c-0.3,0.3-0.3,0.9,0,1.2c0.1,0.4,0.3,0.7,0.4,1.1c0,0.4,0.4,0.8,0.8,0.8c2.7,0,5.3,0,8-0.1C-790.3,551.3-790.3,549.9-791.3,549.9z"
		/>
</g>
<g>
	<g>
		
			<linearGradient id="SVGID_41_" gradientUnits="userSpaceOnUse" x1="-1195.5" y1="340.2" x2="-1067.9" y2="340.2" gradientTransform="matrix(1 0 0 -1 0 796)">
			<stop  offset="0" style="stop-color:#2E95AA"/>
			<stop  offset="0.9903" style="stop-color:#007E97"/>
		</linearGradient>
		<ellipse class="st82" cx="-1131.7" cy="455.8" rx="63.8" ry="8.6"/>
		<g>
			<path class="st35" d="M-1169,385.3c-0.9,16.7-0.8,24.1-0.9,26.6h86.4c0,0,0.9,1.9,1.8-26.6H-1169z"/>
			<g>
				<path class="st36" d="M-1166.3,326.1c-0.8,5.6-1.5,42.5-2.3,55.7h87.1c0.3-10.7,0.6-46.7,0.8-58.3
					C-1129.4,332.7-1158.5,327.8-1166.3,326.1z"/>
				<path class="st37" d="M-1080.8,324.3c0.7-40.9,0.5-80.7-2.7-96.7c0,0-74.1-5.5-78.2,12.3c0,0-8.2,41.6-9.6,54l8.2,1.4l-1.4,11
					c0,0,43.9,15.1-1.4,13.7c0,0-0.2,2.9-0.5,6.8C-1158.5,328.5-1129.5,333.4-1080.8,324.3z"/>
				<path class="st38" d="M-1076,221.7c-6.1-1.5-12.3-2.3-18.3-2.6l-8-19.7c0,0-52.4-11.2-70.5,4.9c-18.2,16.1-7.7,32.1-2.1,42.6
					s-4.9,12.6-9.1,10.5c0,0,7.7,14,30.7-0.7c18-11.4,16.8-16.1,26.7-18.9c12.2-1.2,23.9,0,25.8,1.9c2.3,2.2,1.7,5.6,1.4,8.4
					c-0.3,2.6-1.5,5.6-2.8,8.4c1.2,1.7,2.9,2.8,4.5,4c2.7-4.3,6.4-8.7,10.3-7.9c2.9,0.6,6.8,39.8,6.8,39.8
					C-1069.2,254.9-1076,221.7-1076,221.7z"/>
			</g>
			<polygon class="st39" points="-1135.7,335 -1141.3,369.1 -1133.1,377.3 -1124.5,368.7 -1128.7,335 -1132.9,330.8 			"/>
			<g>
				<path class="st38" d="M-1105.1,262.2c-0.9,1.5-1.6,2.5-1.6,2.5l5.3,3.8c0,0,0.5-1.2,1.3-2.8
					C-1102,264.7-1103.7,263.6-1105.1,262.2z"/>
				<path class="st38" d="M-1102.8,258.1c-0.5,1-1,1.9-1.5,2.7c1.4,1.4,3,2.5,4.7,3.4c0.4-0.7,0.8-1.5,1.2-2.3
					C-1099.9,260.7-1101.5,259.6-1102.8,258.1z"/>
				
					<ellipse transform="matrix(0.1855 -0.9826 0.9826 0.1855 -1145.4133 -851.6884)" class="st37" cx="-1086.5" cy="265.1" rx="13.8" ry="10.6"/>
			</g>
			<g>
				<path class="st40" d="M-1166.3,326c0,0-0.1,0.9-0.1,1.2c6,10.4,18.3,24.3,18.3,24.3l15.8-18.6l13.8,19.4
					c9-4.3,32-22.8,37.8-27.6c0-0.1,0-0.8,0-1C-1128.5,332.9-1161.3,327-1166.3,326z"/>
			</g>
			<polygon class="st39" points="-1081.6,387.3 -1169.3,387.3 -1168.8,379.8 -1081.3,379.9 			"/>
			<g>
				<rect x="-1154" y="411.2" class="st35" width="15" height="34.4"/>
				<path class="st39" d="M-1153.9,443.4c0,0-10.6,5.3-15.9,13.5h30.8v-13.5H-1153.9z"/>
			</g>
			<g>
				<rect x="-1114.3" y="411.2" class="st35" width="15" height="34.4"/>
				<path class="st39" d="M-1114.2,443.4c0,0-10.6,5.3-15.9,13.5h30.8v-13.5H-1114.2z"/>
			</g>
			<g>
				<g>
					<ellipse class="st41" cx="-1155.6" cy="272.2" rx="1.9" ry="3.8"/>
					<ellipse class="st41" cx="-1130.1" cy="272.2" rx="1.9" ry="3.8"/>
				</g>
				<path class="st42" d="M-1163.4,281c0,0,7.9-4.3,18.3-5.4L-1163.4,281z"/>
				<path class="st42" d="M-1140.1,281.2c0,0,7.9-4.3,18.3-5.4L-1140.1,281.2z"/>
				<path class="st42" d="M-1134.8,281.6c0,0,7.9-4.3,18.3-5.4L-1134.8,281.6z"/>
			</g>
			<path class="st42" d="M-1083.7,258c0,0-9.2,1.5-9.2,9.2c0,5.3,5.7,7.6,6.9,7.2C-1086,274.4-1097.1,266.8-1083.7,258z"/>
		</g>
		<g>
			<path class="st37" d="M-1170.3,378.7c0,0,14.7,8.1,13.9,9.9c-0.7,1.8-3.1,4.3-3.1,4.3l-3.6-2.3l1.1,8.2l-4.4,2.3l-4.2-7.4
				l0.2,7.1l-5.5-0.2l-6.4-16.5L-1170.3,378.7z"/>
			<path class="st36" d="M-1175.1,348.8c1.8-3.9,4.1-7.3,8.9-10.2l0.3-17.5c-0.7,0.3-19.6,12.6-23.5,21.1
				c-5.6,12.3-3.4,26.9,6.5,43.4l14.3-6.6l-0.5-0.9C-1176.5,366.1-1178.5,356.3-1175.1,348.8z"/>
		</g>
		<g>
			<path class="st37" d="M-1155.2,345.3c0,0-0.8-16.4-2.7-16.5c-1.9-0.1-5.1,0.9-5.1,0.9l0.5,4.1l-6.7-4.5l-4,2.9l4.7,6.9l-6.2-3.2
				l-2.2,4.9l11.7,12.7L-1155.2,345.3z"/>
			<path class="st36" d="M-1084.3,348.4c-3.6,4.1-14.3,14.5-17.7,17.2c-9.2,7.4-18.7,10.9-28.1,10.6c-13-0.5-25.8-7-35.8-22
				c-0.7-1.1,11.3-12.2,11.3-12.2h1.5c7.4,12,15.3,18.3,23.4,18.6c12.5,0.4,27.2-16.9,27.2-16.9c0.8-1.1,13.8-10.1,14.9-9.3
				C-1087.3,334.3-1080.9,344.6-1084.3,348.4z"/>
		</g>
	</g>
	<g>
		<g>
			<path class="st83" d="M-1230.9,349.2c0,0,43.4,0.6,45.5,1.5c0,0-3.3,41.4-3.6,42.2c-0.3,0.8-39.5-0.5-39.5-0.5
				S-1231.4,350.9-1230.9,349.2z"/>
			<path class="st84" d="M-1185.5,350.7c0,0,7.5,5,8.2,5.9l-3.9,37l-8.6-0.6l4.2-41.8"/>
			<path class="st85" d="M-1212.1,349.6c0,0,0.1,13,0.1,13.3c0,0.3,7.3,0.3,7.3,0.3l1.3-13.4L-1212.1,349.6z"/>
		</g>
		<g>
			<g>
				<path class="st86" d="M-1312.4,337.4c0,0,4.3,56.2,5.5,57.8c0,0,65.6-2,66.1-2.1c0.5-0.1,1.3-62.2,1.3-62.9
					C-1239.5,329.6-1302,335.6-1312.4,337.4z"/>
				<g>
					<path class="st87" d="M-1263.2,353.8L-1263.2,353.8c-0.9,0-1.2,0-2.2-16.7l-0.1-0.8l0.8-0.1c0.5,0,12.7-0.9,14.5-0.9
						c0.2,0,0.3,0,0.4,0c0.7,0.2,1.1,0.3,1.1,16.6v0.7l-0.7,0.1C-1250.7,352.9-1262.6,353.8-1263.2,353.8z M-1263.8,337.8
						c0.3,5.1,0.9,12.4,1.2,14.4c1.9-0.1,7.9-0.6,12.4-0.9c0-6-0.2-12.5-0.4-14.3C-1252.9,337-1261.2,337.6-1263.8,337.8z"/>
				</g>
			</g>
			<g>
				<path class="st84" d="M-1218.7,393.5c0,0,5.9-55,5.9-56.3c0,0-22.5-7.1-26.8-6.9c0,0-1.7,59.6-1.3,62.9
					C-1240.9,393.1-1220.8,393.6-1218.7,393.5z"/>
				<path class="st88" d="M-1226.8,333c0,0-1.2,18.8-0.8,19.2l5,0.9l2-18.3C-1220.6,334.8-1225.7,333.3-1226.8,333z"/>
				<g>
					<path class="st86" d="M-1218.6,358.4c0.1-1.4-3-2.2-8-2.5c-2.4-0.1-3.8-0.2-4.7,0c0.8,0,1.8,0.1,3.1,0.1c5,0.3,8,1.1,8,2.5
						c0,1-0.8,1.4-1.9,1.6C-1220.3,360.1-1218.6,359.7-1218.6,358.4z"/>
					<path class="st89" d="M-1220.2,358.5c0.1-1.4-3-2.2-8-2.5c-1.3-0.1-2.3-0.1-3.1-0.1c-1,0.2-1.3,0.8-1.3,1.9c0,1,4,1.9,6.4,2.1
						c1,0.1,2.6,0.3,4.1,0.3C-1221,359.9-1220.2,359.5-1220.2,358.5z"/>
				</g>
			</g>
		</g>
		<g>
			<path class="st86" d="M-1235.6,392.1c0,0,62.2-0.2,64.2,1.2c0,0-9.2,75.5-9.8,79.3c0,0-53.3,2.7-57.3,1.7
				C-1238.5,474.3-1237.1,396.1-1235.6,392.1z"/>
			<path class="st90" d="M-1322,394.8c0,0,79.6-2.7,86.5-2.7c0,0-1.8,75.1-2.9,82.2c0,0-65.9,0.1-72.7-0.8
				C-1311.2,473.5-1321.2,401.2-1322,394.8z"/>
			<polygon class="st85" points="-1275.6,393.3 -1274.9,421.4 -1288.2,421.9 -1291.6,393.8 			"/>
			<polygon class="st90" points="-1199.3,396.4 -1177.8,397.3 -1179.5,412.8 -1199.9,412 			"/>
		</g>
	</g>
</g>
<g>
	<g>
		<g>
			<path class="st35" d="M53.6,474.4c-0.9,16.7-0.8,24.1-0.9,26.6h86.4c0,0,0.9,1.9,1.8-26.6H53.6z"/>
			<g>
				<path class="st36" d="M56.4,415.2c-0.8,5.6-1.5,42.5-2.3,55.7h87.1c0.3-10.7,0.6-46.7,0.8-58.3
					C93.2,421.8,64.2,416.9,56.4,415.2z"/>
				<path class="st37" d="M141.8,413.4c0.7-40.9,0.5-80.7-2.7-96.7c0,0-74.1-5.5-78.2,12.3c0,0-8.2,41.6-9.6,54l8.2,1.4l-1.4,11
					c0,0,30.2,0,43.9-21.9c0,0,0,37-45.3,35.7c0,0-0.2,2.9-0.5,6.8C64.1,417.5,93.2,422.5,141.8,413.4z"/>
				<path class="st38" d="M146.7,310.8c-6.1-1.5-12.3-2.3-18.3-2.6l-8-19.7c0,0-52.4-11.2-70.5,4.9c-18.2,16.1-7.7,32.1-2.1,42.6
					c5.6,10.5-4.9,12.6-9.1,10.5c0,0,7.7,14,30.7-0.7c18-11.4,16.8-16.1,26.7-18.9c12.2-1.2,23.9,0,25.8,1.9
					c2.3,2.2,1.7,5.6,1.4,8.4c-0.3,2.6-1.5,5.6-2.8,8.4c1.2,1.7,2.9,2.8,4.5,4c2.7-4.3,6.4-8.7,10.3-7.9c2.9,0.6,6.8,39.8,6.8,39.8
					C153.4,344,146.7,310.8,146.7,310.8z"/>
			</g>
			<polygon class="st39" points="86.9,424.1 81.3,458.2 89.5,466.4 98.1,457.7 93.9,424.1 89.7,419.9 			"/>
			<g>
				<path class="st38" d="M117.5,351.3c-0.9,1.5-1.6,2.5-1.6,2.5l5.3,3.8c0,0,0.5-1.2,1.3-2.8C120.6,353.8,118.9,352.7,117.5,351.3z
					"/>
				<path class="st38" d="M119.8,347.2c-0.5,1-1,1.9-1.5,2.7c1.4,1.4,3,2.5,4.7,3.4c0.4-0.7,0.8-1.5,1.2-2.3
					C122.7,349.8,121.1,348.7,119.8,347.2z"/>
				
					<ellipse transform="matrix(0.1855 -0.9826 0.9826 0.1855 -237.0926 422.1361)" class="st37" cx="136.1" cy="354.1" rx="13.8" ry="10.6"/>
			</g>
			<g>
				<path class="st40" d="M56.4,415c0,0-0.1,0.9-0.1,1.2c6,10.4,18.3,24.3,18.3,24.3l15.8-18.6l13.8,19.4c9-4.3,32-22.8,37.8-27.6
					c0-0.1,0-0.8,0-1C94.1,422,61.4,416.1,56.4,415z"/>
			</g>
			<polygon class="st39" points="141,476.4 53.3,476.4 53.8,468.9 141.3,469 			"/>
			<g>
				<rect x="68.6" y="500.3" class="st35" width="15" height="34.4"/>
				<path class="st39" d="M68.7,532.5c0,0-10.6,5.3-15.9,13.5h30.8v-13.5H68.7z"/>
			</g>
			<g>
				<rect x="108.3" y="500.3" class="st35" width="15" height="34.4"/>
				<path class="st39" d="M108.4,532.5c0,0-10.6,5.3-15.9,13.5h30.8v-13.5H108.4z"/>
			</g>
			<g>
				<g>
					<ellipse class="st41" cx="67" cy="361.3" rx="1.9" ry="3.8"/>
					<ellipse class="st41" cx="92.6" cy="361.3" rx="1.9" ry="3.8"/>
				</g>
				<path class="st42" d="M59.2,370.1c0,0,7.9-4.3,18.3-5.4L59.2,370.1z"/>
				<path class="st42" d="M82.5,370.3c0,0,7.9-4.3,18.3-5.4L82.5,370.3z"/>
				<path class="st42" d="M87.8,370.7c0,0,7.9-4.3,18.3-5.4L87.8,370.7z"/>
			</g>
			<path class="st42" d="M138.9,347.1c0,0-9.2,1.5-9.2,9.2c0,5.3,5.7,7.6,6.9,7.2C136.6,363.5,125.5,355.9,138.9,347.1z"/>
		</g>
		<g>
			<path class="st37" d="M18.7,391.9c0,0,13.3-22.5,11.7-23.8c-1.6-1.3-4.9-2.7-4.9-2.7l-5.8,9.2l-2.1-4.4
				c-6.2-1.2-11.8-0.3-16.7,2.6l3.5,20.3L18.7,391.9z"/>
			<path class="st36" d="M60.6,423.4l-2.8,0.8c-0.1,0-6,1.6-13.2,1.6c-7.9,0-14-1.8-18.2-5.4c-6.2-5.3-8.5-15.1-6.8-29.1l0.1-1H3.9
				c-2.1,19.1,2,33.3,12.2,42.1c7.1,6.1,16.7,9.2,28.5,9.2c9.2,0,16.5-2,17.3-2.2l2.8-0.8L60.6,423.4z"/>
		</g>
		<g>
			<path class="st37" d="M137.6,480.9c0,0-16.3,1.9-16.3,3.8c0,1.9,1.3,5,1.3,5l4.1-0.7l-4.1,7l3.1,3.8l6.5-5.2l-2.8,6.4l5,1.9
				l11.9-12.5L137.6,480.9z"/>
			<path class="st36" d="M141.8,413.4c0.7,0.4,8.1,7.4,14.4,14.3c8,8.7,12.1,17.9,12.4,27.3c0.4,13.5-7.3,26.1-22.9,37.4l-10.6-11.7
				l0.9-0.6c11.5-8.2,17.2-16.5,17-24.6c-0.2-5.5-2.9-11.3-8.2-17.1c-4.9-5.3-10-8.7-10.1-8.7l-2.5-1.6L141.8,413.4z"/>
		</g>
	</g>
	<path class="st43" d="M-5.3,295.4c0-17.5-14.2-31.6-31.7-31.6c-1.2,0-2.4,0.1-3.5,0.2c-5-9.5-15-16-26.4-16
		c-11.7,0-21.8,6.7-26.7,16.5c-2-0.4-4-0.6-6-0.6c-17.5,0-31.7,14.2-31.7,31.7c0,0.1,0,0.2,0,0.4c-9,1.7-15.7,9.6-15.7,19.1
		c0,10.8,8.7,19.5,19.5,19.5c1.3,0,2.5-0.1,3.7-0.3c0,0,0,0,0,0.1c0,14.8,12,26.8,26.8,26.8c3.2,0,6.3-0.6,9.2-1.6
		c5.4,7.3,14.2,12.1,24,12.1c10.7,0,20.1-5.6,25.4-14.1c1.2,0.2,2.5,0.3,3.8,0.3c13.7,0,25-10.2,26.6-23.5c0.3,0,0.7,0,1,0
		c10.8,0,19.5-8.7,19.5-19.5C12.5,304.6,4.7,296.2-5.3,295.4z"/>
	<g>
		<path class="st91" d="M-42,307.3h-0.2c1.1-3,1.7-6.1,1.7-9.5c0-15.3-12.4-27.7-27.7-27.7c-15.4,0-27.8,12.4-27.8,27.7
			c0,3.3,0.6,6.5,1.7,9.5h-0.1l0.2,0.3c1.3,3.4,3.2,6.3,5.6,8.9l10.9,17.5h9.6h9.8l11.1-18c2-2.3,3.7-4.9,4.9-7.9L-42,307.3z"/>
		<g>
			<path class="st43" d="M-84.6,307.3c0.7-1.1,1.5-2.2,2.3-3.2c0.8-1.1,1.6-2.1,2.4-3.1l0.6-0.8l0.9,0.7c2.1,1.7,4,3.1,6,5.1h-2.4
				c2.2-2,4.4-4.6,6.7-6.8l1.3-1.2l1.3,1.2c2.5,2.5,4.9,4.8,7.1,7.8h-1.9c0.6,0,1.3-1,2-1.6c0.7-0.5,1.3-1.1,2-1.6s1.4-1,2.1-1.5
				s1.4-1,2.1-1.5c-0.5,0.7-1,1.4-1.5,2.1c-0.5,0.7-1,1.4-1.6,2.1c-0.5,0.7-1.1,1.3-1.6,2s-1.1,1.3-1.6,2l-0.8,0.9l-1-0.9
				c-2.7-2.3-5.3-5.1-7.8-7.1h2.6c-2.2,2-4.5,4.4-6.9,6.6l-1.3,1.2l-1.1-1c-1.8-1.9-3.5-3.8-5.2-5.8h1.6c-1,0-2,1.4-3.1,2.2
				C-82.4,306-83.5,306.5-84.6,307.3z"/>
		</g>
		<ellipse class="st92" cx="-68.2" cy="344.2" rx="9.6" ry="5.3"/>
		<rect x="-78.5" y="333.9" class="st92" width="20" height="9"/>
		<circle class="st93" cx="-74.6" cy="292" r="15.8"/>
		<circle class="st93" cx="-69.1" cy="298.8" r="21.2"/>
	</g>
</g>
</svg>
