<?xml version="1.0" encoding="utf-8"?>
<!-- Generator: Adobe Illustrator 19.1.0, SVG Export Plug-In . SVG Version: 6.00 Build 0)  -->
<svg version="1.1" xmlns="http://www.w3.org/2000/svg" xmlns:xlink="http://www.w3.org/1999/xlink" x="0px" y="0px"
	 viewBox="0 0 735.5 691.2" style="enable-background:new 0 0 735.5 691.2;" xml:space="preserve">
<style type="text/css">
	.st0{fill:none;stroke:#FFFFFF;stroke-width:4;stroke-linecap:round;stroke-linejoin:round;stroke-dasharray:6.0191,25.0794;}
	.st1{fill:none;stroke:#FFFFFF;stroke-width:4;stroke-linecap:round;stroke-linejoin:round;stroke-dasharray:5.9599,24.8331;}
	.st2{fill:none;stroke:#FFFFFF;stroke-width:4;stroke-linecap:round;stroke-linejoin:round;stroke-dasharray:5.9471,24.7797;}
	.st3{fill-rule:evenodd;clip-rule:evenodd;fill:#E6E6E6;}
	.st4{fill-rule:evenodd;clip-rule:evenodd;fill:#ECF0F1;}
	.st5{fill:#2C3E50;}
	.st6{fill-rule:evenodd;clip-rule:evenodd;fill:#EAB998;}
	.st7{opacity:0.2;}
	.st8{clip-path:url(#SVGID_2_);fill:#999999;}
	.st9{clip-path:url(#SVGID_4_);}
	.st10{fill-rule:evenodd;clip-rule:evenodd;fill:#FFFFFF;}
	.st11{fill-rule:evenodd;clip-rule:evenodd;fill:#E74C3C;}
	.st12{fill-rule:evenodd;clip-rule:evenodd;fill:#28A8E3;}
	.st13{opacity:5.000300e-002;}
	.st14{clip-path:url(#SVGID_6_);}
	.st15{opacity:0.1;}
	.st16{fill-rule:evenodd;clip-rule:evenodd;}
	.st17{fill-rule:evenodd;clip-rule:evenodd;fill:#1C2A35;}
	.st18{fill-rule:evenodd;clip-rule:evenodd;fill:#262828;}
	.st19{clip-path:url(#SVGID_8_);}
	.st20{clip-path:url(#SVGID_10_);}
	.st21{clip-path:url(#SVGID_12_);fill-rule:evenodd;clip-rule:evenodd;}
	.st22{fill:#E74C3C;}
	.st23{fill:#E6E6E6;}
	.st24{fill-rule:evenodd;clip-rule:evenodd;fill:#F2F2F2;}
	.st25{fill:#2D2D2D;}
	.st26{fill:#ECF0F1;}
	.st27{fill:#333333;}
	.st28{fill:#B3B3B3;}
	.st29{fill:#3498DB;}
	.st30{fill:#FFC55F;}
	.st31{fill:none;}
	.st32{fill:#CE3F38;}
	.st33{fill:#515254;}
	.st34{clip-path:url(#SVGID_14_);fill:#2C3E50;}
	.st35{clip-path:url(#SVGID_14_);}
	.st36{fill:#4D4D4D;}
	.st37{fill:#666666;}
	.st38{fill:#D8D8D8;}
	.st39{fill:#999999;}
	.st40{fill:#D9E021;}
	.st41{fill:#29ABE2;}
	.st42{fill:#FF1D25;}
	.st43{fill:none;stroke:#D8D8D8;stroke-width:2;stroke-miterlimit:10;}
	.st44{fill:#F15A24;}
	.st45{fill:#F5F5F5;}
	.st46{fill:#F7AC34;}
	.st47{fill:#F2F2F2;}
	.st48{fill:#CCCCCC;}
	.st49{fill:#FFFFFF;}
	.st50{fill:#ED1C24;}
	.st51{fill:#FF6110;}
	.st52{fill:#094056;}
	.st53{fill:none;stroke:#F5F5F5;stroke-width:6;stroke-miterlimit:10;}
	.st54{fill:none;stroke:#ECF0F1;stroke-width:3;stroke-miterlimit:10;}
	.st55{fill:none;stroke:#3498DB;stroke-width:6;stroke-miterlimit:10;}
	.st56{clip-path:url(#SVGID_16_);fill:#999999;}
	.st57{clip-path:url(#SVGID_18_);}
	.st58{clip-path:url(#SVGID_20_);}
	.st59{clip-path:url(#SVGID_22_);}
	.st60{clip-path:url(#SVGID_24_);}
	.st61{clip-path:url(#SVGID_26_);fill-rule:evenodd;clip-rule:evenodd;}
	.st62{clip-path:url(#SVGID_28_);fill:#2C3E50;}
	.st63{clip-path:url(#SVGID_28_);}
</style>
<g id="Background">
</g>
<g id="Objects">
	<g>
		<g>
			<g>
				<circle class="st0" cx="368.1" cy="328.7" r="326.7"/>
			</g>
			<g>
				<circle class="st1" cx="368.1" cy="372" r="289.1"/>
			</g>
			<g>
				<circle class="st2" cx="368.1" cy="405.6" r="264.1"/>
			</g>
			<circle class="st3" cx="368.2" cy="427.6" r="263.6"/>
		</g>
		<g>
			<g>
				<polygon class="st5" points="468.2,583.9 268.8,583.9 253.9,495.6 483.6,495.6 				"/>
				<g>
					<path class="st5" d="M472.2,413.9c-6.3-4-21.7-11.8-70.8-28.6h-32.9h-32.9c-49.1,16.9-64.3,24.7-70.6,28.6
						c-10.2,6.4-11.2,15.3-11.2,51.1v30.6h229.8V465l0-0.1C483.6,429,482.4,420.3,472.2,413.9z"/>
					<g>
						<path class="st6" d="M340.8,334.6v41.1v20.4c15.6,17.6,40.2,18.2,54.5,0v-20.4v-41.1C395.4,300.9,340.8,300.9,340.8,334.6"/>
						<g class="st7">
							<g>
								<defs>
									<rect id="SVGID_15_" x="340.8" y="370.9" width="54.5" height="18.2"/>
								</defs>
								<clipPath id="SVGID_2_">
									<use xlink:href="#SVGID_15_"  style="overflow:visible;"/>
								</clipPath>
								<path class="st8" d="M340.8,370.9v1.5c0,0,14,16.4,27.2,17c13.2,0.6,27.3-15.9,27.3-15.9v-2.7"/>
							</g>
						</g>
						<path class="st6" d="M368.5,238.2c-78.6,0-48.5,107.7-43.4,116c5.7,9.1,30.7,29.2,43.4,29.2c12.7,0,37.7-20.1,43.4-29.2
							C417,345.9,447.2,238.2,368.5,238.2"/>
					</g>
					<g>
						<g>
							<defs>
								<rect id="SVGID_17_" x="300.6" y="368.4" width="67.5" height="150.6"/>
							</defs>
							<clipPath id="SVGID_4_">
								<use xlink:href="#SVGID_17_"  style="overflow:visible;"/>
							</clipPath>
							<g class="st9">
								<path class="st10" d="M368.4,408c0,0-37.8,8.8-37.8,11.1c0,2.3,14.4,76.4,14.4,76.4h51.3l5.9-76.1L368.4,408z"/>
								<polygon class="st11" points="356.6,420.5 363.2,430.7 373.3,430.7 379.9,420.5 368.4,408 								"/>
								<polygon class="st12" points="363.2,430.7 353.8,495.6 382.7,495.6 373.3,430.7 								"/>
								<polygon class="st10" points="341.2,374.2 338.8,383.4 345.4,431.3 368.4,408 								"/>
								<polygon class="st10" points="395.3,374.2 397.2,383.2 390.9,431.8 368.4,408 								"/>
								<g class="st13">
									<g>
										<defs>
											<rect id="SVGID_19_" x="340.8" y="373.5" width="54.5" height="35"/>
										</defs>
										<clipPath id="SVGID_6_">
											<use xlink:href="#SVGID_19_"  style="overflow:visible;"/>
										</clipPath>
										<polygon class="st14" points="340.8,374.2 368.2,408 395.4,374.2 395.4,373.4 368.2,407.1 340.8,373.4 										"/>
									</g>
								</g>
								<polygon class="st3" points="346.4,438.8 368.2,408.1 345.7,432.4 								"/>
								<polygon class="st3" points="391,433.6 368.4,408 392,427.3 								"/>
								<polygon class="st3" points="390.6,437.6 368.5,408.1 392.1,427.3 								"/>
							</g>
							<g class="st9">
								<polygon class="st17" points="338.8,383.4 341.2,394.1 353,495.6 332.8,495.6 310.6,450.3 331.8,436.1 305.8,423.9 
									328.3,388.2 								"/>
								<polygon class="st18" points="395.4,381.8 395.4,394 383.5,495.6 403.7,495.6 425.9,450.3 404.7,436.1 430.6,423.9 
									409.5,388 								"/>
							</g>
						</g>
						<g>
							<defs>
								<rect id="SVGID_21_" x="368.1" y="368.4" width="68.8" height="150.6"/>
							</defs>
							<clipPath id="SVGID_8_">
								<use xlink:href="#SVGID_21_"  style="overflow:visible;"/>
							</clipPath>
							<g class="st19">
								<path class="st10" d="M368.7,408c0,0,37.8,8.8,37.8,11.1c0,2.3-14.4,76.4-14.4,76.4h-51.3l-5.9-76.1L368.7,408z"/>
								<polygon class="st11" points="380.4,420.5 373.9,430.7 363.7,430.7 357.2,420.5 368.7,408 								"/>
								<polygon class="st12" points="373.9,430.7 383.2,495.6 354.4,495.6 363.7,430.7 								"/>
								<polygon class="st10" points="395.9,374.2 398.2,383.4 391.6,431.3 368.7,408 								"/>
								<polygon class="st10" points="341.8,374.2 339.9,383.2 346.1,431.8 368.7,408 								"/>
								<g class="st13">
									<g>
										<defs>
											<rect id="SVGID_23_" x="342.1" y="373.5" width="53.2" height="35"/>
										</defs>
										<clipPath id="SVGID_10_">
											<use xlink:href="#SVGID_23_"  style="overflow:visible;"/>
										</clipPath>
										<polygon class="st20" points="395.4,374.2 368.6,408 342.1,374.2 342.1,373.4 368.6,407.1 395.4,373.4 										"/>
									</g>
								</g>
								<polygon class="st3" points="390.6,438.8 368.8,408.1 391.4,432.1 								"/>
								<polygon class="st3" points="346,433.6 368.7,408 345.1,427.3 								"/>
								<polygon class="st3" points="346.5,437.6 368.5,408.1 344.9,427.3 								"/>
							</g>
							<g class="st19">
								<polygon class="st17" points="398.2,383.4 395.8,394.1 384.1,495.6 404.3,495.6 426.5,450.3 405.3,436.1 431.2,423.9 
									408.1,388 								"/>
								<polygon class="st18" points="342.1,381.8 342.1,394 353.6,495.6 333.4,495.6 311.1,450.3 332.3,436.1 306.4,423.9 
									327.8,388 								"/>
							</g>
						</g>
					</g>
					<polyline class="st22" points="373.9,430.7 383.2,495.6 353.8,495.6 363.1,430.7 					"/>
					<polygon class="st3" points="346.1,435.8 368.5,408 345.7,432.6 					"/>
					<polygon class="st3" points="391,435.8 368.5,408 391.4,432.1 					"/>
					<polygon class="st23" points="374.3,433.3 362.8,433.3 363.1,430.7 373.9,430.7 					"/>
					<polygon class="st22" points="369.4,409.3 368.8,408 368.1,409.5 368.1,430.7 369.4,430.7 					"/>
					<rect x="431.7" y="448.8" class="st17" width="29.9" height="9.1"/>
					<polygon class="st24" points="433.7,448.8 444.9,430.7 460.1,448.8 					"/>
					<path class="st24" d="M448.1,434.5l2.3-2.6l9.6,16.9C460.1,448.8,447,433.9,448.1,434.5z"/>
					<polygon class="st3" points="448.1,434.5 449.6,432.9 460.1,448.8 					"/>
					<polygon class="st23" points="448.9,433.6 460.1,448.8 448.1,434.5 					"/>
					<path class="st25" d="M421,267.1C421,267.1,421,267.1,421,267.1c-0.8-5.4-2-10.2-3.5-13.7c-2.8-6.4-7.5-11.1-13.2-14.6l0,0
						c-0.1-0.1-0.2-0.1-0.3-0.2c-1.3-0.8-2.6-1.5-4-2.1c-21.9-10.9-43.6-7.7-55-4.6c-3.4,0.7-6.1,1.7-8.2,2.7c0,0,0,0,0,0h0
						c-8.2,3.9-7.5,9.7-7.5,9.7c-10.5-5-15.1,8.9-16.6,18c-0.2,1.5-0.4,2.8-0.5,4c0,0.5-0.1,1.1-0.1,1.7c0,0.1,0,0.2,0,0.3
						c-0.7,13.2,1.8,35.9,4.4,49.8c0,0,3.1-32.1,12.3-41.4c0,0,0,0,0,0c0.7-0.7,1.5-1.3,2.2-1.7c0,0,0.1,0,0.1,0
						c0.1-0.1,0.3-0.1,0.4-0.2c0.1,0,0.2-0.1,0.2-0.1c0.1,0,0.2-0.1,0.3-0.1c0.1,0,0.3-0.1,0.4-0.1c0,0,0,0,0,0
						c0.4-0.1,0.8-0.2,1.2-0.2c11.7,10.2,42.9,14.5,60.7,14.8c0,0,0,0.2,0,0.2c0,0,0,0,0,0c-0.2,0-0.3-0.3-0.5-0.4c0,0,0-0.1,0-0.1
						c-8.3-3.7-13.1-7.4-15.4-10.3c0,0,0,0,0,0c-1-1.3-1.6-2.4-1.8-3.3c11.3,8,24,11.2,24,11.2c0,0,0,0.2,0,0.2c0,0,0,0,0,0
						c0,0,0-0.2,0-0.2c-3.7-5.4-6.5-14.4-6.5-14.4c25.6-2.4,26.8,46.2,26.8,46.2C422.9,305.6,423.4,283.3,421,267.1z"/>
				</g>
				<rect x="268.8" y="467" class="st26" width="199.4" height="121.5"/>
				<rect x="114.8" y="607.3" class="st27" width="508" height="13.6"/>
				<rect x="268.8" y="588.5" class="st28" width="199.4" height="18.8"/>
				<path class="st5" d="M268.8,588.5l-4.6-68.9l-2.8-42.3l-5.6-49.6L239.3,493c0,0,0,0,0,0c-0.5,1.8-0.7,3.6-0.7,5.5
					c0,2.6,0.5,5.1,1.4,7.4l0,0L268.8,588.5z"/>
				<path class="st5" d="M468.2,588.5l4.6-68.9l2.8-42.3l5.9-49.6l16.2,65.4c0,0,0,0,0,0c0.5,1.8,0.7,3.6,0.7,5.5
					c0,2.6-0.5,5.1-1.4,7.4l0,0L468.2,588.5z"/>
				<circle class="st23" cx="367.2" cy="527.7" r="12.7"/>
				<path class="st22" d="M518.4,555.8v4.2c-11.5,0-13.2,4.5-13.2,20.2c0,14.3,0,20.2,13.2,20.2v6.9h39.4v-51.5H518.4z M512.5,592.6
					c-0.9-1.7-0.9-6.2-0.9-12.4c0-13.7,0.5-13.7,6.7-13.7v27.4C513.2,593.8,512.8,593.1,512.5,592.6z"/>
				<polygon class="st29" points="451.9,601.6 449.7,597.9 451.9,594.1 456.2,594.1 458.4,597.9 456.2,601.6 				"/>
				<polygon class="st22" points="440.3,601.6 438.2,597.9 440.3,594.1 444.7,594.1 446.9,597.9 444.7,601.6 				"/>
				<polygon class="st30" points="429.5,601.6 427.4,597.9 429.5,594.1 433.9,594.1 436.1,597.9 433.9,601.6 				"/>
				<path class="st25" d="M351.3,342.4c-1.9,0-3.5,1.1-4.3,2.7c-27.6-5-30.1-22.1-30.1-22.8l0,0c-0.7,0-1.5,0.8-1.6,1.9
					c0,0.5-0.3,19.4,31.4,24.9c0.7,1.8,2.5,3.1,4.5,3.1c2.7,0,4.9-2.2,4.9-4.9S354,342.4,351.3,342.4z"/>
			</g>
			<g>
				<circle class="st30" cx="694.8" cy="273.6" r="26.3"/>
				<g>
					<path class="st22" d="M694.4,271.9h-17.6c0,0,0,0.1,0,0.1l3.2,13.4c0.4,1.4,2.1,2.6,3.7,2.6h10.6H705c1.6,0,3.3-1.2,3.7-2.6
						L712,272c0,0,0-0.1,0-0.1H694.4z"/>
					<polygon class="st31" points="689.2,265.6 694.5,265.6 699.6,265.6 694.8,256.6 					"/>
					<g>
						<path class="st30" d="M695.6,274.6v10.1c0,0.6-0.5,1.1-1.1,1.1c0,0,0,0,0,0c0,0,0,0,0,0c-0.6,0-1.1-0.5-1.1-1.1v-10.1
							c0-0.6,0.5-1.1,1.1-1.1c0,0,0,0,0,0c0,0,0,0,0,0C695.1,273.5,695.6,274,695.6,274.6z"/>
						<path class="st30" d="M690.4,274.6v10.1c0,0.6-0.5,1.1-1.1,1.1c0,0,0,0,0,0c0,0,0,0,0,0c-0.6,0-1.1-0.5-1.1-1.1v-10.1
							c0-0.6,0.5-1.1,1.1-1.1c0,0,0,0,0,0c0,0,0,0,0,0C689.9,273.5,690.4,274,690.4,274.6z"/>
						<path class="st30" d="M700.7,274.6v10.1c0,0.6-0.5,1.1-1.1,1.1c0,0,0,0,0,0c0,0,0,0,0,0c-0.6,0-1.1-0.5-1.1-1.1v-10.1
							c0-0.6,0.5-1.1,1.1-1.1c0,0,0,0,0,0c0,0,0,0,0,0C700.2,273.5,700.7,274,700.7,274.6z"/>
						<path class="st30" d="M705.9,274.6v10.1c0,0.6-0.5,1.1-1.1,1.1c0,0,0,0,0,0c0,0,0,0,0,0c-0.6,0-1.1-0.5-1.1-1.1v-10.1
							c0-0.6,0.5-1.1,1.1-1.1c0,0,0,0,0,0c0,0,0,0,0,0C705.4,273.5,705.9,274,705.9,274.6z"/>
						<path class="st30" d="M685.2,274.6v10.1c0,0.6-0.5,1.1-1.1,1.1c0,0,0,0,0,0c0,0,0,0,0,0c-0.6,0-1.1-0.5-1.1-1.1v-10.1
							c0-0.6,0.5-1.1,1.1-1.1c0,0,0,0,0,0c0,0,0,0,0,0C684.7,273.5,685.2,274,685.2,274.6z"/>
					</g>
					<path class="st27" d="M694.9,256.6l4.8,9h3.5l-6.9-12.8c-0.3-0.5-0.8-0.8-1.3-0.8c-0.6,0-1.1,0.3-1.4,0.7l-8,12.9h3.6
						L694.9,256.6z"/>
					<path class="st32" d="M713.2,265.6H703h-3.5h-5.1h-5.3h-3.6h-9.9c-0.7,0-1.2,0.5-1.2,1.2v3.9c0,0.7,0.5,1.2,1.2,1.2h1.2h17.6
						H712h1.2c0.7,0,1.2-0.6,1.2-1.2v-3.9C714.5,266.1,713.9,265.6,713.2,265.6z"/>
					<path class="st33" d="M694.4,268.6C694.4,268.6,694.4,268.7,694.4,268.6C694.4,268.7,694.4,268.6,694.4,268.6L694.4,268.6z"/>
					<path class="st33" d="M694.4,268.7C694.4,268.7,694.4,268.6,694.4,268.7L694.4,268.7C694.4,268.6,694.4,268.7,694.4,268.7z"/>
					<g>
						<path class="st27" d="M687.1,268.8C687.1,268.7,687.1,268.7,687.1,268.8c0-0.1,0-0.1,0-0.2c-0.1-0.6-0.6-1.1-1.3-1.1
							c-0.6,0-1.2,0.5-1.3,1.1c0,0,0,0.1,0,0.1c0,0,0,0.1,0,0.1c0,0.7,0.6,1.3,1.3,1.3C686.5,270,687.1,269.5,687.1,268.8z"/>
						<circle class="st27" cx="703" cy="268.9" r="1.3"/>
					</g>
				</g>
			</g>
			<g>
				<g>
					<defs>
						<circle id="SVGID_27_" cx="600.4" cy="200.2" r="53"/>
					</defs>
					<clipPath id="SVGID_12_">
						<use xlink:href="#SVGID_27_"  style="overflow:visible;"/>
					</clipPath>
					<circle style="clip-path:url(#SVGID_12_);fill:#2C3E50;" cx="600.4" cy="200.2" r="53"/>
					<g style="clip-path:url(#SVGID_12_);">
						<rect x="569.4" y="166.3" class="st26" width="94.7" height="71"/>
						<path class="st36" d="M660.9,163.1h-88.3c-1.7,0-3.2,1.4-3.2,3.2H664C664,164.5,662.6,163.1,660.9,163.1z"/>
						<rect x="569.4" y="233.7" class="st36" width="94.7" height="3.5"/>
						<rect x="569.4" y="166.3" class="st37" width="94.7" height="3.8"/>
						<path class="st38" d="M657.1,167.1h-11.8H624h-9.6h-2.2h-30.8c-0.6,0-1.1,0.5-1.1,1.1c0,0.6,0.5,1.1,1.1,1.1h30.8h2.2h9.6
							h21.2h11.8c0.6,0,1.1-0.5,1.1-1.1C658.1,167.6,657.7,167.1,657.1,167.1z"/>
						<rect x="576.5" y="167.8" class="st39" width="2.1" height="0.7"/>
						<rect x="570.5" y="167.8" class="st39" width="1" height="0.7"/>
						<rect x="571.9" y="167.8" class="st39" width="3.8" height="0.7"/>
						<circle class="st40" cx="574.8" cy="164.7" r="0.4"/>
						<circle class="st41" cx="576.2" cy="164.7" r="0.4"/>
						<circle class="st42" cx="577.5" cy="164.7" r="0.4"/>
						<rect x="574.8" y="175.6" class="st5" width="34.8" height="53.1"/>
						<line class="st43" x1="574.8" y1="228.7" x2="609.6" y2="175.6"/>
						<line class="st43" x1="609.4" y1="228.7" x2="574.6" y2="175.6"/>
						<rect x="629" y="224" class="st44" width="12.7" height="2.4"/>
						<g>
							<rect x="612.7" y="175.6" class="st28" width="19.5" height="2.4"/>
							<rect x="615.3" y="179.2" class="st28" width="19.5" height="2.4"/>
							<rect x="633.8" y="175.6" class="st28" width="8.8" height="2.4"/>
							<rect x="636.4" y="179.2" class="st28" width="4.4" height="2.4"/>
							<rect x="643.7" y="175.6" class="st28" width="11.7" height="2.4"/>
							<rect x="633.8" y="183" class="st28" width="8.8" height="2.4"/>
							<rect x="624" y="183" class="st44" width="8.8" height="2.4"/>
							<rect x="643.7" y="183" class="st28" width="11.7" height="2.4"/>
							<rect x="641.9" y="179.2" class="st28" width="11.7" height="2.4"/>
						</g>
						<rect x="617.2" y="214" class="st28" width="19.5" height="2.4"/>
						<rect x="638.3" y="214" class="st28" width="4.4" height="2.4"/>
						<rect x="643.8" y="214" class="st28" width="11.7" height="2.4"/>
						<rect x="612.7" y="191.9" class="st22" width="19.5" height="19.5"/>
						<rect x="636" y="191.9" class="st29" width="19.5" height="19.5"/>
					</g>
				</g>
			</g>
			<g>
				<circle class="st29" cx="368.8" cy="83.2" r="53.3"/>
				<g>
					<g>
						<g>
							<path class="st5" d="M321.7,66.7c0.6,0.9-0.3,3.2,0,4.2c0.3,1,1.3,3,2.1,3.6c0.4,0.2,1.4,0.5,1.7,0.3
								c0.3-0.2,0.3-0.9,0.2-1.2c-0.2-0.9-1.7-2.3-2-3.2c-0.3-0.7-0.9-2.5-0.4-3.1c0.2-0.2,1-0.2,1.2,0c0.6,0.5,0.2,2.4,0.5,3.2
								c0.5,1.2,2.9,3,3,4.3c0,0.4-0.8,1-0.8,1.4c0,0.9,1.2,2.4,1.9,2.9c1,0.7,3.7,1.9,4.7,1.2c0.1-0.1-0.1-0.6,0-0.8
								c0.4-0.3,1.6-0.1,1.9,0.3c0.2,0.3-0.4,1.1-0.2,1.3c0.2,0.3,1.1,0.2,1.5,0.3c0.6,0.1,2.3,0.6,2.3,0.6s2.1,3.1,3.2,3.6
								c0.9,0.5,3.3-0.4,4.1,0.3c0.6,0.6,0.7,2.6,0.4,3.3c-0.3,0.8-2.4,1.2-2.8,2c-0.4,0.7,0,2.2-0.1,3c-0.1,0.5-0.4,1.8-0.4,1.8
								s3.4,3.6,4,5.1c0.2,0.4,0,1.4,0.3,1.7c0.3,0.3,1.5,0.4,1.6,0.4c0.2,0,3.3,2.4,3.3,2.4s-1.4,7.3,0,9.2c0.2,0.2,1,0.1,1.1,0.3
								c0.6,0.9-1,3.2-0.8,4.2c0.2,0.8,1.9,2.5,1.9,2.5s-0.6,3.2-0.3,4.2c0.3,1.2,1.7,3.4,2.5,4.3c0.7,0.8,2.2,2.4,3.2,2.8
								c0.7,0.3,2.5,0.5,3.2,0.1c0.2-0.2,0.4-0.8,0.3-1c-0.2-0.7-2.1-1.3-2.3-2c-0.1-0.2,0.1-0.7,0.1-1c0.1-0.3,0.4-0.9,0.4-1.2
								c0.1-0.3,0.3-1,0.1-1.2c-0.3-0.3-1.4,0-1.6,0c-0.3-0.1-0.8-0.7-0.8-1c0-0.5,1.1-0.9,1.3-1.3l0.2-1l-1.5-0.4
								c0.1-0.9,0.1-0.9,0.1-0.9c2.1-0.3,2.1-0.3,2.1-0.3s2.5-0.9,3.2-1.5c0,0,1.1-2,1.1-2l2.6-3.3c0.8-1,0.8-1,0.8-1l-0.8-3.3
								c0,0,0,0,0,0c0.1-0.5,1-1.8,1-1.8l3.1,0.1l2.1-1.6c0.8-1.4,0.1-4.9,0.7-6.4c0.3-0.9,1.9-2.1,2.3-2.9c0.2-0.4,0.6-1.5,0.4-1.9
								c-0.3-0.5-1.7-0.3-2.1-0.7c0,0-1.1-2-1.4-2.3c0,0-3.6,0.2-4.7,0c-0.4-0.1-1-0.4-1.3-0.5c-0.6-0.2,0,0-2.4-0.9
								c0,0,0-2-0.2-2.7c-0.2-0.6-1.2-2.2-1.2-2.2c-3.4,0,0,0-3.4,0c-0.9,0-1.3-2.5-2-3.1c-0.4-0.3-1.3-1.1-1.7-0.8
								c-0.2,0.1,0.1,0.8-0.1,0.9c-0.6,0.5-2.4,0.5-3.2,0.2c-0.4-0.2-0.7-1.3-1.2-1.6c-0.7-0.5-2.5-0.9-3.3-0.7
								c-1,0.3-1.7,2.8-2.7,3.1c-1,0.4-4.3-0.7-4.3-0.7s0.5-3.9-0.3-4.8c-0.5-0.6-2.8,0.2-3.1-0.5c-0.3-0.6,1.2-1.7,1.2-2.4
								c0-0.3,0-1.2-0.4-1.4c-1.1-0.4-2.9,2.4-4.1,2.7c-0.6,0.1-2,0.1-2.6-0.3c-0.4-0.3-0.9-1.5-0.9-2c0-0.5,0.4-1.6,0.6-2.1
								c0.3-0.7,1.4-2.6,1.4-2.6s2.4-1.4,3.3-1.7c1.5-0.4,5.2-1.1,6.3,0c0.3,0.3,0,1.9,0,1.9s1.8,1.4,2.3,1.1
								c0.7-0.5-0.5-2.5-0.2-3.3c0.2-0.5,1.2-1.3,1.6-1.6c0.8-0.6,3.3-2.2,3.3-2.2s0.1-1.2,0.2-1.5c0.5-1.1,2.3-2.7,3.3-3.4
								c0.8-0.6,3.4-0.9,3.5-1.9c0-0.1-0.3-0.2-0.3-0.3c0-0.8,1.6-2,2.4-2.2c0.2-0.1,0.7,0.1,0.9,0.2c0.1,0.1,0.2,0.5,0.4,0.5
								c0.3,0,0.6-0.8,0.9-1c0,0,0.2,0,0.2-0.1c0-0.2-0.7-0.1-1-0.1c-0.3-0.1-0.8-0.1-1-0.3c-0.1-0.2-0.1-0.7,0-1
								c0.1-0.2,0.4-0.4,0.5-0.4c0.3-0.1,0.9-0.1,1.2,0c0.1,0,0.4,0.1,0.5,0.2c0.2,0.2,0.2,0.8,0.5,0.9c0.1,0.1,0.5,0,0.6-0.1
								c0,0,0-0.1,0-0.1c0,0,0.1,0,0.2,0.1c0.4,0,1.3,0,1.6-0.3c0.2-0.1,0-0.7,0.2-0.8c0.2-0.1,0.8,0,0.9,0.2c0.1,0.2,0.1,0.7,0,0.9
								c-0.1,0.2-0.9,0.3-0.9,0.6c0,0,0,0,0,0c0.2,0.2,0,0.8,0.1,1c0.4,0.4,1.6,0.5,2.2,0.7c0.2,0.1,0.7,0.1,0.8,0.3c0,0,0,0,0,0
								c0.1,0.1,0.6,0.1,0.7-0.1c0.2-0.2,0.2-1,0-1.3c-0.2-0.4-1.3-0.3-1.6-0.7c-0.2-0.3-0.2-1,0-1.3c0.2-0.2,0.9-0.1,1-0.3
								c0.3-0.4,0.3-1.5,0.1-1.9c-0.2-0.3-0.8-0.5-1.1-0.7c-0.2-0.1-0.8-0.3-0.9-0.6c-0.4-0.7-0.1-3.2-0.1-3.2s-2,1.2-2.8,1.4
								c-0.2,0.1-0.9,0.2-1,0c-0.4-0.4,0.6-1.9,0.3-2.4c-0.6-0.8-2.9-1.1-3.8-0.9c-0.5,0.1-1.4,0.7-1.6,1.2c-0.4,0.8,0.5,2.9,0,3.6
								c-0.4,0.6-2.3,0.4-2.8,0.9c-0.5,0.4-0.6,2-1.1,2.4c-0.3,0.2-1,0.4-1.2,0.2c-0.6-0.5,0.5-2.5,0-3c-0.4-0.5-2.7-0.4-2.7-0.4
								l-1.3-0.9c0,0-0.7-1.5-0.5-2c0.5-1.3,3.5-2.2,4.8-2.8c0.6-0.2,1.8-1,2.3-0.7c0.3,0.2-0.1,1.3,0.2,1.6
								c0.3,0.2,1.1,0.2,1.3-0.1c0.1-0.1,0-0.6,0.1-0.8c0.2-0.2,1.1,0.1,1.4-0.2c0,0,0.1-0.2,0-0.3c-0.1-0.1-0.5-0.1-0.6-0.2
								c-0.1-0.2-0.3-0.7-0.1-0.8c0.3-0.3,1.3,0,1.7-0.1c0.3-0.2,0.8-0.8,1-1.1c0,0,0-0.1,0.1-0.1c0,0,0,0,0,0
								c0.1,0,0.2-0.3,0.3-0.3c0.8-0.4,2.7-0.7,3.5-0.4c0.5,0.1,1.6,0.8,1.6,1.3c-0.1,1.1-4.2,1-4.1,2.2c0.2,1.3,4,1.8,5.2,1.2
								c0.4-0.2,0.3-1.5,0.7-1.7c0.1-0.1,0.3,0,0.4,0c0.5,0,1.4,0.2,1.8,0c0.4-0.2,1-1.1,0.8-1.5c-0.2-0.4-1.3-0.1-1.6-0.4
								c-0.3-0.4,0.3-1.5,0-1.9c-0.2-0.2-0.8-0.3-1-0.5c-1-0.4-2.9-1.6-4-1.8c-0.9-0.1-2.6,0.1-3.5,0.4c-0.5,0.2-1.7,0.5-2,1
								c-0.3,0.5,0.6,2.1,0.1,2.5c-0.4,0.3-1.7,0-2-0.3c-0.3-0.2-0.4-1-0.3-1.4c0.2-0.6,2.2-1.2,2-1.8c-0.3-0.8-2.7-0.3-3.6-0.2
								c-0.3,0-0.8,0.1-1,0.3c-0.2,0.2-0.6,0.9-0.4,1.2c0.2,0.3,1.1-0.1,1.3,0.2c0.2,0.3,0,1.1-0.3,1.3c-0.4,0.4-1.8-0.2-2.3,0.1
								c-0.2,0.1-0.2,0.7-0.4,0.9c-0.7,0.5-2.7,0.6-3.3,0.1c-0.3-0.3-0.1-1.8-0.2-1.9c0,0,0,0,0,0l0,0c0.1,0,2,0.2,2.6,0
								c0.6-0.3,2.1-1.2,2-1.9c0-0.3-0.8-0.6-1.1-0.5c-0.5,0.1-1,1.2-1.4,1.4c-0.6,0.2-1.8,0.2-2.4-0.1c-0.5-0.3-0.9-1.7-1.4-2
								c-0.7-0.3-2.3-0.2-3,0c-0.9,0.3-3.5,1.4-3.2,2.4c0.2,0.7,2.3-0.4,2.9,0c0.2,0.1,0.3,0.6,0.3,0.8c-0.1,0.3-0.8,0.5-0.8,0.7
								c0.3,0.7,2.5-0.4,3.2,0.1c0.3,0.2,0.7,0.9,0.5,1.2c-0.5,0.7-2.9,0.5-3.6-0.1c-0.2-0.1,0-0.7-0.2-0.9
								c-0.4-0.4-1.7-0.3-2.3-0.5c-0.3-0.1-0.9-0.6-1.2-0.7c-0.6-0.1-2.2,0-2.6,0c-7.8,5.6-14,13.4-17.9,22.3v3
								C319.5,65.6,321.4,66.2,321.7,66.7z"/>
							<path class="st5" d="M400.9,45.5c-0.3,0.2-0.9,0.8-1,1.1c-0.1,0.3,0.2,1.3,0.2,1.3s1,0,1.3,0.2c0.4,0.3,0.3,1.7,0.8,1.9
								c0.5,0.2,1.7-1.2,2.2-0.9c0.6,0.3,0.8,2.1,0.4,2.6c-0.1,0.1-0.5,0-0.7,0c-0.5,0-1.3-0.3-1.8-0.3c-0.5,0-1.6,0.1-2,0.3
								c-0.7,0.4-1.2,2.3-1.9,2.7c-0.6,0.4-2.3-0.1-2.8,0.4c-0.4,0.4-0.7,1.9-0.4,2.4c0.2,0.2,1,0,1.2,0.3c0.2,0.3,0,1.3-0.3,1.5
								c-0.6,0.4-2-0.6-2.8-0.6c-0.6,0-2.5,0.6-2.5,0.6s-0.5,1-0.5,1.4c-0.1,0.7,0,2.3,0.4,2.9c0.2,0.3,1.1,0.6,1.5,0.7
								c0.6,0.1,1.9,0,2.5,0c0.4,0,1.3,0.1,1.7-0.2c0.3-0.2,0.5-1.3,0.5-1.3s1.6-3,2.6-3.4c0.4-0.2,1.3,0.5,1.7,0.4
								c0.6-0.1,1.1-1.7,1.7-1.5c0.3,0.1,0.1,0.9,0.3,1.2c0.7,1,4,1.6,4.2,2.8c0,0.2-0.3,0.6-0.5,0.7c-0.4,0.2-1.7-0.5-1.9-0.1
								c-0.2,0.3,0.5,0.9,0.7,1c0.2,0.2,0.9,0.3,1.2,0.3c0.4,0,1.2-0.3,1.4-0.6c0.2-0.3-0.2-1.3,0-1.6c0.1-0.1,0.6-0.1,0.6-0.3
								c0-0.2-0.3-0.4-0.5-0.5c-0.6-0.5-2.3-0.9-2.8-1.6c-0.4-0.4-1-1.6-0.7-2.1c0.3-0.5,1.8-0.2,2.3,0c0.2,0.1,0.5,0.6,0.7,0.7
								c0.5,0.4,1.7,1.1,2,1.7c0.2,0.5-0.1,1.6,0.1,2.1c0.3,0.7,2.1,2.2,2.1,2.2s0.3-2.4,0.8-3c0.2-0.3,1.1-1,1.4-0.8
								c0.6,0.3,0,1.9,0.3,2.5c0.2,0.5,0.9,1.3,1.4,1.5c0.5,0.2,2.2,0,2.7,0c-3.1-8-8.1-15.1-14.5-20.7c-0.1,0.3-0.4,0.8-0.6,1
								C402.9,45,401.5,45.2,400.9,45.5z"/>
							<path class="st5" d="M419.7,68.7c-1,0.4-3.2,0.3-4.3,0c-0.8-0.3-1.8-1.7-2.6-1.9c-0.7-0.2-2.3-0.2-2.7,0.3
								c-0.3,0.3,0.3,1.4,0,1.7c-0.2,0.2-0.7,0.1-0.9,0c-0.3-0.1-0.7-0.5-0.9-0.7c-1.1-0.5-4-0.2-4.7-1.2c-0.5-0.6,0.6-2.5,0-3.1
								c-1.1-1-4.6,0-6,0.5c-0.5,0.1-1.3,0.9-1.9,1c-0.6,0.1-1.8,0-2.4,0c-0.3,0-0.9-0.2-1.2-0.1c-0.8,0.2-2.5,0.9-2.9,1.6
								c-0.4,0.7,0.3,2.3,0,3c-0.8,1.6-5.3,2.5-5.9,4.3c-0.2,0.4,0.1,1.5,0.5,1.8c0.2,0.2,1-0.2,1.2,0c0.3,0.3,0,1.4-0.3,1.7
								c-0.1,0.2-0.7,0.1-0.8,0.3c-0.7,0.9,0,4.5,0,4.5l5.1,5.8c0,0,1.8,0.3,2.2,0c0.1-0.1,0.1-0.3,0.1-0.4c0.8-0.6,3.1,0.4,4,0
								c0.4-0.1,0.8-0.9,1.2-1.1c0.5-0.2,1.7-0.2,2.3,0c0.4,0.2,0.8,1.1,1.2,1.2c0.8,0.4,2.8-0.3,3.4,0.4c0.7,0.9-0.4,4.5-0.4,4.5
								l3.8,6.6c0,0-1.8,2.7-2,3.8c-0.1,0.4-0.1,1.4,0.1,1.8c0.2,0.5,1.4,1,1.6,1.6c0.4,1,0,4.3,0,4.3s1.8,1.9,2,2.7
								c0.3,0.8,0,3.6,0,3.6h1.7c7.5-9.2,12-20.9,12-33.7c0-5.2-0.8-10.3-2.1-15C419.9,68.6,419.8,68.7,419.7,68.7z"/>
							<path class="st5" d="M394.2,50.4c0.3,0.2,1,0.5,1.2,0.8c0.1,0.2,0.2,0.7,0.1,0.9c-0.2,0.3-1.1,0-1.3,0.3
								c-0.3,0.3-0.5,1.5-0.2,1.8c0.3,0.3,1.2,0,1.6,0c0.5,0,1.6,0,2.1-0.2c0.4-0.2,1.2-0.9,1.1-1.3c-0.1-0.3-0.9-0.3-1.1-0.4
								c-0.2-0.1-0.5-0.5-0.6-0.7c-0.3-0.4-0.8-1.1-0.9-1.5c-0.2-0.5,0-1.8-0.4-2.1c-0.4-0.2-1.4,0.1-1.8,0.4
								c-0.2,0.1-0.4,0.5-0.5,0.8c-0.1,0.2-0.1,0.7,0,0.8C393.4,50.1,394,50.3,394.2,50.4z"/>
							<path class="st5" d="M391.7,53.5c0.6-0.2,1.9-1,2.2-1.6c0.1-0.3,0.2-0.9,0.1-1.2c-0.1-0.2-0.7-0.4-1-0.4
								c-0.4,0-1.1,0.1-1.4,0.3c-0.4,0.3-0.9,1.2-1.1,1.7c-0.1,0.3-0.2,0.9,0,1.1C390.7,53.7,391.4,53.5,391.7,53.5z"/>
							<path class="st5" d="M349.1,40.5L349.1,40.5C349.1,40.5,349.1,40.5,349.1,40.5z"/>
						</g>
					</g>
				</g>
			</g>
			<g>
				<circle class="st22" cx="497.5" cy="115.1" r="26.3"/>
				<g>
					<path class="st45" d="M489.9,123.1h-11.1v-2.7l3.7-3.8c1.1-1.1,1.8-1.9,2.1-2.3c0.3-0.4,0.6-0.8,0.7-1.1
						c0.1-0.3,0.2-0.6,0.2-0.9c0-0.4-0.1-0.7-0.4-0.9c-0.3-0.2-0.6-0.3-1.1-0.3c-0.5,0-1,0.1-1.5,0.4c-0.5,0.3-1,0.7-1.7,1.2
						l-2.3-2.7c0.8-0.7,1.5-1.2,2-1.5c0.5-0.3,1.1-0.5,1.8-0.7c0.6-0.2,1.3-0.2,2.1-0.2c1,0,1.9,0.2,2.7,0.5
						c0.8,0.3,1.4,0.8,1.8,1.5c0.4,0.6,0.6,1.4,0.6,2.2c0,0.6-0.1,1.2-0.2,1.7c-0.2,0.5-0.4,1-0.7,1.5c-0.3,0.5-0.7,1-1.2,1.6
						c-0.5,0.5-1.6,1.6-3.3,3.1v0.1h5.8V123.1z"/>
					<path class="st45" d="M503,120.2h-1.7v3h-4.1v-3h-6.1v-3l6.4-9.3h3.8v9.2h1.7V120.2z M497.2,117.1v-1.8c0-0.3,0-0.8,0-1.4
						c0-0.6,0-0.9,0.1-0.9h-0.1c-0.2,0.5-0.5,1-0.8,1.5l-1.7,2.5H497.2z"/>
					<path class="st45" d="M512.2,123.1v-6.5c0-1.6-0.5-2.4-1.4-2.4c-0.7,0-1.2,0.3-1.5,0.8c-0.3,0.6-0.5,1.5-0.5,2.8v5.2h-4.1
						v-16.3h4.1v2.3c0,1-0.1,2.2-0.2,3.6h0.2c0.4-0.6,0.9-1,1.4-1.3c0.5-0.3,1.2-0.4,1.9-0.4c1.3,0,2.4,0.4,3.1,1.1
						c0.7,0.8,1.1,1.8,1.1,3.2v7.7H512.2z"/>
				</g>
			</g>
			<g>
				<circle class="st29" cx="131.7" cy="200.2" r="52.7"/>
				<polygon class="st46" points="101.6,189.9 131.7,166 161.8,189.9 131.7,215.6 				"/>
				<rect x="107.4" y="171.9" class="st47" width="48.3" height="46.7"/>
				<rect x="110.8" y="188.9" class="st48" width="41.1" height="1.9"/>
				<rect x="110.8" y="194.3" class="st48" width="41.1" height="1.9"/>
				<rect x="110.8" y="198.9" class="st48" width="41.1" height="1.9"/>
				<polygon class="st30" points="101.6,189.9 101.6,234.3 161.8,234.3 161.8,189.9 131.7,215.6 				"/>
				<polygon class="st46" points="101.6,234.3 131.7,215.6 161.8,234.3 				"/>
			</g>
			<g>
				<circle class="st22" cx="690.4" cy="391.8" r="45.1"/>
				<g>
					<path class="st30" d="M704.4,401.6c0,1.2-0.9,2.2-2.1,2.2h-44.3c-1.1,0-2.1-1-2.1-2.2v-25.3c0-1.2,0.9-2.2,2.1-2.2h44.3
						c1.1,0,2.1,1,2.1,2.2V401.6z"/>
					<rect x="656" y="381.1" class="st27" width="48.5" height="6.5"/>
					<rect x="660" y="390.4" class="st49" width="21.2" height="2.5"/>
					<rect x="685" y="390.4" class="st49" width="14.3" height="2.5"/>
					<circle class="st50" cx="663.1" cy="398.5" r="3"/>
					<circle class="st51" cx="667.2" cy="398.5" r="3"/>
				</g>
				<g>
					<path class="st29" d="M721.8,411.2c0,1.2-0.9,2.2-2.1,2.2h-44.3c-1.1,0-2.1-1-2.1-2.2v-25.3c0-1.2,0.9-2.2,2.1-2.2h44.3
						c1.1,0,2.1,1,2.1,2.2V411.2z"/>
					<rect x="673.4" y="390.6" class="st27" width="48.5" height="6.5"/>
					<rect x="677.4" y="399.9" class="st49" width="21.2" height="2.5"/>
					<rect x="702.4" y="399.9" class="st49" width="14.3" height="2.5"/>
				</g>
				<g>
					<path class="st52" d="M684.9,407.5L684.9,407.5c-0.1,0-0.1,0.2-0.2,0.4l-0.2,0.4h0.4l0-0.4
						C684.9,407.8,684.9,407.5,684.9,407.5z"/>
					<path class="st27" d="M686.1,404.7H679c-0.5,0-0.9,0.4-0.9,0.9v4.9c0,0.5,0.4,0.9,0.9,0.9h7.1c0.5,0,0.9-0.4,0.9-0.9v-4.9
						C687,405.1,686.6,404.7,686.1,404.7z M683,408.2c-0.2-0.1-0.4-0.3-0.4-0.5c0-0.4,0.3-0.6,0.7-0.6c0.2,0,0.4,0,0.4,0.1l-0.1,0.3
						c-0.1,0-0.2-0.1-0.4-0.1c-0.2,0-0.3,0.1-0.3,0.2c0,0.1,0.1,0.2,0.3,0.3c0.2,0.1,0.4,0.3,0.4,0.5c0,0.4-0.3,0.6-0.8,0.6
						c-0.3,0-0.5-0.1-0.5-0.1l0.1-0.3c0.1,0.1,0.3,0.1,0.4,0.1c0.2,0,0.3-0.1,0.3-0.2C683.3,408.4,683.2,408.3,683,408.2z
						 M682.1,409h-0.4l0.4-1.9h0.4L682.1,409z M680.9,409h-0.5l-0.2-1.5h-0.3c-0.1,0-0.2-0.1-0.2-0.2c0-0.1,0.1-0.2,0.2-0.2h0.5
						c0,0,0,0,0,0h0.2l0.1,0.9c0,0.2,0,0.4,0,0.6h0c0.1-0.2,0.2-0.4,0.3-0.6l0.4-0.9h0.5L680.9,409z M685,409l0-0.6h-0.5l-0.2,0.6
						h-0.4l0.9-1.9h0.5l0.2,1.9H685z"/>
				</g>
			</g>
			<g>
				<circle class="st22" cx="227.5" cy="115.1" r="26.3"/>
				<circle class="st53" cx="227.5" cy="115.1" r="17.3"/>
				<circle class="st53" cx="227.5" cy="115.1" r="6.6"/>
			</g>
			<g>
				<circle class="st5" cx="41.5" cy="273.6" r="26.3"/>
				<circle class="st54" cx="41.5" cy="273.6" r="21.1"/>
				<path class="st26" d="M51.8,283.7l-8.9-8.8v-15.8c0-0.8-0.7-1.5-1.5-1.5c-0.8,0-1.5,0.7-1.5,1.5v16.4c0,0,0,0,0,0c0,0,0,0,0,0
					c0,0.2,0,0.4,0.1,0.5c0,0,0,0,0,0c0.1,0.2,0.2,0.4,0.3,0.5c0,0,0,0,0,0l9.3,9.2c0.3,0.3,0.7,0.4,1.1,0.4c0.4,0,0.8-0.1,1.1-0.4
					C52.4,285.2,52.4,284.3,51.8,283.7z"/>
			</g>
			<g>
				<circle class="st5" cx="45.1" cy="391.8" r="45.1"/>
				<circle class="st55" cx="54.9" cy="382.7" r="13.4"/>
				<g>
					<path class="st29" d="M23.2,414.4c-1.6-1.6-1.6-4.1,0-5.7l19.6-17.4c1.6-1.6,3-2.7,4.5-1.1c1.6,1.6,0.3,2.9-1.2,4.4l-17.3,19.7
						C27.3,416,24.7,416,23.2,414.4z"/>
				</g>
			</g>
		</g>
	</g>
</g>
</svg>
